<svg width="22" height="22" viewBox="0 0 22 22" fill="none" xmlns="http://www.w3.org/2000/svg">
<g clip-path="url(#clip0_1029_1454)">
<path d="M9.1677 5.49942L12.8344 1.83275C12.8344 1.83275 16.501 -1.83391 20.1677 1.83275C23.8344 5.49942 20.1677 9.16609 20.1677 9.16609L15.2788 14.055C15.2788 14.055 11.6121 17.7216 7.94548 14.055C7.25798 13.3675 6.83203 12.4539 6.83203 12.4539L8.88109 10.4079C8.88109 10.4079 8.79859 11.2414 9.77881 12.2216C9.77881 12.2216 11.6121 14.055 13.4455 12.2216L18.3344 7.33276C18.3344 7.33276 20.1677 5.49942 18.3344 3.66609C16.501 1.83275 14.6677 3.66609 14.6677 3.66609L12.3889 5.94492C12.3889 5.94492 11.2559 5.01542 8.93853 5.72859L9.1677 5.49942Z" fill="#5786FF"/>
<path d="M12.7414 16.4996L9.07478 20.1663C9.07478 20.1663 5.40811 23.833 1.74145 20.1663C-1.92522 16.4996 1.74145 12.833 1.74145 12.833L6.63033 7.94408C6.63033 7.94408 10.297 4.27742 13.9637 7.94408C14.6512 8.63158 15.0771 9.54519 15.0771 9.54519L13.0274 11.5918C13.0274 11.5918 13.1099 10.7576 12.1297 9.77742C12.1297 9.77742 10.2964 7.94408 8.46306 9.77742L3.57417 14.6663C3.57417 14.6663 1.74083 16.4996 3.57417 18.333C5.4075 20.1663 7.24083 18.333 7.24083 18.333L9.51967 16.0541C9.51967 16.0541 10.6527 16.9836 12.97 16.2705L12.7414 16.4996Z" fill="#5786FF"/>
</g>
<defs>
<clipPath id="clip0_1029_1454">
<rect width="22" height="22" fill="white"/>
</clipPath>
</defs>
</svg>
