<svg width="41" height="42" viewBox="0 0 41 42" fill="none" xmlns="http://www.w3.org/2000/svg">
<g clip-path="url(#clip0_35_5946)">
<path d="M30.6215 9.64429H20.572V41.3903C27.3744 41.3903 31.9094 40.2565 33.4887 33.4368C34.3662 29.6477 35.3741 19.4515 35.3741 13.2089C35.3741 11.0944 33.7494 9.64429 30.6215 9.64429ZM10.246 9.64429H20.572V41.3903C13.7696 41.3903 9.23467 40.2565 7.51706 33.4368C6.56699 29.6647 5.5625 19.4515 5.5625 13.2089C5.5625 11.0944 7.11685 9.64429 10.246 9.64429Z" fill="#8899A6"/>
<path d="M35.3681 12.478C35.3681 14.8261 31.8195 16.7297 20.5649 16.7297C9.31145 16.7297 5.76172 14.8261 5.76172 12.478C5.76172 10.1288 9.31145 8.22632 20.5649 8.22632C31.8195 8.22632 35.3681 10.1288 35.3681 12.478Z" fill="#CCD6DD"/>
<path d="M20.597 15.3093L7.54883 14.179C7.54883 22.1155 8.80047 30.4851 9.45464 32.9681C10.2052 35.8127 12.6325 35.6994 20.5687 35.7186V35.7209V35.7186C28.5048 35.6982 30.9605 35.8127 31.7099 32.9681C32.3652 30.4851 33.6293 22.1155 33.6293 14.179L20.597 15.3093Z" fill="#CCD6DD"/>
<path d="M20.5682 24.3831V39.1223C28.5044 39.1223 30.7718 37.9885 31.7434 32.9681C32.0167 31.5588 32.6584 28.3479 33.0744 24.3831H20.5682ZM8.11865 24.3831C8.5336 28.3479 9.15602 31.5565 9.42131 32.9681C10.3646 37.9885 12.6321 39.1223 20.5682 39.1223V24.3831H8.11865Z" fill="#55ACEE"/>
<path d="M20.568 34.7698C15.4027 34.7698 11.2158 35.7845 11.2158 37.0373C11.2158 37.0476 11.2215 37.0578 11.2226 37.0691C12.8065 38.6677 15.5546 39.1235 20.568 39.1235C25.5712 39.1235 28.3182 38.67 29.9111 37.0793C29.9123 37.0657 29.9202 37.0521 29.9202 37.0373C29.9202 35.7845 25.7333 34.7698 20.568 34.7698Z" fill="#3B88C3"/>
<path d="M20.5688 26.6494C27.4664 26.6494 33.0581 25.6342 33.0581 24.3818C33.0581 23.1295 27.4664 22.1143 20.5688 22.1143C13.6712 22.1143 8.07959 23.1295 8.07959 24.3818C8.07959 25.6342 13.6712 26.6494 20.5688 26.6494Z" fill="#88C9F9"/>
<path d="M38.6608 1.63646L30.9242 3.5605C30.0727 3.77252 29.1499 4.21469 28.1579 4.96526C26.2951 6.37456 25.9153 8.28726 25.6115 9.34281L20.9541 25.5186H24.4936L28.8789 10.285C29.1782 9.24644 29.4753 8.35528 30.1589 7.7351C30.7643 7.18635 31.7654 6.86322 32.703 6.62059L39.4793 4.93918C40.3875 4.71356 40.9453 3.78726 40.7208 2.87909C40.4952 1.9698 39.5689 1.41084 38.6608 1.63646Z" fill="#E1E8ED"/>
<path d="M20.9536 25.5154L17.9254 36.0335C17.6669 36.9326 18.1907 37.8793 19.0886 38.139C19.9877 38.3975 20.9343 37.8737 21.1928 36.9757L24.4931 25.5154H20.9536Z" fill="#88C9F9"/>
<path d="M21.2994 26.2856L20.6328 26.6507L20.3232 27.7244L22.6655 31.8843L23.5453 28.8276L22.1157 26.2868L21.2994 26.2856Z" fill="#744EAA"/>
<path d="M31.7989 3.34209L30.52 7.47701C31.122 7.08359 31.9281 6.81942 32.7047 6.61874L33.1968 6.49629L34.3702 2.70264L31.7989 3.34209Z" fill="#DD2E44"/>
<path d="M19.4908 30.6174L18.6099 33.6753L20.8343 37.6265C20.9975 37.4428 21.1268 37.2263 21.1993 36.9757L21.8319 34.7773L19.4908 30.6174Z" fill="#744EAA"/>
<path d="M22.8912 18.7893L22.0103 21.8482L23.5759 24.6283L24.1111 24.7473L24.8208 24.3811L25.2335 22.9503L22.8912 18.7893ZM39.2702 1.59994C39.0718 1.57613 38.8666 1.5818 38.6614 1.63282L36.7386 2.11128L35.5641 5.90607L38.1342 5.26774L39.2702 1.59994ZM23.7335 15.8641L26.0758 20.0228L26.9556 16.9662L24.6144 12.8063L23.7335 15.8641ZM28.112 5.00357C27.2073 5.70312 26.6552 6.52058 26.2969 7.29609L27.7934 14.0625L28.8818 10.2814C28.9567 10.0206 29.0326 9.76888 29.1131 9.52852L28.112 5.00357Z" fill="#DD2E44"/>
<path d="M21.3268 24.2466L20.6353 26.6491C21.8756 26.6479 23.0728 26.6139 24.2031 26.5516L24.8664 24.2477C23.8029 24.7953 21.5853 24.4529 21.3268 24.2466Z" fill="#55ACEE"/>
<path d="M33.7375 13.3944C33.4631 12.6586 32.6559 12.289 31.9416 12.5736C27.8534 14.179 23.9556 14.738 20.5635 14.7697V17.5951C24.3422 17.5566 28.6005 16.9409 32.9359 15.2368C33.6536 14.9557 34.013 14.1303 33.7375 13.3944ZM7.38945 13.3944C7.66381 12.6586 8.47103 12.289 9.18528 12.5736C13.2735 14.179 17.1713 14.738 20.5635 14.7697V17.5951C16.7847 17.5566 12.5264 16.9409 8.191 15.2368C7.47447 14.9557 7.11395 14.1303 7.38945 13.3944Z" fill="white"/>
</g>
<defs>
<clipPath id="clip0_35_5946">
<rect width="40.8145" height="40.8163" fill="white" transform="translate(0.160645 0.573242)"/>
</clipPath>
</defs>
</svg>
