<svg width="42" height="41" viewBox="0 0 42 41" fill="none" xmlns="http://www.w3.org/2000/svg">
<g clip-path="url(#clip0_35_5886)">
<path d="M13.1233 24.5342C15.0144 24.5342 21.5473 29.4605 21.5439 35.533C21.5473 41.6079 4.70377 41.6079 4.70264 35.5319C4.70377 29.4594 11.2321 24.5342 13.1233 24.5342Z" fill="#99AAB5"/>
<path d="M10.6214 28.6845C20.6429 38.7072 30.2778 34.5382 33.3345 31.4838C36.3901 28.4271 33.1554 20.2412 26.1112 13.197C19.0647 6.15162 10.8776 2.91692 7.82204 5.97248C4.76648 9.02803 0.598682 18.663 10.6214 28.6845Z" fill="#CCD6DD"/>
<path d="M15.0439 24.2585C22.0892 31.3038 30.2752 34.5374 33.3319 31.4829C36.3874 28.4263 33.1527 20.2403 26.1085 13.1961C19.0631 6.15188 10.8761 2.91719 7.82052 5.97274C4.76496 9.0283 7.99966 17.2154 15.0439 24.2585Z" fill="#66757F"/>
<path d="M26.1087 13.1963C26.611 13.6997 26.611 14.5149 26.1087 15.0183L17.908 23.2167C17.4046 23.7201 16.5894 23.7201 16.086 23.2167C15.5826 22.7144 15.5826 21.8981 16.086 21.3947L24.2856 13.1963C24.7901 12.6929 25.6042 12.6929 26.1087 13.1963Z" fill="#CCD6DD"/>
<path d="M27.9333 11.3746C28.939 12.3803 28.939 14.0129 27.9333 15.0186C26.9265 16.0254 25.295 16.0254 24.2882 15.0186C23.2825 14.0129 23.2825 12.3803 24.2882 11.3746C25.2939 10.3667 26.9265 10.3667 27.9333 11.3746Z" fill="#CCD6DD"/>
<path d="M33.0099 14.9601L32.9521 14.959C32.3262 14.9284 31.8455 14.3955 31.8761 13.7708C31.8772 13.7526 31.9475 11.3252 30.0847 9.46239C28.2276 7.60638 25.8081 7.67214 25.7752 7.67101C25.1516 7.70842 24.6176 7.21976 24.5859 6.59618C24.5552 5.97033 25.036 5.43745 25.6618 5.40683C25.8001 5.39323 29.0949 5.26738 31.6868 7.85922C34.2797 10.4533 34.1471 13.7447 34.1403 13.8842C34.1108 14.4885 33.6097 14.9601 33.0099 14.9601Z" fill="#FFAC33"/>
<path d="M37.0455 14.3305C36.922 14.3305 36.795 14.309 36.6714 14.2659C36.0807 14.0584 35.7689 13.4122 35.9764 12.8215C36.0149 12.7001 36.9888 9.56069 33.4877 6.06069C29.9435 2.51534 26.5421 3.32373 26.3993 3.36001C25.7995 3.51534 25.1782 3.15139 25.0206 2.54935C24.8619 1.94731 25.2156 1.33166 25.8154 1.16953C26.0081 1.11738 30.583 -0.0515561 35.0909 4.45865C39.6442 9.00967 38.1816 13.3884 38.1158 13.5732C37.9526 14.038 37.5138 14.3305 37.0455 14.3305Z" fill="#FFAC33"/>
<path d="M13.3137 37.0053C10.0258 37.0053 7.02917 36.2592 4.73552 35.0359C4.72645 35.2014 4.70264 35.3647 4.70264 35.5325C4.70377 41.6085 21.5473 41.6084 21.5439 35.5336C21.5439 35.4316 21.5269 35.3329 21.5235 35.232C19.282 36.3386 16.426 37.0053 13.3137 37.0053Z" fill="#66757F"/>
</g>
<defs>
<clipPath id="clip0_35_5886">
<rect width="40.8163" height="40.8163" fill="white" transform="translate(0.938477 0.133545)"/>
</clipPath>
</defs>
</svg>
