<svg width="15" height="15" viewBox="0 0 15 15" fill="none" xmlns="http://www.w3.org/2000/svg">
<g clip-path="url(#clip0_2623_379)">
<path d="M11.719 0.75C11.3603 0.750011 11.0056 0.826284 10.6786 0.973761C10.3515 1.12124 10.0596 1.33655 9.82203 1.60542C9.58452 1.87429 9.40687 2.19058 9.30086 2.53332C9.19486 2.87606 9.16292 3.23742 9.20717 3.59344L5.03904 5.6775C4.68149 5.3327 4.23039 5.10073 3.74194 5.01047C3.25349 4.92021 2.74928 4.97566 2.29212 5.1699C1.83495 5.36415 1.44504 5.68861 1.17096 6.10286C0.896877 6.51712 0.750732 7.00286 0.750732 7.49958C0.750732 7.9963 0.896877 8.48204 1.17096 8.89629C1.44504 9.31055 1.83495 9.63501 2.29212 9.82925C2.74928 10.0235 3.25349 10.0789 3.74194 9.98869C4.23039 9.89843 4.68149 9.66645 5.03904 9.32166L9.20717 11.4057C9.13334 11.9982 9.27134 12.5978 9.59679 13.0984C9.92224 13.599 10.4142 13.9684 10.9857 14.1414C11.5572 14.3144 12.1714 14.2798 12.7198 14.0437C13.2683 13.8076 13.7156 13.3852 13.9828 12.8512C14.2499 12.3172 14.3197 11.706 14.1798 11.1255C14.0398 10.545 13.6992 10.0327 13.2181 9.6791C12.737 9.32548 12.1463 9.15333 11.5505 9.19307C10.9548 9.2328 10.3922 9.48187 9.96232 9.89625L5.7942 7.81219C5.81997 7.60486 5.81997 7.39514 5.7942 7.18781L9.96232 5.10375C10.2606 5.39126 10.6249 5.60116 11.0233 5.71502C11.4216 5.82889 11.8418 5.84324 12.247 5.75681C12.6522 5.67039 13.0299 5.48584 13.3471 5.21935C13.6643 4.95286 13.9113 4.61259 14.0663 4.22839C14.2213 3.84419 14.2797 3.42781 14.2362 3.01581C14.1928 2.6038 14.0489 2.20875 13.8171 1.86533C13.5854 1.52192 13.2729 1.24064 12.9071 1.04617C12.5413 0.851711 12.1333 0.750011 11.719 0.75Z" fill="#5786FF"/>
</g>
<defs>
<clipPath id="clip0_2623_379">
<rect width="13.5" height="13.5" fill="white" transform="translate(0.75 0.75)"/>
</clipPath>
</defs>
</svg>
