<svg width="214" height="62" viewBox="0 0 214 62" fill="none" xmlns="http://www.w3.org/2000/svg">
<rect width="214" height="61" rx="30.5" fill="#E9E9EB"/>
<path d="M5.92257 53.9623C5.32862 57.526 1.97419 60.872 0 61.6616C7.58089 61.6616 12.4374 59.0952 13.6219 57.5158L19.5445 59.2926L18.9522 41.5249H6.51483V43.8939V46.263V46.8552C6.51483 48.0397 6.51483 50.4088 5.92257 53.9623Z" fill="#E9E9EB"/>
<path d="M35.9064 17.2179H36.8728V28.6447H35.9064V22.6375H33.1901V21.8147H35.9064V17.2179ZM33.2162 18.4454C33.2162 21.6841 31.845 24.5702 28.0709 26.4508L27.5224 25.6933C30.6044 24.1785 32.0409 21.9584 32.2368 19.2551H28.0056V18.4454H33.2162ZM47.0463 17.2179H48.0257V28.6447H47.0463V17.2179ZM44.6564 18.4454C44.6564 21.7364 43.1416 24.6355 39.3413 26.49L38.8189 25.7064C41.9009 24.2307 43.455 21.9976 43.6639 19.2551H39.3283V18.4454H44.6564ZM51.2386 17.6358H52.205V20.6916H58.9828V21.4883H51.2386V17.6358ZM49.8282 23.0554H60.1842V23.865H49.8282V23.0554ZM51.1733 25.0273H52.1397V27.5608H59.048V28.3705H51.1733V25.0273ZM71.5261 17.2048H72.5055V21.8017H74.3469V22.6244H72.5055V28.6447H71.5261V17.2048ZM64.2129 18.341H65.1793V24.9228C66.8378 24.9228 68.5616 24.7922 70.4291 24.4005L70.5466 25.2232C68.5877 25.615 66.8509 25.7325 65.114 25.7325H64.2129V18.341ZM82.7573 17.2309H83.7368V21.0051H85.4476V21.8278H83.7368V25.7978H82.7573V17.2309ZM74.9218 18.6283H77.8079V17.2309H78.7873V18.6283H81.6734V19.4249H74.9218V18.6283ZM78.2911 20.0779C79.9104 20.0779 81.0205 20.9136 81.0205 22.2065C81.0205 23.4863 79.9104 24.3221 78.2911 24.3221C76.6717 24.3221 75.5748 23.4863 75.5748 22.2065C75.5748 20.9136 76.6717 20.0779 78.2911 20.0779ZM78.2911 20.8484C77.2202 20.8484 76.502 21.3838 76.502 22.2065C76.502 23.0162 77.2202 23.5516 78.2911 23.5516C79.3619 23.5516 80.0802 23.0162 80.0802 22.2065C80.0802 21.3838 79.3619 20.8484 78.2911 20.8484ZM76.6587 25.1057H77.6251V27.5739H84.2722V28.3835H76.6587V25.1057ZM90.7891 21.5666H92.4868V17.4921H93.414V28.044H92.4868V22.3763H90.7891V21.5666ZM86.4665 18.6022H90.6977V19.3988H87.4068V21.7103H90.1623V22.4808H87.4068V25.0796C89.0522 25.0796 90.0708 25.0143 91.2854 24.7661L91.3768 25.5627C90.0708 25.837 89 25.8762 87.1978 25.8762H86.4665V18.6022ZM94.7852 17.2179H95.7255V28.6447H94.7852V17.2179ZM100.89 17.6488H109.327V18.4585H105.735C105.788 19.7514 107.707 20.7569 109.679 20.9528L109.327 21.7364C107.485 21.5013 105.735 20.6916 105.108 19.4249C104.482 20.6916 102.732 21.5013 100.877 21.7364L100.525 20.9528C102.497 20.7569 104.416 19.7514 104.469 18.4585H100.89V17.6488ZM104.599 21.1748H105.579V22.7811H110.254V23.5908H99.937V22.7811H104.599V21.1748ZM101.217 24.8184H108.987V28.5011H101.217V24.8184ZM108.034 25.6019H102.17V27.6914H108.034V25.6019ZM114.387 17.8317H119.637V19.6991H122.249V17.2179H123.215V23.0815H122.249V20.4958H119.637V22.4938H114.387V17.8317ZM118.683 18.6152H115.34V21.6972H118.683V18.6152ZM115.876 23.6822H123.215V26.3985H116.868V27.7045H123.646V28.488H115.915V25.6542H122.249V24.4658H115.876V23.6822ZM128.021 18.1059C129.575 18.1059 130.698 19.451 130.842 21.6058H133.402V17.2048H134.368V28.6578H133.402V22.3893H130.842C130.751 24.6355 129.601 26.059 128.021 26.059C126.363 26.059 125.187 24.5049 125.187 22.0759C125.187 19.6469 126.363 18.1059 128.021 18.1059ZM128.021 18.9809C126.898 18.9809 126.115 20.2084 126.115 22.0759C126.115 23.9434 126.898 25.184 128.021 25.184C129.157 25.184 129.928 23.9434 129.928 22.0759C129.928 20.2084 129.157 18.9809 128.021 18.9809ZM141.838 21.1357H144.541V17.2048H145.508V28.6578H144.541V21.9323H141.838V21.1357ZM139.122 18.2104H140.101V20.2999C140.101 22.3632 141.433 24.4527 143.066 25.2232L142.491 26.0198C141.198 25.3538 140.127 23.9695 139.618 22.3371C139.122 24.0609 138.038 25.5236 136.758 26.2157L136.144 25.4322C137.777 24.6094 139.122 22.4155 139.122 20.2999V18.2104ZM148.251 26.5553C148.629 26.5553 148.89 26.8164 148.89 27.1952C148.89 27.5869 148.629 27.8612 148.251 27.8612C147.859 27.8612 147.585 27.5869 147.585 27.1952C147.585 26.8164 147.859 26.5553 148.251 26.5553ZM151.433 26.5553C151.811 26.5553 152.073 26.8164 152.073 27.1952C152.073 27.5869 151.811 27.8612 151.433 27.8612C151.041 27.8612 150.767 27.5869 150.767 27.1952C150.767 26.8164 151.041 26.5553 151.433 26.5553ZM154.615 26.5553C154.994 26.5553 155.255 26.8164 155.255 27.1952C155.255 27.5869 154.994 27.8612 154.615 27.8612C154.223 27.8612 153.949 27.5869 153.949 27.1952C153.949 26.8164 154.223 26.5553 154.615 26.5553ZM27.5224 42.3463H32.1976V39.5255H28.7499V34.1712H36.6116V39.5255H33.164V42.3463H37.8784V43.156H27.5224V42.3463ZM35.6583 34.9548H29.7033V38.7419H35.6583V34.9548ZM40.1118 33.897H47.5556V34.7066H41.0913V37.5013H47.7123V38.311H40.1118V33.897ZM38.6753 39.8259H49.0313V40.6486H44.3038V44.6186H43.3374V40.6486H38.6753V39.8259ZM58.5779 33.2179H59.5182V44.6447H58.5779V33.2179ZM56.3187 33.4791H57.2459V44.0571H56.3187V38.4938H54.8168C54.7385 40.727 53.7982 42.1112 52.3878 42.1112C50.9252 42.1112 49.9719 40.5833 49.9719 38.1412C49.9719 35.7122 50.9252 34.1843 52.3878 34.1843C53.7852 34.1843 54.6993 35.5163 54.8168 37.6841H56.3187V33.4791ZM52.3878 35.0984C51.4606 35.0984 50.8729 36.2737 50.8729 38.1412C50.8729 40.0087 51.4606 41.1971 52.3878 41.1971C53.3411 41.1971 53.9288 40.0087 53.9288 38.1412C53.9288 36.2737 53.3411 35.0984 52.3878 35.0984ZM69.7308 33.2179H70.6711V44.6447H69.7308V33.2179ZM67.354 33.5182H68.2813V44.044H67.354V38.7158H64.9381C64.2459 40.0479 63.149 41.2363 61.5688 42.1765L60.9942 41.4583C63.4624 39.9826 64.703 37.8931 64.8858 35.4902H61.4643V34.6805H65.8653C65.8653 35.8036 65.6825 36.9006 65.2907 37.9192H67.354V33.5182ZM80.0018 40.4527C82.4309 40.4527 83.9849 41.2363 83.9849 42.5422C83.9849 43.8481 82.4309 44.6317 80.0018 44.6317C77.5859 44.6317 76.0449 43.8481 76.0449 42.5422C76.0449 41.2363 77.5859 40.4527 80.0018 40.4527ZM80.0018 41.2101C78.1866 41.2101 77.0113 41.7195 77.0113 42.5422C77.0113 43.3519 78.1866 43.8612 80.0018 43.8612C81.8301 43.8612 83.0055 43.3519 83.0055 42.5422C83.0055 41.7195 81.8301 41.2101 80.0018 41.2101ZM76.1232 33.8055H83.8804V34.785C83.8804 35.7122 83.8804 36.6263 83.567 37.8017L82.6137 37.6972C82.9141 36.5219 82.9141 35.673 82.9141 34.785V34.6152H76.1232V33.8055ZM74.8957 38.5722H79.1791V36.3521H80.1455V38.5722H85.1994V39.3688H74.8957V38.5722ZM92.4868 35.2812H94.4196V33.2179H95.399V40.2829H94.4196V38.1282H92.4868V37.3054H94.4196V36.0779H92.4868V35.2812ZM86.3751 34.0798H92.3823V34.9025H91.2201V38.5983C91.7555 38.5591 92.2648 38.5199 92.761 38.4546L92.8133 39.186C90.6063 39.5386 88.0205 39.5647 86.1661 39.5647L86.0616 38.7419L87.5243 38.7289V34.9025H86.3751V34.0798ZM91.6641 40.518C94.0278 40.518 95.4513 41.2624 95.4513 42.5553C95.4513 43.8612 94.0278 44.6186 91.6641 44.6186C89.2873 44.6186 87.8638 43.8612 87.8638 42.5553C87.8638 41.2624 89.2873 40.518 91.6641 40.518ZM91.6641 41.2885C89.888 41.2885 88.8302 41.7717 88.8302 42.5553C88.8302 43.3649 89.888 43.8612 91.6641 43.8612C93.414 43.8612 94.4849 43.3649 94.4849 42.5553C94.4849 41.7717 93.414 41.2885 91.6641 41.2885ZM88.4907 38.7158L90.2667 38.6505V34.9025H88.4907V38.7158ZM105.063 33.2309H106.043V37.0051H107.753V37.8278H106.043V41.7978H105.063V33.2309ZM97.2276 34.6283H100.114V33.2309H101.093V34.6283H103.979V35.4249H97.2276V34.6283ZM100.597 36.0779C102.216 36.0779 103.326 36.9136 103.326 38.2065C103.326 39.4863 102.216 40.3221 100.597 40.3221C98.9776 40.3221 97.8806 39.4863 97.8806 38.2065C97.8806 36.9136 98.9776 36.0779 100.597 36.0779ZM100.597 36.8484C99.5261 36.8484 98.8078 37.3838 98.8078 38.2065C98.8078 39.0162 99.5261 39.5516 100.597 39.5516C101.668 39.5516 102.386 39.0162 102.386 38.2065C102.386 37.3838 101.668 36.8484 100.597 36.8484ZM98.9645 41.1057H99.9309V43.5739H106.578V44.3835H98.9645V41.1057ZM114.812 33.7664C116.51 33.7664 117.724 34.7066 117.724 36.104C117.724 37.4883 116.51 38.4416 114.812 38.4416C113.127 38.4416 111.913 37.4883 111.913 36.104C111.913 34.7066 113.127 33.7664 114.812 33.7664ZM114.812 34.576C113.676 34.576 112.853 35.2029 112.853 36.104C112.853 37.0051 113.676 37.6188 114.812 37.6188C115.961 37.6188 116.784 37.0051 116.784 36.104C116.784 35.2029 115.961 34.576 114.812 34.576ZM119.448 33.2179H120.414V44.6578H119.448V33.2179ZM111.051 39.4341C113.179 39.4341 116.092 39.408 118.612 39.0162L118.677 39.7606C117.593 39.9565 116.457 40.074 115.36 40.1523V44.2921H114.381V40.2046C113.232 40.2568 112.135 40.2699 111.181 40.2699L111.051 39.4341ZM130.588 33.2179H131.58V44.6447H130.588V33.2179ZM122.778 35.2159H125.429V33.4138H126.422V35.2159H129.047V35.9995H126.409V36.9267C126.409 38.8725 127.754 40.727 129.439 41.4583L128.877 42.2288C127.584 41.628 126.474 40.3874 125.952 38.8464C125.442 40.4658 124.332 41.7848 123.026 42.4247L122.465 41.6803C124.136 40.8967 125.442 38.964 125.442 36.9267V35.9995H122.778V35.2159ZM134.806 33.6358H135.773V36.6916H142.55V37.4883H134.806V33.6358ZM133.396 39.0554H143.752V39.865H133.396V39.0554ZM134.741 41.0273H135.707V43.5608H142.616V44.3705H134.741V41.0273ZM148.616 39.9303H149.543V41.3799H151.633V39.9303H152.547V44.488H148.616V39.9303ZM149.543 42.1243V43.7175H151.633V42.1243H149.543ZM154.806 39.852H155.76V40.8184C155.76 42.0329 156.491 43.2996 157.862 43.8351L157.366 44.5794C156.321 44.1354 155.642 43.3388 155.29 42.3855C154.924 43.3257 154.232 44.1354 153.213 44.5794L152.717 43.8351C154.075 43.2605 154.806 41.9937 154.806 40.8184V39.852ZM150.418 33.7272C151.959 33.7272 153.122 34.5891 153.318 35.9211H155.707V33.2179H156.687V39.2643H155.707V36.7308H153.331C153.148 38.0759 151.972 38.977 150.418 38.977C148.708 38.977 147.493 37.9062 147.493 36.3521C147.493 34.785 148.708 33.7272 150.418 33.7272ZM150.418 34.5499C149.256 34.5499 148.433 35.2943 148.433 36.3521C148.433 37.4099 149.256 38.1673 150.418 38.1673C151.581 38.1673 152.416 37.4099 152.416 36.3521C152.416 35.2943 151.581 34.5499 150.418 34.5499ZM163.609 33.4268C166.116 33.4268 167.618 34.119 167.618 35.3988C167.618 36.6786 166.116 37.3838 163.609 37.3838C161.101 37.3838 159.599 36.6786 159.599 35.3988C159.599 34.119 161.101 33.4268 163.609 33.4268ZM163.609 34.1581C161.728 34.1581 160.605 34.6152 160.605 35.3988C160.605 36.1954 161.728 36.6394 163.609 36.6394C165.489 36.6394 166.612 36.1954 166.612 35.3988C166.612 34.6152 165.489 34.1581 163.609 34.1581ZM158.45 38.1804H168.767V38.977H158.45V38.1804ZM159.704 39.9826H167.435V42.5161H160.696V43.7436H167.788V44.5141H159.743V41.7978H166.482V40.74H159.704V39.9826ZM177.595 33.2179H178.562V37.9453H180.299V38.7681H178.562V44.6447H177.595V33.2179ZM173.038 34.4585C173.038 37.1618 172.424 39.852 170.361 42.059L169.577 41.4974C171.301 39.7214 172.006 37.5536 172.124 35.2682H169.93V34.4585H173.038ZM176.159 34.4585C176.159 37.1487 175.754 40.3221 173.638 42.8164L172.842 42.2679C174.618 40.2307 175.153 37.645 175.232 35.2682H173.403V34.4585H176.159ZM183.538 43.8612C183.146 43.8612 182.872 43.5869 182.872 43.1952C182.872 42.8164 183.146 42.5553 183.538 42.5553C183.916 42.5553 184.178 42.8164 184.178 43.1952C184.178 43.5869 183.916 43.8612 183.538 43.8612ZM183.054 41.4322C183.041 40.1654 183.394 39.408 184.321 38.7289C185.314 37.9845 185.575 37.4752 185.614 36.8745C185.666 35.8297 184.896 35.0984 183.76 35.0984C182.937 35.0984 182.14 35.6861 181.814 36.5349L180.9 36.1954C181.357 34.9809 182.532 34.132 183.76 34.132C185.497 34.132 186.659 35.2812 186.58 36.9267C186.541 37.7756 186.097 38.6114 184.896 39.5124C184.204 40.0218 184.008 40.4135 184.021 41.4322H183.054Z" fill="black"/>
</svg>
