<svg width="25" height="25" viewBox="0 0 25 25" fill="none" xmlns="http://www.w3.org/2000/svg">
<path d="M12.5002 1.73962C13.495 1.73962 14.422 2.22608 14.9898 3.03858L15.0991 3.20525L23.5512 17.3177C23.8081 17.7626 23.9478 18.2654 23.9574 18.779C23.967 19.2926 23.846 19.8003 23.6059 20.2544C23.3658 20.7085 23.0143 21.0943 22.5844 21.3755C22.1546 21.6568 21.6604 21.8244 21.1481 21.8625L20.945 21.8709H4.04392C3.53112 21.8651 3.02813 21.7295 2.58192 21.4767C2.1357 21.2239 1.76081 20.8622 1.49222 20.4253C1.22364 19.9884 1.07013 19.4906 1.04602 18.9784C1.02191 18.4661 1.12798 17.9561 1.35434 17.4959L1.45747 17.3032L9.90538 3.20108C10.1756 2.75478 10.5564 2.38576 11.0109 2.12973C11.4655 1.8737 11.9785 1.73934 12.5002 1.73962ZM12.5002 11.4584H11.4585L11.3366 11.4657C11.0835 11.4958 10.8501 11.6177 10.6808 11.8083C10.5115 11.999 10.418 12.2451 10.418 12.5C10.418 12.755 10.5115 13.0011 10.6808 13.1917C10.8501 13.3824 11.0835 13.5043 11.3366 13.5344L11.4585 13.5417V16.6667L11.4658 16.7886C11.4932 17.0211 11.5982 17.2376 11.7637 17.4032C11.9293 17.5687 12.1458 17.6737 12.3783 17.7011L12.5002 17.7084H13.5418L13.6637 17.7011C13.8962 17.6737 14.1127 17.5687 14.2783 17.4032C14.4438 17.2376 14.5488 17.0211 14.5762 16.7886L14.5835 16.6667L14.5762 16.5448C14.5513 16.3323 14.4616 16.1326 14.3192 15.9729C14.1768 15.8132 13.9887 15.7012 13.7804 15.6521L13.6637 15.6313L13.5418 15.625V12.5L13.5345 12.3782C13.5071 12.1456 13.4022 11.9291 13.2366 11.7636C13.0711 11.598 12.8546 11.4931 12.622 11.4657L12.5002 11.4584ZM12.5106 8.33337L12.3783 8.34067C12.1251 8.37078 11.8918 8.4927 11.7225 8.68334C11.5532 8.87397 11.4597 9.12008 11.4597 9.37504C11.4597 9.63 11.5532 9.87611 11.7225 10.0667C11.8918 10.2574 12.1251 10.3793 12.3783 10.4094L12.5002 10.4167L12.6325 10.4094C12.8856 10.3793 13.119 10.2574 13.2883 10.0667C13.4576 9.87611 13.5511 9.63 13.5511 9.37504C13.5511 9.12008 13.4576 8.87397 13.2883 8.68334C13.119 8.4927 12.8856 8.37078 12.6325 8.34067L12.5106 8.33337Z" fill="#5E6D93"/>
</svg>
