<svg width="869" height="690" viewBox="0 0 869 690" fill="none" xmlns="http://www.w3.org/2000/svg">
<g filter="url(#filter0_d_1585_2727)">
<path d="M780.201 50.9043C800.212 50.9043 816.435 67.1269 816.435 87.1384L816.435 601.096C816.435 621.108 800.212 637.33 780.201 637.33L87.2293 637.33C67.2177 637.33 50.9952 621.108 50.9952 601.096L50.9952 87.1384C50.9952 67.1268 67.2177 50.9043 87.2292 50.9043L780.201 50.9043Z" fill="white"/>
<path d="M777.85 54.1719C797.462 54.1719 813.36 70.07 813.36 89.6813L813.36 598.925C813.36 618.536 797.462 634.434 777.85 634.434L89.4024 634.434C69.7911 634.434 53.893 618.536 53.893 598.925L53.893 89.6813C53.893 70.07 69.7911 54.1718 89.4024 54.1718L777.85 54.1719Z" fill="#D2D2D9"/>
<path fill-rule="evenodd" clip-rule="evenodd" d="M817.853 569.673C817.853 568.669 817.038 567.854 816.034 567.854L816.034 600.231C817.038 600.231 817.853 599.417 817.853 598.412L817.853 569.673ZM762.922 637.338C762.922 638.342 762.108 639.157 761.103 639.157L737.821 639.157C736.817 639.157 736.002 638.342 736.002 637.338L762.922 637.338ZM730.182 637.338C730.182 638.342 729.368 639.157 728.363 639.157L705.081 639.157C704.076 639.157 703.262 638.342 703.262 637.338L730.182 637.338Z" fill="white"/>
</g>
<rect x="74" y="611" width="535" height="715" rx="9.78" transform="rotate(-90 74 611)" fill="white"/>
<rect width="525" height="380.625" rx="10.5" transform="matrix(1 0 0 -1 169 554.575)" fill="#F8F8FB"/>
<path d="M344.862 340.547C345.77 340.547 346.408 339.488 346.408 337.993C346.408 336.498 345.77 335.448 344.862 335.448C343.947 335.448 343.308 336.498 343.308 337.993C343.308 339.488 343.947 340.547 344.862 340.547ZM344.862 341.084C343.594 341.084 342.704 339.807 342.704 337.993C342.704 336.187 343.594 334.91 344.862 334.91C346.122 334.91 347.013 336.187 347.013 337.993C347.013 339.807 346.122 341.084 344.862 341.084ZM350.012 334.608L348.257 341.429H347.652L349.416 334.608H350.012ZM352.965 340.547C353.873 340.547 354.511 339.488 354.511 337.993C354.511 336.498 353.873 335.448 352.965 335.448C352.05 335.448 351.411 336.498 351.411 337.993C351.411 339.488 352.05 340.547 352.965 340.547ZM352.965 341.084C351.697 341.084 350.807 339.807 350.807 337.993C350.807 336.187 351.697 334.91 352.965 334.91C354.225 334.91 355.116 336.187 355.116 337.993C355.116 339.807 354.225 341.084 352.965 341.084ZM362.437 334.28H363.075V337.287H364.26V337.817H363.075V341.639H362.437V334.28ZM361.185 335.078C361.185 337.153 360.211 339.043 357.842 340.227L357.489 339.74C359.379 338.791 360.404 337.346 360.547 335.599H357.825V335.078H361.185ZM365.478 334.44H366.099V336.355H370.451V336.876H365.478V334.44ZM364.571 337.749H371.207V338.27H364.571V337.749ZM367.88 338.951C369.443 338.951 370.392 339.429 370.392 340.278C370.392 341.126 369.443 341.613 367.88 341.613C366.309 341.613 365.369 341.126 365.369 340.278C365.369 339.429 366.309 338.951 367.88 338.951ZM367.88 339.446C366.713 339.446 365.999 339.749 365.999 340.278C365.999 340.807 366.713 341.109 367.88 341.109C369.048 341.109 369.753 340.807 369.753 340.278C369.753 339.749 369.048 339.446 367.88 339.446Z" fill="black"/>
<path d="M489.762 340.547C490.67 340.547 491.308 339.488 491.308 337.993C491.308 336.498 490.67 335.448 489.762 335.448C488.847 335.448 488.208 336.498 488.208 337.993C488.208 339.488 488.847 340.547 489.762 340.547ZM489.762 341.084C488.494 341.084 487.604 339.807 487.604 337.993C487.604 336.187 488.494 334.91 489.762 334.91C491.022 334.91 491.913 336.187 491.913 337.993C491.913 339.807 491.022 341.084 489.762 341.084ZM494.912 334.608L493.156 341.429H492.552L494.316 334.608H494.912ZM497.689 340.563C498.495 340.563 499.058 340.043 499.058 339.303C499.058 338.598 498.495 338.102 497.689 338.102C496.883 338.102 496.32 338.598 496.32 339.303C496.32 340.043 496.883 340.563 497.689 340.563ZM496.479 336.498C496.479 337.119 496.975 337.556 497.689 337.556C498.403 337.556 498.907 337.119 498.907 336.498C498.907 335.843 498.403 335.389 497.689 335.389C496.975 335.389 496.479 335.843 496.479 336.498ZM498.689 337.817C499.26 338.153 499.663 338.757 499.663 339.287C499.663 340.353 498.848 341.101 497.689 341.101C496.53 341.101 495.715 340.353 495.715 339.287C495.715 338.757 496.118 338.153 496.698 337.817C496.211 337.489 495.875 336.951 495.875 336.515C495.875 335.54 496.622 334.851 497.689 334.851C498.756 334.851 499.512 335.54 499.512 336.515C499.512 336.951 499.176 337.489 498.689 337.817ZM506.984 334.28H507.622V337.287H508.807V337.817H507.622V341.639H506.984V334.28ZM505.732 335.078C505.732 337.153 504.758 339.043 502.389 340.227L502.036 339.74C503.926 338.791 504.951 337.346 505.094 335.599H502.372V335.078H505.732ZM510.025 334.44H510.647V336.355H514.998V336.876H510.025V334.44ZM509.118 337.749H515.754V338.27H509.118V337.749ZM512.427 338.951C513.99 338.951 514.939 339.429 514.939 340.278C514.939 341.126 513.99 341.613 512.427 341.613C510.857 341.613 509.916 341.126 509.916 340.278C509.916 339.429 510.857 338.951 512.427 338.951ZM512.427 339.446C511.26 339.446 510.546 339.749 510.546 340.278C510.546 340.807 511.26 341.109 512.427 341.109C513.595 341.109 514.301 340.807 514.301 340.278C514.301 339.749 513.595 339.446 512.427 339.446Z" fill="black"/>
<path d="M391.643 235.205H393.158V247.395H391.643V235.205ZM386.661 236.092C388.49 236.092 389.814 237.758 389.814 240.392C389.814 243.04 388.49 244.706 386.661 244.706C384.832 244.706 383.507 243.04 383.507 240.392C383.507 237.758 384.832 236.092 386.661 236.092ZM386.661 237.457C385.651 237.457 384.954 238.536 384.954 240.392C384.954 242.262 385.651 243.354 386.661 243.354C387.671 243.354 388.367 242.262 388.367 240.392C388.367 238.536 387.671 237.457 386.661 237.457ZM403.314 235.233H404.815V244.201H403.314V239.737H400.912V242.249H395.274V236.024H396.748V237.99H399.437V236.024H400.912V238.522H403.314V235.233ZM396.871 243.327H398.373V245.934H405.088V247.135H396.871V243.327ZM396.748 239.136V241.034H399.437V239.136H396.748ZM409.122 244.678H413.858V242.03H410.323V236.161H418.868V242.03H415.346V244.678H420.124V245.893H409.122V244.678ZM417.407 237.348H411.797V240.843H417.407V237.348ZM429.229 235.233H430.73V242.126H429.229V235.233ZM422.745 242.713H430.73V247.231H422.745V242.713ZM429.27 243.9H424.219V246.043H429.27V243.9ZM424.165 235.819C426.035 235.819 427.413 237.007 427.413 238.7C427.413 240.392 426.035 241.58 424.165 241.58C422.294 241.58 420.916 240.392 420.916 238.7C420.916 237.007 422.294 235.819 424.165 235.819ZM424.165 237.062C423.141 237.062 422.376 237.703 422.376 238.7C422.376 239.71 423.141 240.338 424.165 240.338C425.188 240.338 425.953 239.71 425.953 238.7C425.953 237.703 425.188 237.062 424.165 237.062ZM438.504 235.615C440.346 235.615 441.725 236.748 441.725 238.358C441.725 239.969 440.346 241.088 438.504 241.088C436.675 241.088 435.31 239.969 435.31 238.358C435.31 236.748 436.675 235.615 438.504 235.615ZM438.504 236.83C437.507 236.83 436.757 237.417 436.757 238.358C436.757 239.3 437.507 239.874 438.504 239.874C439.527 239.874 440.265 239.3 440.265 238.358C440.265 237.417 439.527 236.83 438.504 236.83ZM443.636 235.233H445.138V241.361H443.636V235.233ZM437.139 241.894H445.138V245.074H438.627V246.057H445.479V247.231H437.166V243.982H443.65V243.054H437.139V241.894ZM449.724 236.215H451.24V238.126C451.24 240.365 452.386 242.604 454.338 243.463L453.464 244.678C452.059 244.023 451.048 242.726 450.502 241.143C449.956 242.849 448.919 244.242 447.458 244.938L446.558 243.696C448.55 242.808 449.724 240.474 449.724 238.126V236.215ZM455.198 235.205H456.7V247.395H455.198V235.205ZM459.689 235.656H461.177V238.645H468.043V239.846H459.689V235.656ZM458.283 241.252H469.285V242.453H458.283V241.252ZM459.594 243.504H461.081V245.893H468.111V247.108H459.594V243.504ZM470.992 244.897C471.483 244.897 471.824 245.252 471.824 245.743C471.824 246.248 471.483 246.603 470.992 246.603C470.487 246.603 470.132 246.248 470.132 245.743C470.132 245.252 470.487 244.897 470.992 244.897ZM474.45 244.897C474.941 244.897 475.282 245.252 475.282 245.743C475.282 246.248 474.941 246.603 474.45 246.603C473.944 246.603 473.59 246.248 473.59 245.743C473.59 245.252 473.944 244.897 474.45 244.897ZM477.907 244.897C478.399 244.897 478.74 245.252 478.74 245.743C478.74 246.248 478.399 246.603 477.907 246.603C477.402 246.603 477.047 246.248 477.047 245.743C477.047 245.252 477.402 244.897 477.907 244.897Z" fill="#1A3C95"/>
<path d="M412.3 297.804V303.919H413.555V305.175H412.3V307.741H410.853V305.175H406.58L406.444 303.919L410.921 297.804H412.3ZM408.164 303.919H410.853V300.22L408.164 303.919ZM422.949 296.644H424.45V303.728H422.949V303.25H420.71V302.322H422.949V296.644ZM414.322 301.039C416.67 301.039 419.563 301.025 422.143 300.766L422.239 301.694C421.133 301.858 420 301.954 418.894 302.008V303.755H417.393V302.063C416.369 302.09 415.386 302.09 414.499 302.09L414.322 301.039ZM416.096 304.124H424.45V306.84H417.611V307.646H424.791V308.697H416.11V305.885H422.976V305.161H416.096V304.124ZM418.198 296.848C420.014 296.848 421.215 297.545 421.215 298.664C421.215 299.783 420.014 300.479 418.198 300.479C416.397 300.479 415.182 299.783 415.182 298.664C415.182 297.545 416.397 296.848 418.198 296.848ZM418.198 297.845C417.216 297.845 416.588 298.145 416.588 298.664C416.588 299.196 417.216 299.497 418.198 299.497C419.195 299.497 419.823 299.196 419.823 298.664C419.823 298.145 419.195 297.845 418.198 297.845ZM432.647 297.818V307.741L431.2 307.727V299.36L429.453 300.329L428.852 299.114L431.213 297.818H432.647ZM434.516 306.472C436.509 304.561 439.226 302.622 439.226 300.943C439.226 299.824 438.516 299.032 437.506 299.032C436.728 299.032 435.95 299.592 435.595 300.397L434.325 299.838C434.871 298.582 436.195 297.708 437.506 297.708C439.376 297.708 440.673 299.046 440.673 300.943C440.673 303.032 438.407 304.888 436.564 306.472H440.836V307.741H434.653L434.516 306.472ZM445.029 297.04C446.872 297.04 448.251 298.172 448.251 299.783C448.251 301.394 446.872 302.513 445.029 302.513C443.2 302.513 441.835 301.394 441.835 299.783C441.835 298.172 443.2 297.04 445.029 297.04ZM445.029 298.254C444.033 298.254 443.282 298.841 443.282 299.783C443.282 300.725 444.033 301.298 445.029 301.298C446.053 301.298 446.79 300.725 446.79 299.783C446.79 298.841 446.053 298.254 445.029 298.254ZM450.162 296.657H451.663V302.786H450.162V296.657ZM443.664 303.319H451.663V306.499H445.152V307.482H452.004V308.656H443.692V305.407H450.175V304.479H443.664V303.319Z" fill="#1A3C95"/>
<g filter="url(#filter1_d_1585_2727)">
<g clip-path="url(#clip0_1585_2727)">
<path d="M418.375 217.671C418.375 219.282 419.681 220.588 421.292 220.588H438.792C440.402 220.588 441.708 219.282 441.708 217.671V205.275C441.708 203.665 440.402 202.359 438.792 202.359H432.229C429.632 202.359 430.042 198.713 426.076 198.713H421.292C419.681 198.713 418.375 200.019 418.375 201.63V217.671Z" fill="#2F5FDD"/>
<path d="M441.953 205.275H437.169C433.203 205.275 433.243 208.921 430.646 208.921H424.084C422.473 208.921 421.034 210.227 420.871 211.838L420.511 214.663L420.129 217.671L420.115 217.67C420.03 218.112 419.625 218.398 419.167 218.398C418.698 218.398 418.36 218.029 418.384 217.564C418.382 217.6 418.375 217.635 418.375 217.671C418.375 219.132 419.453 220.331 420.854 220.543C420.983 220.571 421.125 220.588 421.292 220.588H440.25C441.861 220.588 443.299 219.282 443.463 217.671L444.573 208.192C444.737 206.581 443.564 205.275 441.953 205.275Z" fill="#5786FF"/>
</g>
</g>
<path d="M355.293 262.958H356.115V271.303H355.293V262.958ZM351.711 263.601C352.949 263.601 353.838 264.726 353.838 266.512C353.838 268.288 352.949 269.422 351.711 269.422C350.473 269.422 349.585 268.288 349.585 266.512C349.585 264.726 350.473 263.601 351.711 263.601ZM351.711 264.338C350.927 264.338 350.379 265.179 350.379 266.512C350.379 267.844 350.927 268.695 351.711 268.695C352.496 268.695 353.044 267.844 353.044 266.512C353.044 265.179 352.496 264.338 351.711 264.338ZM363.354 262.977H364.176V269.129H363.354V265.964H361.502V267.731H357.731V263.525H358.535V264.962H360.699V263.525H361.502V265.293H363.354V262.977ZM358.818 268.525H359.631V270.443H364.375V271.104H358.818V268.525ZM358.535 265.604V267.06H360.699V265.604H358.535ZM367.29 269.555H370.635V267.589H368.159V263.648H373.924V267.589H371.448V269.555H374.822V270.226H367.29V269.555ZM373.13 264.3H368.963V266.937H373.13V264.3ZM381.314 262.977H382.127V267.721H381.314V262.977ZM376.74 268.156H382.127V271.18H376.74V268.156ZM381.333 268.808H377.543V270.518H381.333V268.808ZM377.666 263.403C378.933 263.403 379.849 264.206 379.849 265.359C379.849 266.502 378.933 267.296 377.666 267.296C376.4 267.296 375.483 266.502 375.483 265.359C375.483 264.206 376.4 263.403 377.666 263.403ZM377.666 264.092C376.872 264.092 376.287 264.603 376.287 265.359C376.287 266.115 376.872 266.616 377.666 266.616C378.46 266.616 379.046 266.115 379.046 265.359C379.046 264.603 378.46 264.092 377.666 264.092ZM385.618 263.705H389.455V267.589H385.618V263.705ZM388.661 264.367H386.422V266.918H388.661V264.367ZM390.929 262.968H391.751V265.482H392.961V266.162H391.751V269.054H390.929V262.968ZM386.554 268.477H387.367V270.443H392.11V271.104H386.554V268.477ZM398.953 262.968H399.775V264.858H400.994V265.538H399.775V267.674H398.953V262.968ZM394.511 268.109H399.775V271.171H394.511V268.109ZM398.981 268.761H395.314V270.509H398.981V268.761ZM393.698 263.384H394.52V266.389C395.654 266.379 396.845 266.294 398.14 266.03L398.234 266.691C396.845 266.984 395.588 267.069 394.369 267.069H393.698V263.384ZM407.316 262.958H408.138V271.303H407.316V262.958ZM403.734 263.601C404.972 263.601 405.861 264.726 405.861 266.512C405.861 268.288 404.972 269.422 403.734 269.422C402.496 269.422 401.608 268.288 401.608 266.512C401.608 264.726 402.496 263.601 403.734 263.601ZM403.734 264.338C402.95 264.338 402.402 265.179 402.402 266.512C402.402 267.844 402.95 268.695 403.734 268.695C404.519 268.695 405.067 267.844 405.067 266.512C405.067 265.179 404.519 264.338 403.734 264.338ZM416.875 262.958H417.706V266.313H419.001V267.003H417.706V271.284H416.875V262.958ZM415.552 263.856C415.552 266.238 414.484 268.373 411.781 269.725L411.318 269.101C413.416 268.043 414.54 266.483 414.72 264.527H411.724V263.856H415.552ZM420.334 263.138H421.137V265.255H425.985V265.916H420.334V263.138ZM419.322 266.842H426.835V267.513H419.322V266.842ZM423.065 268.232C424.841 268.232 425.918 268.78 425.918 269.744C425.918 270.707 424.841 271.265 423.065 271.265C421.279 271.265 420.211 270.707 420.211 269.744C420.211 268.78 421.279 268.232 423.065 268.232ZM423.065 268.874C421.789 268.874 421.033 269.186 421.033 269.744C421.033 270.301 421.789 270.613 423.065 270.613C424.34 270.613 425.087 270.301 425.087 269.744C425.087 269.186 424.34 268.874 423.065 268.874ZM432.978 262.977H433.8V265.68H435.019V266.36H433.8V269.214H432.978V262.977ZM427.355 263.96H429.406V262.977H430.218V263.96H432.269V264.622H427.355V263.96ZM429.812 265.056C430.993 265.056 431.806 265.68 431.806 266.616C431.806 267.561 430.993 268.175 429.812 268.175C428.631 268.175 427.818 267.561 427.818 266.616C427.818 265.68 428.631 265.056 429.812 265.056ZM429.812 265.699C429.084 265.699 428.593 266.049 428.593 266.616C428.593 267.183 429.084 267.532 429.812 267.532C430.53 267.532 431.022 267.183 431.022 266.616C431.022 266.049 430.53 265.699 429.812 265.699ZM428.602 268.714H429.415V270.443H434.169V271.104H428.602V268.714ZM439.456 263.686H440.278V265.132C440.278 266.653 441.232 268.184 442.47 268.751L441.988 269.413C441.034 268.95 440.268 267.995 439.881 266.824C439.503 268.061 438.719 269.082 437.736 269.573L437.235 268.893C438.501 268.307 439.456 266.72 439.456 265.132V263.686ZM443.283 262.958H444.105V271.303H443.283V262.958ZM450.966 262.977H451.788V265.463H453.007V266.143H451.788V269.025H450.966V262.977ZM449.558 263.611C449.558 265.775 448.074 267.353 445.674 268.099L445.324 267.438C447.281 266.842 448.519 265.699 448.67 264.281H445.674V263.611H449.558ZM446.581 268.411H447.403V270.443H452.147V271.104H446.581V268.411ZM457.099 263.119C458.942 263.119 460.038 263.62 460.038 264.546C460.038 265.482 458.942 265.992 457.099 265.992C455.266 265.992 454.16 265.482 454.16 264.546C454.16 263.62 455.266 263.119 457.099 263.119ZM457.099 263.724C455.767 263.724 455.011 264.026 455.011 264.546C455.011 265.085 455.767 265.378 457.099 265.378C458.432 265.378 459.197 265.085 459.197 264.546C459.197 264.026 458.432 263.724 457.099 263.724ZM453.348 266.521H460.86V267.183H453.348V266.521ZM454.245 267.854H459.897V269.762H455.068V270.566H460.152V271.199H454.274V269.177H459.103V268.487H454.245V267.854ZM468.954 262.977H469.776V265.472H470.977V266.153H469.776V268.562H468.954V262.977ZM463.256 267.683C463.908 267.683 464.673 267.683 465.458 267.655V267.069C464.503 266.975 463.908 266.531 463.908 265.85C463.908 265.085 464.673 264.622 465.845 264.622C467.036 264.622 467.801 265.085 467.801 265.85C467.801 266.521 467.215 266.965 466.261 267.069V267.627C467.017 267.589 467.773 267.523 468.482 267.419L468.548 268.005C466.771 268.326 464.815 268.336 463.369 268.336L463.256 267.683ZM464.286 268.969H469.776V271.293H468.954V269.621H464.286V268.969ZM463.473 263.705H465.458V262.902H466.261V263.705H468.236V264.319H463.473V263.705ZM465.845 265.179C465.136 265.179 464.683 265.434 464.683 265.85C464.683 266.257 465.136 266.531 465.845 266.531C466.573 266.531 467.026 266.257 467.026 265.85C467.026 265.434 466.573 265.179 465.845 265.179ZM477.337 262.977H478.159V269.035H477.337V262.977ZM472.801 268.421H473.613V270.443H478.404V271.104H472.801V268.421ZM473.689 263.544C474.936 263.544 475.872 264.395 475.872 265.604C475.872 266.805 474.936 267.655 473.689 267.655C472.451 267.655 471.506 266.805 471.506 265.604C471.506 264.395 472.451 263.544 473.689 263.544ZM473.689 264.253C472.905 264.253 472.309 264.801 472.309 265.604C472.309 266.389 472.905 266.937 473.689 266.937C474.473 266.937 475.078 266.389 475.078 265.604C475.078 264.801 474.473 264.253 473.689 264.253ZM479.34 264.376H480.994V263.204H481.797V264.376H483.442V265.037H479.34V264.376ZM481.4 265.567C482.44 265.567 483.196 266.36 483.196 267.476C483.196 268.6 482.44 269.384 481.4 269.384C480.361 269.384 479.614 268.6 479.614 267.476C479.614 266.36 480.361 265.567 481.4 265.567ZM481.4 266.257C480.777 266.257 480.342 266.757 480.342 267.476C480.342 268.194 480.777 268.695 481.4 268.695C482.015 268.695 482.468 268.194 482.468 267.476C482.468 266.757 482.015 266.257 481.4 266.257ZM485.625 262.968H486.399V271.284H485.625V267.126H484.613V270.887H483.848V263.166H484.613V266.455H485.625V262.968ZM487.382 269.555H490.728V267.806H488.261V263.544H489.074V265H493.213V263.544H494.026V267.806H491.54V269.555H494.914V270.235H487.382V269.555ZM489.074 265.661V267.145H493.213V265.661H489.074ZM498.675 265.926H499.998V263.147H500.764V270.868H499.998V266.606H498.675V265.926ZM497.097 263.752H497.882V265.283C497.882 266.606 498.477 268.024 499.573 268.704L499.11 269.337C498.335 268.865 497.797 268.005 497.504 267.031C497.201 268.099 496.615 269.016 495.803 269.517L495.292 268.903C496.445 268.222 497.097 266.729 497.097 265.302V263.752ZM501.69 262.968H502.474V271.284H501.69V262.968ZM503.429 269.555H505.253V267.343C504.563 266.965 504.147 266.379 504.147 265.623C504.147 264.319 505.423 263.478 507.181 263.478C508.957 263.478 510.214 264.319 510.214 265.623C510.214 266.37 509.808 266.956 509.137 267.324V269.555H510.961V270.226H503.429V269.555ZM507.181 264.121C505.877 264.121 504.95 264.716 504.95 265.623C504.95 266.54 505.877 267.126 507.181 267.126C508.494 267.126 509.42 266.54 509.42 265.623C509.42 264.716 508.494 264.121 507.181 264.121ZM506.066 269.555H508.315V267.636C507.974 267.721 507.587 267.769 507.181 267.769C506.784 267.769 506.406 267.721 506.066 267.646V269.555ZM513.125 263.648L513.002 268.874H512.265L512.123 263.648H513.125ZM512.643 269.706C512.936 269.706 513.144 269.914 513.144 270.216C513.144 270.518 512.936 270.736 512.643 270.736C512.341 270.736 512.123 270.518 512.123 270.216C512.123 269.914 512.341 269.706 512.643 269.706Z" fill="#5E6D93"/>
<rect x="436.75" y="510.475" width="246.75" height="33.6" rx="7.35" fill="#B7BDCC"/>
<path d="M524.806 527.726H534.116V528.765H530.096V531.872H528.814V528.765H524.806V527.726ZM526.008 522.02H533.007V523.025H527.255V523.926H532.787V524.908H527.255V525.855H533.122V526.871H526.008V522.02ZM534.624 529.643H537.027V527.53H535.421V526.513H536.853V523.452H535.375V522.436H543.125V523.452H541.658V526.513H543.102V527.53H541.485V529.643H543.934V530.671H534.624V529.643ZM538.124 526.513H540.399V523.452H538.124V526.513ZM538.286 529.643H540.238V527.53H538.286V529.643ZM554.427 521.57H555.639V531.849H554.427V526.629H553.399V531.364H552.209V521.766H553.399V525.601H554.427V521.57ZM546.931 522.679H551.631V523.718H549.957V524.192C549.957 526.028 550.58 527.714 552.07 528.5L551.343 529.47C550.384 528.95 549.749 528.061 549.379 526.952C549.033 528.223 548.397 529.239 547.404 529.84L546.63 528.869C548.132 527.992 548.732 526.213 548.732 524.192V523.718H546.931V522.679ZM558.562 522.193H559.786V523.452C559.786 524.584 560.421 525.705 561.761 526.236L561.091 527.195C560.19 526.837 559.555 526.19 559.197 525.381C558.816 526.305 558.158 527.091 557.176 527.506L556.506 526.525C557.903 525.913 558.562 524.619 558.562 523.452V522.193ZM564.106 521.581H565.319V527.888H564.106V525.208H563.112V527.564H561.923V521.778H563.112V524.18H564.106V521.581ZM561.865 528.061C564.013 528.061 565.365 528.777 565.365 529.955C565.365 531.145 564.013 531.849 561.865 531.849C559.728 531.849 558.377 531.145 558.377 529.955C558.377 528.777 559.728 528.061 561.865 528.061ZM561.865 529.031C560.456 529.031 559.636 529.354 559.636 529.955C559.636 530.556 560.456 530.891 561.865 530.891C563.286 530.891 564.094 530.556 564.094 529.955C564.094 529.354 563.286 529.031 561.865 529.031ZM568.876 522.136H570.147V523.048C570.147 524.446 570.944 525.728 572.526 526.236L571.856 527.229C570.759 526.848 569.985 526.097 569.546 525.139C569.096 526.248 568.241 527.114 567.005 527.541L566.347 526.513C568.021 525.959 568.876 524.584 568.876 523.094V522.136ZM573.669 521.581H574.94V527.622H573.669V524.607H571.66V523.556H573.669V521.581ZM571.51 527.899C573.658 527.899 574.986 528.627 574.986 529.874C574.986 531.133 573.658 531.849 571.51 531.849C569.35 531.849 568.01 531.133 568.01 529.874C568.01 528.627 569.35 527.899 571.51 527.899ZM571.51 528.881C570.077 528.881 569.292 529.227 569.292 529.874C569.292 530.521 570.077 530.868 571.51 530.868C572.919 530.868 573.727 530.521 573.727 529.874C573.727 529.227 572.919 528.881 571.51 528.881ZM582.956 521.581H584.226V525.67H585.786V526.721H584.226V531.861H582.956V521.581ZM576.165 523.141H578.555V521.731H579.837V523.141H582.194V524.157H576.165V523.141ZM579.202 524.85C580.692 524.85 581.778 525.843 581.778 527.264C581.778 528.685 580.692 529.678 579.202 529.678C577.735 529.678 576.638 528.685 576.638 527.264C576.638 525.843 577.735 524.85 579.202 524.85ZM579.202 525.878C578.417 525.878 577.862 526.421 577.862 527.264C577.862 528.107 578.417 528.638 579.202 528.638C579.988 528.638 580.554 528.107 580.554 527.264C580.554 526.421 579.988 525.878 579.202 525.878ZM593.259 521.57H594.529V531.849H593.259V521.57ZM591.492 522.644C591.492 525.728 590.325 528.315 586.745 530.047L586.086 529.043C588.754 527.761 589.967 526.017 590.186 523.672H586.594V522.644H591.492Z" fill="white"/>
<rect x="179.5" y="510.475" width="246.75" height="33.6" rx="7.35" fill="#5786FF"/>
<path d="M272.281 527.726H281.59V528.765H277.571V531.872H276.289V528.765H272.281V527.726ZM273.482 522.02H280.482V523.025H274.73V523.926H280.262V524.908H274.73V525.855H280.597V526.871H273.482V522.02ZM282.099 529.643H284.501V527.53H282.896V526.513H284.328V523.452H282.85V522.436H290.6V523.452H289.133V526.513H290.577V527.53H288.96V529.643H291.408V530.671H282.099V529.643ZM285.598 526.513H287.874V523.452H285.598V526.513ZM285.76 529.643H287.712V527.53H285.76V529.643ZM301 521.558H302.282V525.462H303.842V526.513H302.282V531.872H301V521.558ZM294.694 522.552H299.487V523.568H295.965V528.303C297.57 528.292 298.817 528.223 300.203 527.968L300.33 529.031C298.771 529.32 297.385 529.366 295.537 529.366H294.694V522.552ZM306.649 522.413H307.931V524.03C307.931 525.924 308.901 527.818 310.552 528.546L309.813 529.574C308.624 529.02 307.769 527.922 307.307 526.582C306.845 528.026 305.967 529.204 304.731 529.793L303.969 528.742C305.655 527.992 306.649 526.017 306.649 524.03V522.413ZM311.28 521.558H312.551V531.872H311.28V521.558ZM320.624 521.581H321.895V525.67H323.454V526.721H321.895V531.861H320.624V521.581ZM313.833 523.141H316.224V521.731H317.506V523.141H319.862V524.157H313.833V523.141ZM316.871 524.85C318.36 524.85 319.446 525.843 319.446 527.264C319.446 528.685 318.36 529.678 316.871 529.678C315.404 529.678 314.306 528.685 314.306 527.264C314.306 525.843 315.404 524.85 316.871 524.85ZM316.871 525.878C316.085 525.878 315.531 526.421 315.531 527.264C315.531 528.107 316.085 528.638 316.871 528.638C317.656 528.638 318.222 528.107 318.222 527.264C318.222 526.421 317.656 525.878 316.871 525.878ZM330.927 521.57H332.198V531.849H330.927V521.57ZM329.16 522.644C329.16 525.728 327.993 528.315 324.413 530.047L323.755 529.043C326.423 527.761 327.635 526.017 327.855 523.672H324.263V522.644H329.16Z" fill="white"/>
<path d="M378.436 303.327C378.165 303.611 378.17 304.067 378.448 304.337L383.459 309.228C383.736 309.499 383.963 309.314 383.963 308.817V298.421C383.963 297.924 383.742 297.751 383.47 298.035L378.436 303.327Z" fill="#BCD7FF"/>
<path d="M480.888 302.802C481.16 303.087 481.155 303.542 480.877 303.812L475.866 308.703C475.588 308.974 475.361 308.789 475.361 308.292V297.896C475.361 297.399 475.583 297.226 475.855 297.51L480.888 302.802Z" fill="#BCD7FF"/>
<path d="M240.912 372.047C241.819 372.047 242.458 370.988 242.458 369.493C242.458 367.998 241.819 366.948 240.912 366.948C239.997 366.948 239.358 367.998 239.358 369.493C239.358 370.988 239.997 372.047 240.912 372.047ZM240.912 372.584C239.644 372.584 238.753 371.307 238.753 369.493C238.753 367.687 239.644 366.41 240.912 366.41C242.172 366.41 243.063 367.687 243.063 369.493C243.063 371.307 242.172 372.584 240.912 372.584ZM245.928 372.047C246.835 372.047 247.473 370.988 247.473 369.493C247.473 367.998 246.835 366.948 245.928 366.948C245.012 366.948 244.374 367.998 244.374 369.493C244.374 370.988 245.012 372.047 245.928 372.047ZM245.928 372.584C244.659 372.584 243.769 371.307 243.769 369.493C243.769 367.687 244.659 366.41 245.928 366.41C247.188 366.41 248.078 367.687 248.078 369.493C248.078 371.307 247.188 372.584 245.928 372.584Z" fill="#15254D"/>
<path d="M273.962 372.047C274.869 372.047 275.508 370.988 275.508 369.493C275.508 367.998 274.869 366.948 273.962 366.948C273.046 366.948 272.408 367.998 272.408 369.493C272.408 370.988 273.046 372.047 273.962 372.047ZM273.962 372.584C272.694 372.584 271.803 371.307 271.803 369.493C271.803 367.687 272.694 366.41 273.962 366.41C275.222 366.41 276.112 367.687 276.112 369.493C276.112 371.307 275.222 372.584 273.962 372.584ZM278.65 366.469V372.525H278.045V367.158L277.104 367.813L276.768 367.351L278.045 366.469H278.65Z" fill="#15254D"/>
<path d="M305.012 372.047C305.92 372.047 306.558 370.988 306.558 369.493C306.558 367.998 305.92 366.948 305.012 366.948C304.097 366.948 303.458 367.998 303.458 369.493C303.458 370.988 304.097 372.047 305.012 372.047ZM305.012 372.584C303.744 372.584 302.854 371.307 302.854 369.493C302.854 367.687 303.744 366.41 305.012 366.41C306.272 366.41 307.163 367.687 307.163 369.493C307.163 371.307 306.272 372.584 305.012 372.584ZM307.911 371.996C309.112 370.829 310.935 369.359 310.935 368.258C310.935 367.477 310.439 366.923 309.725 366.923C309.213 366.923 308.684 367.309 308.44 367.863L307.886 367.628C308.205 366.897 308.969 366.385 309.725 366.385C310.792 366.385 311.54 367.158 311.54 368.258C311.54 369.535 309.91 370.904 308.734 371.996H311.64V372.534H307.995L307.911 371.996Z" fill="#15254D"/>
<path d="M337.062 372.047C337.969 372.047 338.608 370.988 338.608 369.493C338.608 367.998 337.969 366.948 337.062 366.948C336.147 366.948 335.508 367.998 335.508 369.493C335.508 370.988 336.147 372.047 337.062 372.047ZM337.062 372.584C335.794 372.584 334.903 371.307 334.903 369.493C334.903 367.687 335.794 366.41 337.062 366.41C338.322 366.41 339.213 367.687 339.213 369.493C339.213 371.307 338.322 372.584 337.062 372.584ZM343.001 369.392C343.539 369.72 343.833 370.308 343.833 370.812C343.833 371.845 343.027 372.576 341.876 372.576C340.733 372.576 339.927 371.845 339.927 370.812H340.532C340.532 371.534 341.086 372.038 341.876 372.038C342.674 372.038 343.228 371.534 343.228 370.82C343.228 370.14 342.674 369.661 341.893 369.661H341.447V369.107H341.893C342.623 369.107 343.144 368.67 343.144 368.048C343.144 367.401 342.64 366.948 341.926 366.948C341.204 366.948 340.7 367.41 340.7 368.065H340.095C340.095 367.091 340.851 366.41 341.926 366.41C342.993 366.41 343.749 367.091 343.749 368.065C343.749 368.519 343.489 369.065 343.001 369.392Z" fill="#15254D"/>
<path d="M369.112 372.047C370.02 372.047 370.658 370.988 370.658 369.493C370.658 367.998 370.02 366.948 369.112 366.948C368.197 366.948 367.558 367.998 367.558 369.493C367.558 370.988 368.197 372.047 369.112 372.047ZM369.112 372.584C367.844 372.584 366.954 371.307 366.954 369.493C366.954 367.687 367.844 366.41 369.112 366.41C370.372 366.41 371.263 367.687 371.263 369.493C371.263 371.307 370.372 372.584 369.112 372.584ZM375.321 366.461V370.283H376.219V370.82H375.321V372.525H374.716V370.82H372.061L371.977 370.283L374.733 366.461H375.321ZM372.725 370.283H374.716V367.519L372.725 370.283Z" fill="#15254D"/>
<path d="M402.162 372.047C403.069 372.047 403.708 370.988 403.708 369.493C403.708 367.998 403.069 366.948 402.162 366.948C401.247 366.948 400.608 367.998 400.608 369.493C400.608 370.988 401.247 372.047 402.162 372.047ZM402.162 372.584C400.894 372.584 400.003 371.307 400.003 369.493C400.003 367.687 400.894 366.41 402.162 366.41C403.422 366.41 404.313 367.687 404.313 369.493C404.313 371.307 403.422 372.584 402.162 372.584ZM405.926 369.661L405.321 369.56L405.514 366.452H408.538V366.99H406.094L405.976 368.871C406.287 368.695 406.648 368.586 406.976 368.586C408.177 368.586 409.026 369.409 409.026 370.577C409.026 371.769 408.177 372.609 406.976 372.609C406.044 372.609 405.246 371.979 405.036 371.089L405.624 370.955C405.766 371.593 406.321 372.038 406.976 372.038C407.824 372.038 408.421 371.433 408.421 370.577C408.421 369.745 407.824 369.157 406.976 369.157C406.615 369.157 406.178 369.367 405.926 369.661Z" fill="#15254D"/>
<path d="M434.212 372.047C435.119 372.047 435.758 370.988 435.758 369.493C435.758 367.998 435.119 366.948 434.212 366.948C433.296 366.948 432.658 367.998 432.658 369.493C432.658 370.988 433.296 372.047 434.212 372.047ZM434.212 372.584C432.944 372.584 432.053 371.307 432.053 369.493C432.053 367.687 432.944 366.41 434.212 366.41C435.472 366.41 436.362 367.687 436.362 369.493C436.362 371.307 435.472 372.584 434.212 372.584ZM439.059 372.055C439.891 372.055 440.471 371.459 440.471 370.602C440.471 369.745 439.891 369.14 439.059 369.14C438.253 369.14 437.682 369.745 437.682 370.602C437.682 371.459 438.253 372.055 439.059 372.055ZM437.077 370.602C437.077 370.173 437.211 369.787 437.388 369.476L439.11 366.461H439.807L438.539 368.661C438.707 368.628 438.891 368.603 439.076 368.603C440.252 368.603 441.075 369.426 441.075 370.602C441.075 371.769 440.252 372.593 439.076 372.593C437.9 372.593 437.077 371.769 437.077 370.602Z" fill="#15254D"/>
<path d="M466.262 372.047C467.17 372.047 467.808 370.988 467.808 369.493C467.808 367.998 467.17 366.948 466.262 366.948C465.347 366.948 464.708 367.998 464.708 369.493C464.708 370.988 465.347 372.047 466.262 372.047ZM466.262 372.584C464.994 372.584 464.104 371.307 464.104 369.493C464.104 367.687 464.994 366.41 466.262 366.41C467.522 366.41 468.413 367.687 468.413 369.493C468.413 371.307 467.522 372.584 466.262 372.584ZM470.396 372.517H469.74L472.185 366.998H469.236V366.461H472.756L472.84 366.998L470.396 372.517Z" fill="#15254D"/>
<path d="M498.312 372.047C499.219 372.047 499.858 370.988 499.858 369.493C499.858 367.998 499.219 366.948 498.312 366.948C497.397 366.948 496.758 367.998 496.758 369.493C496.758 370.988 497.397 372.047 498.312 372.047ZM498.312 372.584C497.044 372.584 496.153 371.307 496.153 369.493C496.153 367.687 497.044 366.41 498.312 366.41C499.572 366.41 500.463 367.687 500.463 369.493C500.463 371.307 499.572 372.584 498.312 372.584ZM503.151 372.063C503.957 372.063 504.52 371.543 504.52 370.803C504.52 370.098 503.957 369.602 503.151 369.602C502.345 369.602 501.782 370.098 501.782 370.803C501.782 371.543 502.345 372.063 503.151 372.063ZM501.941 367.998C501.941 368.619 502.437 369.056 503.151 369.056C503.865 369.056 504.369 368.619 504.369 367.998C504.369 367.343 503.865 366.889 503.151 366.889C502.437 366.889 501.941 367.343 501.941 367.998ZM504.151 369.317C504.722 369.653 505.125 370.257 505.125 370.787C505.125 371.853 504.31 372.601 503.151 372.601C501.992 372.601 501.177 371.853 501.177 370.787C501.177 370.257 501.58 369.653 502.16 369.317C501.673 368.989 501.337 368.451 501.337 368.015C501.337 367.04 502.084 366.351 503.151 366.351C504.218 366.351 504.974 367.04 504.974 368.015C504.974 368.451 504.638 368.989 504.151 369.317Z" fill="#15254D"/>
<path d="M530.362 372.047C531.27 372.047 531.908 370.988 531.908 369.493C531.908 367.998 531.27 366.948 530.362 366.948C529.447 366.948 528.808 367.998 528.808 369.493C528.808 370.988 529.447 372.047 530.362 372.047ZM530.362 372.584C529.094 372.584 528.204 371.307 528.204 369.493C528.204 367.687 529.094 366.41 530.362 366.41C531.622 366.41 532.513 367.687 532.513 369.493C532.513 371.307 531.622 372.584 530.362 372.584ZM535.243 366.931C534.412 366.931 533.832 367.527 533.832 368.384C533.832 369.241 534.412 369.846 535.243 369.846C536.05 369.846 536.621 369.241 536.621 368.384C536.621 367.527 536.05 366.931 535.243 366.931ZM537.226 368.384C537.226 368.813 537.091 369.199 536.915 369.51L535.193 372.525H534.496L535.764 370.325C535.596 370.358 535.411 370.383 535.227 370.383C534.051 370.383 533.227 369.56 533.227 368.384C533.227 367.217 534.051 366.393 535.227 366.393C536.403 366.393 537.226 367.217 537.226 368.384Z" fill="#15254D"/>
<path d="M562.085 366.469V372.525H561.48V367.158L560.539 367.813L560.203 367.351L561.48 366.469H562.085ZM565.336 372.047C566.243 372.047 566.881 370.988 566.881 369.493C566.881 367.998 566.243 366.948 565.336 366.948C564.42 366.948 563.782 367.998 563.782 369.493C563.782 370.988 564.42 372.047 565.336 372.047ZM565.336 372.584C564.067 372.584 563.177 371.307 563.177 369.493C563.177 367.687 564.067 366.41 565.336 366.41C566.596 366.41 567.486 367.687 567.486 369.493C567.486 371.307 566.596 372.584 565.336 372.584Z" fill="#15254D"/>
<path d="M593.134 366.469V372.525H592.53V367.158L591.589 367.813L591.253 367.351L592.53 366.469H593.134ZM596.394 366.469V372.525H595.79V367.158L594.849 367.813L594.513 367.351L595.79 366.469H596.394Z" fill="#15254D"/>
<path d="M622.185 366.469V372.525H621.58V367.158L620.639 367.813L620.303 367.351L621.58 366.469H622.185ZM623.319 371.996C624.52 370.829 626.343 369.359 626.343 368.258C626.343 367.477 625.847 366.923 625.133 366.923C624.621 366.923 624.092 367.309 623.848 367.863L623.294 367.628C623.613 366.897 624.377 366.385 625.133 366.385C626.2 366.385 626.948 367.158 626.948 368.258C626.948 369.535 625.318 370.904 624.142 371.996H627.049V372.534H623.403L623.319 371.996Z" fill="#15254D"/>
<rect x="242.894" y="380.669" width="377.212" height="32.8125" rx="6.95625" fill="white" stroke="#5786FF" stroke-width="0.7875"/>
<line x1="247.881" y1="380.275" x2="247.881" y2="413.875" stroke="#5786FF" stroke-width="0.2625" stroke-dasharray="1.05 1.05"/>
<line x1="253.131" y1="380.275" x2="253.131" y2="413.875" stroke="#5786FF" stroke-width="0.2625" stroke-dasharray="1.05 1.05"/>
<line x1="258.381" y1="380.275" x2="258.381" y2="413.875" stroke="#5786FF" stroke-width="0.2625" stroke-dasharray="1.05 1.05"/>
<line x1="263.631" y1="380.275" x2="263.631" y2="413.875" stroke="#5786FF" stroke-width="0.2625" stroke-dasharray="1.05 1.05"/>
<line x1="268.881" y1="380.275" x2="268.881" y2="413.875" stroke="#5786FF" stroke-width="0.2625" stroke-dasharray="1.05 1.05"/>
<line x1="274.263" y1="380.275" x2="274.263" y2="413.875" stroke="#5786FF" stroke-width="0.525"/>
<line x1="279.381" y1="380.275" x2="279.381" y2="413.875" stroke="#5786FF" stroke-width="0.2625" stroke-dasharray="1.05 1.05"/>
<line x1="284.631" y1="380.275" x2="284.631" y2="413.875" stroke="#5786FF" stroke-width="0.2625" stroke-dasharray="1.05 1.05"/>
<line x1="289.881" y1="380.275" x2="289.881" y2="413.875" stroke="#5786FF" stroke-width="0.2625" stroke-dasharray="1.05 1.05"/>
<line x1="295.131" y1="380.275" x2="295.131" y2="413.875" stroke="#5786FF" stroke-width="0.2625" stroke-dasharray="1.05 1.05"/>
<line x1="300.381" y1="380.275" x2="300.381" y2="413.875" stroke="#5786FF" stroke-width="0.2625" stroke-dasharray="1.05 1.05"/>
<line x1="305.763" y1="380.275" x2="305.763" y2="413.875" stroke="#5786FF" stroke-width="0.525"/>
<line x1="310.881" y1="380.275" x2="310.881" y2="413.875" stroke="#5786FF" stroke-width="0.2625" stroke-dasharray="1.05 1.05"/>
<line x1="316.131" y1="380.275" x2="316.131" y2="413.875" stroke="#5786FF" stroke-width="0.2625" stroke-dasharray="1.05 1.05"/>
<line x1="321.381" y1="380.275" x2="321.381" y2="413.875" stroke="#5786FF" stroke-width="0.2625" stroke-dasharray="1.05 1.05"/>
<line x1="326.631" y1="380.275" x2="326.631" y2="413.875" stroke="#5786FF" stroke-width="0.2625" stroke-dasharray="1.05 1.05"/>
<line x1="331.881" y1="380.275" x2="331.881" y2="413.875" stroke="#5786FF" stroke-width="0.2625" stroke-dasharray="1.05 1.05"/>
<line x1="337.263" y1="380.275" x2="337.263" y2="413.875" stroke="#5786FF" stroke-width="0.525"/>
<line x1="342.381" y1="380.275" x2="342.381" y2="413.875" stroke="#5786FF" stroke-width="0.2625" stroke-dasharray="1.05 1.05"/>
<line x1="347.631" y1="380.275" x2="347.631" y2="413.875" stroke="#5786FF" stroke-width="0.2625" stroke-dasharray="1.05 1.05"/>
<line x1="352.881" y1="380.275" x2="352.881" y2="413.875" stroke="#5786FF" stroke-width="0.2625" stroke-dasharray="1.05 1.05"/>
<line x1="358.131" y1="380.275" x2="358.131" y2="413.875" stroke="#5786FF" stroke-width="0.2625" stroke-dasharray="1.05 1.05"/>
<line x1="363.381" y1="380.275" x2="363.381" y2="413.875" stroke="#5786FF" stroke-width="0.2625" stroke-dasharray="1.05 1.05"/>
<line x1="368.763" y1="380.275" x2="368.763" y2="413.875" stroke="#5786FF" stroke-width="0.525"/>
<line x1="373.881" y1="380.275" x2="373.881" y2="413.875" stroke="#5786FF" stroke-width="0.2625" stroke-dasharray="1.05 1.05"/>
<line x1="379.131" y1="380.275" x2="379.131" y2="413.875" stroke="#5786FF" stroke-width="0.2625" stroke-dasharray="1.05 1.05"/>
<line x1="384.381" y1="380.275" x2="384.381" y2="413.875" stroke="#5786FF" stroke-width="0.2625" stroke-dasharray="1.05 1.05"/>
<line x1="389.631" y1="380.275" x2="389.631" y2="413.875" stroke="#5786FF" stroke-width="0.2625" stroke-dasharray="1.05 1.05"/>
<line x1="394.881" y1="380.275" x2="394.881" y2="413.875" stroke="#5786FF" stroke-width="0.2625" stroke-dasharray="1.05 1.05"/>
<line x1="400.263" y1="380.275" x2="400.263" y2="413.875" stroke="#5786FF" stroke-width="0.525"/>
<line x1="405.381" y1="380.275" x2="405.381" y2="413.875" stroke="#5786FF" stroke-width="0.2625" stroke-dasharray="1.05 1.05"/>
<line x1="410.631" y1="380.275" x2="410.631" y2="413.875" stroke="#5786FF" stroke-width="0.2625" stroke-dasharray="1.05 1.05"/>
<line x1="415.881" y1="380.275" x2="415.881" y2="413.875" stroke="#5786FF" stroke-width="0.2625" stroke-dasharray="1.05 1.05"/>
<line x1="421.131" y1="380.275" x2="421.131" y2="413.875" stroke="#5786FF" stroke-width="0.2625" stroke-dasharray="1.05 1.05"/>
<line x1="426.381" y1="380.275" x2="426.381" y2="413.875" stroke="#5786FF" stroke-width="0.2625" stroke-dasharray="1.05 1.05"/>
<line x1="431.763" y1="380.275" x2="431.763" y2="413.875" stroke="#5786FF" stroke-width="0.525"/>
<line x1="436.881" y1="380.275" x2="436.881" y2="413.875" stroke="#5786FF" stroke-width="0.2625" stroke-dasharray="1.05 1.05"/>
<line x1="442.131" y1="380.275" x2="442.131" y2="413.875" stroke="#5786FF" stroke-width="0.2625" stroke-dasharray="1.05 1.05"/>
<line x1="447.381" y1="380.275" x2="447.381" y2="413.875" stroke="#5786FF" stroke-width="0.2625" stroke-dasharray="1.05 1.05"/>
<line x1="452.631" y1="380.275" x2="452.631" y2="413.875" stroke="#5786FF" stroke-width="0.2625" stroke-dasharray="1.05 1.05"/>
<line x1="457.881" y1="380.275" x2="457.881" y2="413.875" stroke="#5786FF" stroke-width="0.2625" stroke-dasharray="1.05 1.05"/>
<line x1="463.263" y1="380.275" x2="463.263" y2="413.875" stroke="#5786FF" stroke-width="0.525"/>
<line x1="468.381" y1="380.275" x2="468.381" y2="413.875" stroke="#5786FF" stroke-width="0.2625" stroke-dasharray="1.05 1.05"/>
<line x1="473.631" y1="380.275" x2="473.631" y2="413.875" stroke="#5786FF" stroke-width="0.2625" stroke-dasharray="1.05 1.05"/>
<line x1="478.881" y1="380.275" x2="478.881" y2="413.875" stroke="#5786FF" stroke-width="0.2625" stroke-dasharray="1.05 1.05"/>
<line x1="484.131" y1="380.275" x2="484.131" y2="413.875" stroke="#5786FF" stroke-width="0.2625" stroke-dasharray="1.05 1.05"/>
<line x1="489.381" y1="380.275" x2="489.381" y2="413.875" stroke="#5786FF" stroke-width="0.2625" stroke-dasharray="1.05 1.05"/>
<line x1="494.763" y1="380.275" x2="494.763" y2="413.875" stroke="#5786FF" stroke-width="0.525"/>
<line x1="499.881" y1="380.275" x2="499.881" y2="413.875" stroke="#5786FF" stroke-width="0.2625" stroke-dasharray="1.05 1.05"/>
<line x1="505.131" y1="380.275" x2="505.131" y2="413.875" stroke="#5786FF" stroke-width="0.2625" stroke-dasharray="1.05 1.05"/>
<line x1="510.381" y1="380.275" x2="510.381" y2="413.875" stroke="#5786FF" stroke-width="0.2625" stroke-dasharray="1.05 1.05"/>
<line x1="515.631" y1="380.275" x2="515.631" y2="413.875" stroke="#5786FF" stroke-width="0.2625" stroke-dasharray="1.05 1.05"/>
<line x1="520.881" y1="380.275" x2="520.881" y2="413.875" stroke="#5786FF" stroke-width="0.2625" stroke-dasharray="1.05 1.05"/>
<path d="M240.585 436.819V442.875H239.98V437.507L239.039 438.163L238.703 437.701L239.98 436.819H240.585ZM241.719 442.346C242.92 441.178 244.743 439.708 244.743 438.608C244.743 437.827 244.247 437.272 243.533 437.272C243.021 437.272 242.492 437.659 242.248 438.213L241.694 437.978C242.013 437.247 242.777 436.735 243.533 436.735C244.6 436.735 245.348 437.507 245.348 438.608C245.348 439.885 243.718 441.254 242.542 442.346H245.449V442.883H241.803L241.719 442.346Z" fill="#15254D"/>
<path d="M271.685 436.819V442.875H271.08V437.507L270.139 438.163L269.803 437.701L271.08 436.819H271.685ZM275.86 439.742C276.397 440.069 276.691 440.657 276.691 441.161C276.691 442.195 275.885 442.925 274.734 442.925C273.592 442.925 272.785 442.195 272.785 441.161H273.39C273.39 441.884 273.945 442.388 274.734 442.388C275.532 442.388 276.087 441.884 276.087 441.17C276.087 440.489 275.532 440.011 274.751 440.011H274.306V439.456H274.751C275.482 439.456 276.003 439.019 276.003 438.398C276.003 437.751 275.499 437.297 274.785 437.297C274.062 437.297 273.558 437.759 273.558 438.415H272.953C272.953 437.44 273.709 436.76 274.785 436.76C275.851 436.76 276.607 437.44 276.607 438.415C276.607 438.868 276.347 439.414 275.86 439.742Z" fill="#15254D"/>
<path d="M302.785 436.819V442.875H302.18V437.507L301.239 438.163L300.903 437.701L302.18 436.819H302.785ZM307.229 436.81V440.632H308.128V441.17H307.229V442.875H306.624V441.17H303.97L303.886 440.632L306.641 436.81H307.229ZM304.633 440.632H306.624V437.869L304.633 440.632Z" fill="#15254D"/>
<path d="M334.884 436.819V442.875H334.28V437.507L333.339 438.163L333.003 437.701L334.28 436.819H334.884ZM336.884 440.011L336.279 439.91L336.472 436.802H339.496V437.339H337.052L336.934 439.221C337.245 439.045 337.606 438.935 337.934 438.935C339.135 438.935 339.984 439.759 339.984 440.926C339.984 442.119 339.135 442.959 337.934 442.959C337.002 442.959 336.204 442.329 335.994 441.439L336.582 441.304C336.724 441.943 337.279 442.388 337.934 442.388C338.782 442.388 339.379 441.783 339.379 440.926C339.379 440.095 338.782 439.507 337.934 439.507C337.573 439.507 337.136 439.717 336.884 440.011Z" fill="#15254D"/>
<path d="M365.985 436.819V442.875H365.38V437.507L364.439 438.163L364.103 437.701L365.38 436.819H365.985ZM369.068 442.405C369.899 442.405 370.479 441.808 370.479 440.951C370.479 440.095 369.899 439.49 369.068 439.49C368.261 439.49 367.69 440.095 367.69 440.951C367.69 441.808 368.261 442.405 369.068 442.405ZM367.085 440.951C367.085 440.523 367.22 440.137 367.396 439.826L369.118 436.81H369.815L368.547 439.011C368.715 438.977 368.9 438.952 369.085 438.952C370.261 438.952 371.084 439.775 371.084 440.951C371.084 442.119 370.261 442.942 369.085 442.942C367.909 442.942 367.085 442.119 367.085 440.951Z" fill="#15254D"/>
<path d="M397.085 436.819V442.875H396.48V437.507L395.539 438.163L395.203 437.701L396.48 436.819H397.085ZM399.454 442.867H398.799L401.243 437.348H398.295V436.81H401.814L401.898 437.348L399.454 442.867Z" fill="#15254D"/>
<path d="M428.185 436.819V442.875H427.58V437.507L426.639 438.163L426.303 437.701L427.58 436.819H428.185ZM431.259 442.413C432.066 442.413 432.629 441.892 432.629 441.153C432.629 440.447 432.066 439.952 431.259 439.952C430.453 439.952 429.89 440.447 429.89 441.153C429.89 441.892 430.453 442.413 431.259 442.413ZM430.05 438.347C430.05 438.969 430.545 439.406 431.259 439.406C431.973 439.406 432.477 438.969 432.477 438.347C432.477 437.692 431.973 437.239 431.259 437.239C430.545 437.239 430.05 437.692 430.05 438.347ZM432.259 439.666C432.83 440.002 433.233 440.607 433.233 441.136C433.233 442.203 432.419 442.951 431.259 442.951C430.1 442.951 429.285 442.203 429.285 441.136C429.285 440.607 429.689 440.002 430.268 439.666C429.781 439.339 429.445 438.801 429.445 438.364C429.445 437.39 430.193 436.701 431.259 436.701C432.326 436.701 433.082 437.39 433.082 438.364C433.082 438.801 432.746 439.339 432.259 439.666Z" fill="#15254D"/>
<path d="M459.285 436.819V442.875H458.68V437.507L457.739 438.163L457.403 437.701L458.68 436.819H459.285ZM462.402 437.281C461.57 437.281 460.99 437.877 460.99 438.734C460.99 439.591 461.57 440.195 462.402 440.195C463.208 440.195 463.779 439.591 463.779 438.734C463.779 437.877 463.208 437.281 462.402 437.281ZM464.384 438.734C464.384 439.162 464.25 439.549 464.073 439.859L462.351 442.875H461.654L462.922 440.674C462.754 440.708 462.57 440.733 462.385 440.733C461.209 440.733 460.386 439.91 460.386 438.734C460.386 437.566 461.209 436.743 462.385 436.743C463.561 436.743 464.384 437.566 464.384 438.734Z" fill="#15254D"/>
<path d="M488.595 442.346C489.796 441.178 491.619 439.708 491.619 438.608C491.619 437.827 491.124 437.272 490.41 437.272C489.897 437.272 489.368 437.659 489.124 438.213L488.57 437.978C488.889 437.247 489.654 436.735 490.41 436.735C491.476 436.735 492.224 437.507 492.224 438.608C492.224 439.885 490.594 441.254 489.418 442.346H492.325V442.883H488.679L488.595 442.346ZM495.186 442.396C496.093 442.396 496.732 441.338 496.732 439.843C496.732 438.347 496.093 437.297 495.186 437.297C494.27 437.297 493.632 438.347 493.632 439.843C493.632 441.338 494.27 442.396 495.186 442.396ZM495.186 442.934C493.918 442.934 493.027 441.657 493.027 439.843C493.027 438.037 493.918 436.76 495.186 436.76C496.446 436.76 497.336 438.037 497.336 439.843C497.336 441.657 496.446 442.934 495.186 442.934Z" fill="#15254D"/>
<path d="M521.695 442.346C522.897 441.178 524.719 439.708 524.719 438.608C524.719 437.827 524.224 437.272 523.51 437.272C522.997 437.272 522.468 437.659 522.225 438.213L521.67 437.978C521.989 437.247 522.754 436.735 523.51 436.735C524.577 436.735 525.324 437.507 525.324 438.608C525.324 439.885 523.695 441.254 522.519 442.346H525.425V442.883H521.779L521.695 442.346ZM527.958 436.819V442.875H527.354V437.507L526.413 438.163L526.077 437.701L527.354 436.819H527.958Z" fill="#15254D"/>
<path d="M552.795 442.346C553.997 441.178 555.819 439.708 555.819 438.608C555.819 437.827 555.324 437.272 554.61 437.272C554.097 437.272 553.568 437.659 553.325 438.213L552.77 437.978C553.089 437.247 553.854 436.735 554.61 436.735C555.677 436.735 556.424 437.507 556.424 438.608C556.424 439.885 554.795 441.254 553.619 442.346H556.525V442.883H552.879L552.795 442.346ZM557.269 442.346C558.471 441.178 560.293 439.708 560.293 438.608C560.293 437.827 559.798 437.272 559.084 437.272C558.571 437.272 558.042 437.659 557.799 438.213L557.244 437.978C557.563 437.247 558.328 436.735 559.084 436.735C560.151 436.735 560.898 437.507 560.898 438.608C560.898 439.885 559.269 441.254 558.093 442.346H560.999V442.883H557.353L557.269 442.346Z" fill="#15254D"/>
<path d="M585.896 442.346C587.097 441.178 588.92 439.708 588.92 438.608C588.92 437.827 588.424 437.272 587.71 437.272C587.198 437.272 586.668 437.659 586.425 438.213L585.87 437.978C586.19 437.247 586.954 436.735 587.71 436.735C588.777 436.735 589.524 437.507 589.524 438.608C589.524 439.885 587.895 441.254 586.719 442.346H589.625V442.883H585.98L585.896 442.346ZM593.41 439.742C593.948 440.069 594.242 440.657 594.242 441.161C594.242 442.195 593.435 442.925 592.285 442.925C591.142 442.925 590.336 442.195 590.336 441.161H590.941C590.941 441.884 591.495 442.388 592.285 442.388C593.083 442.388 593.637 441.884 593.637 441.17C593.637 440.489 593.083 440.011 592.301 440.011H591.856V439.456H592.301C593.032 439.456 593.553 439.019 593.553 438.398C593.553 437.751 593.049 437.297 592.335 437.297C591.613 437.297 591.109 437.759 591.109 438.415H590.504C590.504 437.44 591.26 436.76 592.335 436.76C593.402 436.76 594.158 437.44 594.158 438.415C594.158 438.868 593.897 439.414 593.41 439.742Z" fill="#15254D"/>
<path d="M618.996 442.346C620.197 441.178 622.02 439.708 622.02 438.608C622.02 437.827 621.524 437.272 620.81 437.272C620.298 437.272 619.768 437.659 619.525 438.213L618.97 437.978C619.29 437.247 620.054 436.735 620.81 436.735C621.877 436.735 622.624 437.507 622.624 438.608C622.624 439.885 620.995 441.254 619.819 442.346H622.725V442.883H619.08L618.996 442.346ZM626.779 436.81V440.632H627.678V441.17H626.779V442.875H626.174V441.17H623.52L623.436 440.632L626.191 436.81H626.779ZM624.184 440.632H626.174V437.869L624.184 440.632Z" fill="#15254D"/>
<rect x="242.894" y="451.019" width="377.212" height="32.8125" rx="6.95625" fill="white" stroke="#5786FF" stroke-width="0.7875"/>
<line x1="247.881" y1="450.625" x2="247.881" y2="484.225" stroke="#5786FF" stroke-width="0.2625" stroke-dasharray="1.05 1.05"/>
<line x1="253.131" y1="450.625" x2="253.131" y2="484.225" stroke="#5786FF" stroke-width="0.2625" stroke-dasharray="1.05 1.05"/>
<line x1="258.381" y1="450.625" x2="258.381" y2="484.225" stroke="#5786FF" stroke-width="0.2625" stroke-dasharray="1.05 1.05"/>
<line x1="263.631" y1="450.625" x2="263.631" y2="484.225" stroke="#5786FF" stroke-width="0.2625" stroke-dasharray="1.05 1.05"/>
<line x1="268.881" y1="450.625" x2="268.881" y2="484.225" stroke="#5786FF" stroke-width="0.2625" stroke-dasharray="1.05 1.05"/>
<line x1="274.263" y1="450.625" x2="274.263" y2="484.225" stroke="#5786FF" stroke-width="0.525"/>
<line x1="279.381" y1="450.625" x2="279.381" y2="484.225" stroke="#5786FF" stroke-width="0.2625" stroke-dasharray="1.05 1.05"/>
<line x1="284.631" y1="450.625" x2="284.631" y2="484.225" stroke="#5786FF" stroke-width="0.2625" stroke-dasharray="1.05 1.05"/>
<line x1="289.881" y1="450.625" x2="289.881" y2="484.225" stroke="#5786FF" stroke-width="0.2625" stroke-dasharray="1.05 1.05"/>
<line x1="295.131" y1="450.625" x2="295.131" y2="484.225" stroke="#5786FF" stroke-width="0.2625" stroke-dasharray="1.05 1.05"/>
<line x1="300.381" y1="450.625" x2="300.381" y2="484.225" stroke="#5786FF" stroke-width="0.2625" stroke-dasharray="1.05 1.05"/>
<line x1="573.381" y1="450.625" x2="573.381" y2="484.225" stroke="#5786FF" stroke-width="0.2625" stroke-dasharray="1.05 1.05"/>
<line x1="578.631" y1="450.625" x2="578.631" y2="484.225" stroke="#5786FF" stroke-width="0.2625" stroke-dasharray="1.05 1.05"/>
<line x1="583.881" y1="450.625" x2="583.881" y2="484.225" stroke="#5786FF" stroke-width="0.2625" stroke-dasharray="1.05 1.05"/>
<line x1="589.263" y1="450.625" x2="589.263" y2="484.225" stroke="#5786FF" stroke-width="0.525"/>
<line x1="594.381" y1="450.625" x2="594.381" y2="484.225" stroke="#5786FF" stroke-width="0.2625" stroke-dasharray="1.05 1.05"/>
<line x1="599.631" y1="450.625" x2="599.631" y2="484.225" stroke="#5786FF" stroke-width="0.2625" stroke-dasharray="1.05 1.05"/>
<line x1="604.881" y1="450.625" x2="604.881" y2="484.225" stroke="#5786FF" stroke-width="0.2625" stroke-dasharray="1.05 1.05"/>
<line x1="610.131" y1="450.625" x2="610.131" y2="484.225" stroke="#5786FF" stroke-width="0.2625" stroke-dasharray="1.05 1.05"/>
<line x1="615.381" y1="450.625" x2="615.381" y2="484.225" stroke="#5786FF" stroke-width="0.2625" stroke-dasharray="1.05 1.05"/>
<mask id="path-120-inside-1_1585_2727" fill="white">
<path d="M390.025 335.125C390.025 331.066 393.316 327.775 397.375 327.775H400.525V348.775H397.375C393.316 348.775 390.025 345.485 390.025 341.425V335.125Z"/>
</mask>
<path d="M390.025 335.125C390.025 331.066 393.316 327.775 397.375 327.775H400.525V348.775H397.375C393.316 348.775 390.025 345.485 390.025 341.425V335.125Z" fill="white"/>
<path d="M389.237 335.125C389.237 330.631 392.881 326.988 397.375 326.988H400.525V328.563H397.375C393.751 328.563 390.812 331.501 390.812 335.125L389.237 335.125ZM400.525 349.563H397.375C392.881 349.563 389.237 345.92 389.237 341.425H390.812C390.812 345.05 393.751 347.988 397.375 347.988H400.525V349.563ZM397.375 349.563C392.881 349.563 389.237 345.92 389.237 341.425V335.125C389.237 330.631 392.881 326.988 397.375 326.988L397.375 328.563C393.751 328.563 390.812 331.501 390.812 335.125V341.425C390.812 345.05 393.751 347.988 397.375 347.988L397.375 349.563ZM400.525 327.775V348.775V327.775Z" fill="#5786FF" mask="url(#path-120-inside-1_1585_2727)"/>
<mask id="path-122-inside-2_1585_2727" fill="white">
<path d="M400.525 327.775H411.025V348.775H400.525V327.775Z"/>
</mask>
<path d="M400.525 327.775H411.025V348.775H400.525V327.775Z" fill="#E2EAFF"/>
<path d="M400.525 328.563H411.025V326.988H400.525V328.563ZM411.025 347.988H400.525V349.563H411.025V347.988Z" fill="#5786FF" mask="url(#path-122-inside-2_1585_2727)"/>
<mask id="path-124-inside-3_1585_2727" fill="white">
<path d="M411.025 327.775H421.525V348.775H411.025V327.775Z"/>
</mask>
<path d="M411.025 327.775H421.525V348.775H411.025V327.775Z" fill="#ACC3FF"/>
<path d="M411.025 328.563H421.525V326.988H411.025V328.563ZM421.525 347.988H411.025V349.563H421.525V347.988Z" fill="#5786FF" mask="url(#path-124-inside-3_1585_2727)"/>
<mask id="path-126-inside-4_1585_2727" fill="white">
<path d="M421.525 327.775H432.025V348.775H421.525V327.775Z"/>
</mask>
<path d="M421.525 327.775H432.025V348.775H421.525V327.775Z" fill="#80A3FF"/>
<path d="M421.525 328.563H432.025V326.988H421.525V328.563ZM432.025 347.988H421.525V349.563H432.025V347.988Z" fill="#5786FF" mask="url(#path-126-inside-4_1585_2727)"/>
<mask id="path-128-inside-5_1585_2727" fill="white">
<path d="M432.025 327.775H442.525V348.775H432.025V327.775Z"/>
</mask>
<path d="M432.025 327.775H442.525V348.775H432.025V327.775Z" fill="#5786FF"/>
<path d="M432.025 328.563H442.525V326.988H432.025V328.563ZM442.525 347.988H432.025V349.563H442.525V347.988Z" fill="#5786FF" mask="url(#path-128-inside-5_1585_2727)"/>
<mask id="path-130-inside-6_1585_2727" fill="white">
<path d="M442.525 327.775H453.025V348.775H442.525V327.775Z"/>
</mask>
<path d="M442.525 327.775H453.025V348.775H442.525V327.775Z" fill="#1556FF"/>
<path d="M442.525 328.563H453.025V326.988H442.525V328.563ZM453.025 347.988H442.525V349.563H453.025V347.988Z" fill="#5786FF" mask="url(#path-130-inside-6_1585_2727)"/>
<mask id="path-132-inside-7_1585_2727" fill="white">
<path d="M453.025 327.775H463.525V348.775H453.025V327.775Z"/>
</mask>
<path d="M453.025 327.775H463.525V348.775H453.025V327.775Z" fill="#0042ED"/>
<path d="M453.025 328.563H463.525V326.988H453.025V328.563ZM463.525 347.988H453.025V349.563H463.525V347.988Z" fill="#5786FF" mask="url(#path-132-inside-7_1585_2727)"/>
<mask id="path-134-inside-8_1585_2727" fill="white">
<path d="M463.525 327.775H466.675C470.734 327.775 474.025 331.066 474.025 335.125V341.425C474.025 345.485 470.734 348.775 466.675 348.775H463.525V327.775Z"/>
</mask>
<path d="M463.525 327.775H466.675C470.734 327.775 474.025 331.066 474.025 335.125V341.425C474.025 345.485 470.734 348.775 466.675 348.775H463.525V327.775Z" fill="#003EDF"/>
<path d="M463.525 326.988H466.675C471.169 326.988 474.812 330.631 474.812 335.125L473.237 335.125C473.237 331.501 470.299 328.563 466.675 328.563H463.525V326.988ZM474.812 341.425C474.812 345.92 471.169 349.563 466.675 349.563H463.525V347.988H466.675C470.299 347.988 473.237 345.05 473.237 341.425H474.812ZM463.525 348.775V327.775V348.775ZM466.675 326.988C471.169 326.988 474.812 330.631 474.812 335.125V341.425C474.812 345.92 471.169 349.563 466.675 349.563L466.675 347.988C470.299 347.988 473.237 345.05 473.237 341.425V335.125C473.237 331.501 470.299 328.563 466.675 328.563L466.675 326.988Z" fill="#5786FF" mask="url(#path-134-inside-8_1585_2727)"/>
<path d="M526 381H612.65C616.709 381 620 384.291 620 388.35V405.65C620 409.709 616.709 413 612.65 413H526V381Z" fill="#E2EAFF"/>
<rect x="605" y="381" width="10" height="32" fill="#80A3FF"/>
<rect x="558" y="381" width="47" height="32" fill="#ACC3FF"/>
<rect x="305" y="451" width="142" height="33" fill="#ACC3FF"/>
<rect x="429" y="451" width="142" height="33" fill="#1556FF"/>
<rect x="557" y="451" width="14" height="33" fill="#F3F6FF"/>
<rect x="510" y="451" width="47" height="33" fill="#E2EAFF"/>
<g clip-path="url(#clip1_1585_2727)">
<path d="M182.799 150.79L176.412 144.404L181.887 139.841L187.361 145.316L182.799 150.79Z" fill="#2F5FDD"/>
<path d="M189.185 145.316C188.178 146.324 186.544 146.324 185.537 145.316L181.887 141.666C180.878 140.659 180.878 139.024 181.887 138.016C182.894 137.008 184.528 137.008 185.537 138.016L189.185 141.666C190.193 142.674 190.193 144.308 189.185 145.316Z" fill="#5886FF"/>
<path d="M177.167 147.597C177.167 147.597 168.654 157.634 169.11 158.091C169.566 158.548 179.604 150.034 179.604 150.034L177.167 147.597Z" fill="#99AAB5"/>
<path d="M183.709 153.529C182.703 154.537 181.068 154.537 180.059 153.529L173.673 147.141C172.665 146.133 172.665 144.5 173.673 143.492C174.681 142.483 176.315 142.483 177.323 143.492L183.709 149.879C184.717 150.887 184.717 152.52 183.709 153.529Z" fill="#5886FF"/>
</g>
<path d="M200.237 153.2C198.987 153.2 197.976 152.9 197.205 152.302C196.447 151.703 195.962 150.905 195.749 149.908H198.242C198.349 150.267 198.575 150.559 198.921 150.786C199.267 150.998 199.705 151.105 200.237 151.105C201.567 151.105 202.233 150.739 202.233 150.008C202.233 149.648 202.02 149.376 201.594 149.19C201.182 149.003 200.676 148.857 200.078 148.751C199.493 148.631 198.901 148.485 198.302 148.312C197.704 148.126 197.192 147.786 196.766 147.294C196.354 146.789 196.148 146.131 196.148 145.319C196.148 144.428 196.5 143.69 197.205 143.105C197.91 142.52 198.888 142.227 200.138 142.227C201.388 142.227 202.379 142.506 203.11 143.065C203.842 143.623 204.314 144.375 204.527 145.319H202.033C201.767 144.654 201.135 144.322 200.138 144.322C199.074 144.322 198.542 144.654 198.542 145.319C198.542 145.625 198.688 145.878 198.981 146.077C199.287 146.264 199.666 146.397 200.118 146.476C200.57 146.543 201.055 146.656 201.574 146.816C202.106 146.962 202.598 147.135 203.05 147.334C203.503 147.534 203.875 147.866 204.168 148.332C204.474 148.784 204.627 149.343 204.627 150.008C204.627 150.952 204.254 151.723 203.509 152.322C202.764 152.907 201.674 153.2 200.237 153.2ZM207.324 156.99L208.92 153L204.631 142.426H207.125L210.018 149.908H210.117L213.01 142.426H215.504L209.718 156.99H207.324ZM216.4 153V142.426H218.295L218.595 143.723H218.694C219.293 142.726 220.257 142.227 221.587 142.227C222.744 142.227 223.682 142.619 224.4 143.404C225.118 144.189 225.477 145.226 225.477 146.516V153H223.183V146.716C223.183 145.971 222.977 145.386 222.565 144.96C222.166 144.535 221.64 144.322 220.989 144.322C220.31 144.322 219.758 144.555 219.333 145.02C218.907 145.486 218.694 146.064 218.694 146.756V153H216.4ZM232.062 153.2C230.546 153.2 229.336 152.714 228.432 151.743C227.527 150.772 227.075 149.429 227.075 147.713C227.075 145.998 227.527 144.654 228.432 143.683C229.336 142.712 230.546 142.227 232.062 142.227C233.299 142.227 234.323 142.56 235.135 143.225C235.946 143.876 236.485 144.707 236.751 145.718H234.456C233.938 144.787 233.14 144.322 232.062 144.322C231.251 144.322 230.599 144.621 230.107 145.22C229.615 145.805 229.369 146.636 229.369 147.713C229.369 148.791 229.615 149.628 230.107 150.227C230.599 150.812 231.251 151.105 232.062 151.105C233.14 151.105 233.938 150.639 234.456 149.708H236.751C236.485 150.719 235.946 151.557 235.135 152.222C234.323 152.874 233.299 153.2 232.062 153.2ZM241.931 153.2C240.681 153.2 239.67 152.9 238.899 152.302C238.141 151.703 237.655 150.905 237.443 149.908H239.936C240.043 150.267 240.269 150.559 240.615 150.786C240.961 150.998 241.399 151.105 241.931 151.105C243.261 151.105 243.926 150.739 243.926 150.008C243.926 149.648 243.714 149.376 243.288 149.19C242.876 149.003 242.37 148.857 241.772 148.751C241.187 148.631 240.595 148.485 239.996 148.312C239.398 148.126 238.886 147.786 238.46 147.294C238.048 146.789 237.842 146.131 237.842 145.319C237.842 144.428 238.194 143.69 238.899 143.105C239.604 142.52 240.581 142.227 241.832 142.227C243.082 142.227 244.073 142.506 244.804 143.065C245.536 143.623 246.008 144.375 246.221 145.319H243.727C243.461 144.654 242.829 144.322 241.832 144.322C240.768 144.322 240.236 144.654 240.236 145.319C240.236 145.625 240.382 145.878 240.675 146.077C240.98 146.264 241.36 146.397 241.812 146.476C242.264 146.543 242.749 146.656 243.268 146.816C243.8 146.962 244.292 147.135 244.744 147.334C245.197 147.534 245.569 147.866 245.862 148.332C246.167 148.784 246.32 149.343 246.32 150.008C246.32 150.952 245.948 151.723 245.203 152.322C244.458 152.907 243.368 153.2 241.931 153.2ZM247.817 156.99V142.426H249.712L250.011 143.723H250.111C250.43 143.284 250.856 142.925 251.388 142.646C251.933 142.367 252.538 142.227 253.203 142.227C254.586 142.227 255.697 142.706 256.535 143.663C257.373 144.621 257.792 145.971 257.792 147.713C257.792 149.456 257.373 150.806 256.535 151.763C255.697 152.721 254.586 153.2 253.203 153.2C252.525 153.2 251.913 153.06 251.368 152.781C250.836 152.488 250.45 152.162 250.211 151.803H250.111V156.99H247.817ZM250.869 150.247C251.374 150.819 252.019 151.105 252.804 151.105C253.589 151.105 254.234 150.819 254.739 150.247C255.245 149.662 255.497 148.817 255.497 147.713C255.497 146.609 255.245 145.771 254.739 145.2C254.234 144.614 253.589 144.322 252.804 144.322C252.019 144.322 251.374 144.614 250.869 145.2C250.364 145.771 250.111 146.609 250.111 147.713C250.111 148.817 250.364 149.662 250.869 150.247ZM267.616 151.743C266.712 152.714 265.502 153.2 263.986 153.2C262.469 153.2 261.259 152.714 260.355 151.743C259.45 150.772 258.998 149.429 258.998 147.713C258.998 145.998 259.45 144.654 260.355 143.683C261.259 142.712 262.469 142.227 263.986 142.227C265.502 142.227 266.712 142.712 267.616 143.683C268.521 144.654 268.973 145.998 268.973 147.713C268.973 149.429 268.521 150.772 267.616 151.743ZM262.05 150.247C262.556 150.819 263.201 151.105 263.986 151.105C264.77 151.105 265.415 150.819 265.921 150.247C266.426 149.662 266.679 148.817 266.679 147.713C266.679 146.609 266.426 145.771 265.921 145.2C265.415 144.614 264.77 144.322 263.986 144.322C263.201 144.322 262.556 144.614 262.05 145.2C261.545 145.771 261.292 146.609 261.292 147.713C261.292 148.817 261.545 149.662 262.05 150.247ZM274.461 153C273.517 153 272.778 152.747 272.246 152.242C271.728 151.723 271.468 151.012 271.468 150.107V144.521H269.773V142.426H271.468L271.768 139.634H273.763V142.426H276.356V144.521H273.763V149.808C273.763 150.114 273.862 150.373 274.062 150.586C274.261 150.799 274.527 150.905 274.86 150.905H276.356V153H274.461Z" fill="#253E7F"/>
<path d="M430.954 140.086H431.82V146.115H430.954V140.086ZM428.494 146.346C430.584 146.346 431.89 147.051 431.89 148.263C431.89 149.453 430.584 150.157 428.494 150.157C426.403 150.157 425.11 149.453 425.11 148.263C425.11 147.051 426.403 146.346 428.494 146.346ZM428.494 147.039C426.935 147.039 425.976 147.489 425.976 148.263C425.976 149.002 426.935 149.464 428.494 149.464C430.053 149.464 431.023 149.002 431.023 148.263C431.023 147.489 430.053 147.039 428.494 147.039ZM426.219 140.536H427.085V141.518C427.085 142.985 428.171 144.279 429.637 144.787L429.222 145.48C428.055 145.052 427.119 144.186 426.669 143.077C426.23 144.302 425.295 145.283 424.105 145.745L423.654 145.052C425.156 144.486 426.219 143.066 426.219 141.518V140.536ZM434.466 141.114H441.361V142.361C441.361 143.851 441.361 145.226 440.945 147.27L440.079 147.189C440.298 146.219 440.402 145.364 440.46 144.567L434.327 144.902L434.2 144.186L440.483 143.92C440.506 143.389 440.506 142.869 440.506 142.361V141.83H434.466V141.114ZM433.368 148.021H442.504V148.748H433.368V148.021ZM449.636 140.767H450.537V141.553C450.537 143.308 452.524 144.844 454.245 145.168L453.841 145.884C452.351 145.537 450.734 144.452 450.087 142.962C449.44 144.452 447.835 145.537 446.333 145.884L445.952 145.168C447.65 144.833 449.636 143.308 449.636 141.553V140.767ZM445.548 148.078H454.707V148.795H445.548V148.078ZM455.666 140.964H461.083V141.68H460.043V144.683C460.563 144.648 461.083 144.59 461.568 144.521L461.626 145.168C459.57 145.514 457.202 145.561 455.504 145.561L455.4 144.833L456.694 144.821V141.68H455.666V140.964ZM462.319 140.074H463.185V142.904H464.698V143.62H463.185V146.866H462.319V140.074ZM459.72 146.392H460.575V146.623C460.575 148.09 462.226 149.153 463.982 149.453L463.635 150.146C462.145 149.857 460.759 149.083 460.159 147.917C459.558 149.083 458.149 149.857 456.671 150.146L456.336 149.453C458.091 149.153 459.72 148.09 459.72 146.623V146.392ZM457.537 144.81C458.08 144.798 458.646 144.775 459.212 144.741V141.68H457.537V144.81Z" fill="#5E6D93"/>
<path d="M481.555 140.825H486.96V141.541H484.696V141.98C484.696 143.32 485.69 144.51 487.156 145.006L486.741 145.676C485.597 145.283 484.719 144.486 484.292 143.458C483.865 144.625 482.929 145.549 481.728 145.976L481.289 145.295C482.79 144.764 483.842 143.458 483.842 141.992V141.541H481.555V140.825ZM488.277 140.074H489.143V142.673H490.656V143.389H489.143V146.173H488.277V140.074ZM485.932 146.461C487.988 146.461 489.247 147.131 489.247 148.298C489.247 149.476 487.988 150.157 485.932 150.157C483.888 150.157 482.629 149.476 482.629 148.298C482.629 147.131 483.888 146.461 485.932 146.461ZM485.932 147.154C484.419 147.154 483.472 147.582 483.472 148.298C483.472 149.037 484.419 149.476 485.932 149.476C487.457 149.476 488.392 149.037 488.392 148.298C488.392 147.582 487.457 147.154 485.932 147.154ZM491.118 148.125H495.23V145.653H496.085V148.125H500.277V148.852H491.118V148.125ZM495.207 140.744H496.108V141.541C496.108 143.239 498.118 144.717 499.827 145.029L499.446 145.757C497.933 145.422 496.316 144.382 495.657 142.927C494.999 144.371 493.382 145.422 491.869 145.757L491.499 145.029C493.22 144.717 495.207 143.239 495.207 141.541V140.744ZM503.286 146.207H512.445V146.935H508.299V150.192H507.433V146.935H503.286V146.207ZM504.534 140.559H511.302V141.264H505.377V142.465H511.071V143.17H505.377V144.44H511.417V145.145H504.534V140.559ZM513.104 148.217H515.68V145.768H513.947V145.064H515.506V141.726H513.924V141.021H521.397V141.726H519.803V145.064H521.385V145.768H519.641V148.217H522.263V148.933H513.104V148.217ZM516.384 145.064H518.948V141.726H516.384V145.064ZM516.546 148.217H518.787V145.768H516.546V148.217Z" fill="#5E6D93"/>
<path d="M541.557 140.825H542.839V142.442C542.839 144.336 543.809 146.23 545.461 146.958L544.722 147.986C543.532 147.432 542.677 146.334 542.215 144.995C541.753 146.438 540.875 147.616 539.64 148.206L538.877 147.154C540.564 146.404 541.557 144.429 541.557 142.442V140.825ZM546.188 139.97H547.459V150.285H546.188V139.97ZM555.567 139.993H556.838V142.95H558.27V143.99H556.838V147.397H555.567V139.993ZM554.077 140.767C554.077 143.505 552.31 145.445 549.284 146.334L548.753 145.33C551.086 144.648 552.495 143.366 552.703 141.784H549.192V140.767H554.077ZM550.289 146.646H551.559V149.049H557.231V150.065H550.289V146.646ZM560.967 146.138H570.276V147.178H566.257V150.285H564.975V147.178H560.967V146.138ZM562.168 140.432H569.167V141.437H563.415V142.338H568.948V143.32H563.415V144.267H569.283V145.283H562.168V140.432ZM570.785 148.055H573.187V145.942H571.582V144.925H573.014V141.865H571.535V140.848H579.285V141.865H577.819V144.925H579.262V145.942H577.645V148.055H580.094V149.083H570.785V148.055ZM574.284 144.925H576.56V141.865H574.284V144.925ZM574.446 148.055H576.398V145.942H574.446V148.055Z" fill="#5786FF"/>
<path d="M601.501 140.964L604.666 149.372H603.638L602.749 146.993H599.087L598.163 149.372H597.135L600.358 140.964H601.501ZM599.399 146.15H602.425L600.935 142.188L599.399 146.15ZM608.247 149.464C607.739 149.464 607.057 149.245 606.561 148.517V149.395H605.602V141.218H606.561V144.937C607.057 144.209 607.739 144.001 608.258 144.001C609.76 144.001 610.834 145.133 610.834 146.727C610.834 148.333 609.76 149.464 608.247 149.464ZM608.212 148.621C609.194 148.621 609.875 147.847 609.875 146.727C609.875 145.618 609.194 144.856 608.212 144.856C607.311 144.856 606.561 145.699 606.561 146.727C606.561 147.778 607.311 148.621 608.212 148.621ZM614.211 148.587C615.169 148.587 615.828 147.824 615.828 146.716C615.828 145.607 615.169 144.833 614.211 144.833C613.264 144.833 612.605 145.595 612.605 146.716C612.605 147.836 613.252 148.587 614.211 148.587ZM614.211 143.978C615.724 143.978 616.798 145.122 616.798 146.716C616.798 148.298 615.724 149.441 614.211 149.441C612.709 149.441 611.647 148.298 611.647 146.716C611.647 145.122 612.709 143.978 614.211 143.978ZM618.887 147.12C618.887 147.975 619.406 148.598 620.157 148.598C621.012 148.598 621.601 148.055 621.601 147.201V143.99H622.571V149.372H621.601V148.691C621.243 149.153 620.642 149.453 620.099 149.453C618.829 149.453 617.916 148.494 617.916 147.201V143.99H618.887V147.12ZM624.568 149.372V144.833H623.587V143.978H624.568V142.119H625.538V143.978H626.809V144.833H625.538V149.372H624.568ZM631.375 147.12C631.375 147.975 631.895 148.598 632.646 148.598C633.5 148.598 634.089 148.055 634.089 147.201V143.99H635.059V149.372H634.089V148.691C633.731 149.153 633.131 149.453 632.588 149.453C631.317 149.453 630.405 148.494 630.405 147.201V143.99H631.375V147.12ZM636.964 147.651C637.265 148.298 637.9 148.575 638.304 148.575C638.951 148.575 639.413 148.298 639.413 147.836C639.413 147.397 638.812 147.224 638.212 147.016C637.473 146.762 636.433 146.438 636.433 145.41C636.433 144.498 637.276 143.932 638.35 143.932C638.986 143.932 640.002 144.302 640.256 145.26L639.413 145.549C639.24 144.914 638.662 144.787 638.35 144.787C637.796 144.787 637.392 145.018 637.392 145.41C637.392 145.849 637.946 145.999 638.593 146.219C639.367 146.485 640.372 146.808 640.372 147.836C640.372 148.795 639.494 149.418 638.304 149.418C637.484 149.418 636.629 148.956 636.19 148.113L636.964 147.651Z" fill="#5E6D93"/>
<g clip-path="url(#clip2_1585_2727)">
<path d="M664.849 148.304L662.369 146.952C662.045 147.298 661.625 147.538 661.162 147.643C660.7 147.747 660.217 147.709 659.776 147.535C659.335 147.361 658.957 147.058 658.69 146.667C658.424 146.275 658.281 145.812 658.281 145.338C658.281 144.864 658.424 144.401 658.69 144.009C658.957 143.617 659.335 143.314 659.776 143.14C660.217 142.966 660.7 142.929 661.162 143.033C661.625 143.137 662.045 143.378 662.369 143.724L664.85 142.371C664.709 141.814 664.776 141.224 665.039 140.713C665.302 140.201 665.742 139.803 666.278 139.593C666.813 139.383 667.406 139.376 667.947 139.572C668.487 139.769 668.938 140.155 669.213 140.66C669.489 141.164 669.571 141.752 669.445 142.313C669.318 142.874 668.991 143.369 668.525 143.707C668.059 144.044 667.487 144.199 666.914 144.144C666.342 144.089 665.809 143.827 665.416 143.408L662.935 144.76C663.031 145.139 663.031 145.536 662.935 145.914L665.416 147.267C665.809 146.847 666.341 146.585 666.914 146.53C667.486 146.475 668.059 146.631 668.525 146.968C668.991 147.305 669.317 147.801 669.444 148.362C669.571 148.923 669.489 149.51 669.213 150.015C668.937 150.52 668.487 150.906 667.946 151.103C667.406 151.299 666.812 151.291 666.277 151.082C665.742 150.872 665.301 150.474 665.038 149.962C664.776 149.451 664.708 148.861 664.849 148.304V148.304ZM660.644 146.519C660.957 146.519 661.258 146.394 661.479 146.173C661.701 145.951 661.825 145.651 661.825 145.337C661.825 145.024 661.701 144.724 661.479 144.502C661.258 144.281 660.957 144.156 660.644 144.156C660.331 144.156 660.03 144.281 659.809 144.502C659.587 144.724 659.463 145.024 659.463 145.337C659.463 145.651 659.587 145.951 659.809 146.173C660.03 146.394 660.331 146.519 660.644 146.519ZM667.141 142.975C667.454 142.975 667.754 142.85 667.976 142.629C668.198 142.407 668.322 142.107 668.322 141.794C668.322 141.48 668.198 141.18 667.976 140.958C667.754 140.737 667.454 140.612 667.141 140.612C666.827 140.612 666.527 140.737 666.305 140.958C666.084 141.18 665.959 141.48 665.959 141.794C665.959 142.107 666.084 142.407 666.305 142.629C666.527 142.85 666.827 142.975 667.141 142.975ZM667.141 150.062C667.454 150.062 667.754 149.938 667.976 149.716C668.198 149.495 668.322 149.194 668.322 148.881C668.322 148.568 668.198 148.267 667.976 148.046C667.754 147.824 667.454 147.7 667.141 147.7C666.827 147.7 666.527 147.824 666.305 148.046C666.084 148.267 665.959 148.568 665.959 148.881C665.959 149.194 666.084 149.495 666.305 149.716C666.527 149.938 666.827 150.062 667.141 150.062Z" fill="#5E6D93"/>
</g>
<g clip-path="url(#clip3_1585_2727)">
<path d="M686.238 151.244C682.976 151.244 680.332 148.599 680.332 145.337C680.332 142.075 682.976 139.431 686.238 139.431C689.5 139.431 692.144 142.075 692.144 145.337C692.144 148.599 689.5 151.244 686.238 151.244ZM683.292 149.032C684.128 149.701 685.167 150.064 686.238 150.062C687.401 150.062 688.466 149.642 689.29 148.945C688.905 148.55 688.445 148.237 687.937 148.023C687.429 147.809 686.883 147.699 686.332 147.7C685.761 147.699 685.196 147.817 684.672 148.047C684.149 148.276 683.679 148.612 683.292 149.032ZM682.467 148.184C682.964 147.657 683.563 147.238 684.227 146.951C684.892 146.665 685.608 146.518 686.332 146.519C687.03 146.518 687.721 146.655 688.366 146.922C689.011 147.189 689.597 147.58 690.09 148.074C690.595 147.363 690.894 146.525 690.952 145.654C691.011 144.783 690.827 143.913 690.421 143.14C690.015 142.367 689.403 141.722 688.652 141.276C687.902 140.83 687.043 140.6 686.17 140.613C685.297 140.626 684.444 140.88 683.707 141.348C682.97 141.815 682.377 142.478 681.993 143.262C681.61 144.046 681.451 144.921 681.535 145.79C681.618 146.659 681.941 147.488 682.467 148.184ZM686.238 145.928C685.611 145.928 685.01 145.679 684.567 145.236C684.124 144.793 683.875 144.192 683.875 143.566C683.875 142.939 684.124 142.338 684.567 141.895C685.01 141.452 685.611 141.203 686.238 141.203C686.864 141.203 687.465 141.452 687.908 141.895C688.351 142.338 688.6 142.939 688.6 143.566C688.6 144.192 688.351 144.793 687.908 145.236C687.465 145.679 686.864 145.928 686.238 145.928ZM686.238 144.747C686.551 144.747 686.852 144.622 687.073 144.401C687.295 144.179 687.419 143.879 687.419 143.566C687.419 143.252 687.295 142.952 687.073 142.73C686.852 142.509 686.551 142.384 686.238 142.384C685.925 142.384 685.624 142.509 685.403 142.73C685.181 142.952 685.057 143.252 685.057 143.566C685.057 143.879 685.181 144.179 685.403 144.401C685.624 144.622 685.925 144.747 686.238 144.747Z" fill="#5E6D93"/>
</g>
<rect x="286.075" y="134.575" width="83.6425" height="21.525" rx="4.2" fill="#EFF3FF"/>
<path d="M300.422 140.343H301.577V145.887H300.422V140.343ZM298.458 146.055C300.411 146.055 301.64 146.727 301.64 147.861C301.64 148.995 300.411 149.667 298.458 149.667C296.505 149.667 295.287 148.995 295.287 147.861C295.287 146.727 296.505 146.055 298.458 146.055ZM298.458 146.958C297.167 146.958 296.442 147.273 296.442 147.861C296.442 148.439 297.167 148.764 298.458 148.764C299.75 148.764 300.495 148.439 300.495 147.861C300.495 147.273 299.75 146.958 298.458 146.958ZM296.148 140.753H297.314V141.645C297.314 142.874 298.091 144.018 299.55 144.48L298.994 145.394C297.923 145.037 297.167 144.333 296.747 143.441C296.337 144.449 295.55 145.247 294.447 145.635L293.859 144.722C295.371 144.197 296.148 142.937 296.148 141.645V140.753ZM303.75 141.204H310.313V142.307C310.313 143.672 310.313 144.963 309.893 146.948L308.748 146.843C308.937 146.024 309.042 145.299 309.095 144.638L303.645 144.921L303.498 143.987L309.147 143.787C309.168 143.273 309.168 142.79 309.168 142.307V142.139H303.75V141.204ZM302.784 147.546H311.237V148.502H302.784V147.546ZM312.571 141.183H319.259V142.086C319.259 143.252 319.259 144.554 318.913 146.507L317.747 146.381C318.104 144.564 318.104 143.231 318.104 142.118H312.571V141.183ZM311.699 147.536H314.807V144.281H315.952V147.536H320.152V148.481H311.699V147.536ZM322.782 144.816H326.425V143.934H323.821V140.753H330.195V141.677H324.955V143.01H330.258V143.934H327.57V144.816H331.224V145.74H322.782V144.816ZM326.982 146.286C328.987 146.286 330.205 146.895 330.205 147.987C330.205 149.079 328.987 149.688 326.982 149.688C324.966 149.688 323.748 149.079 323.748 147.987C323.748 146.895 324.966 146.286 326.982 146.286ZM326.982 147.168C325.648 147.168 324.913 147.452 324.913 147.987C324.913 148.544 325.648 148.806 326.982 148.806C328.315 148.806 329.04 148.544 329.04 147.987C329.04 147.452 328.315 147.168 326.982 147.168ZM331.949 141.362H333.881V140.301H335.025V141.362H336.957V142.286H335.025V142.328C335.025 143.357 335.771 144.354 337.23 144.753L336.705 145.646C335.645 145.352 334.899 144.732 334.479 143.945C334.07 144.837 333.293 145.541 332.201 145.877L331.655 144.984C333.114 144.554 333.881 143.472 333.881 142.328V142.286H331.949V141.362ZM337.839 140.343H338.994V142.622H340.296V143.577H338.994V146.003H337.839V140.343ZM335.981 146.202C337.913 146.202 339.099 146.843 339.099 147.935C339.099 149.037 337.913 149.667 335.981 149.667C334.049 149.667 332.852 149.037 332.852 147.935C332.852 146.843 334.049 146.202 335.981 146.202ZM335.981 147.084C334.7 147.084 333.996 147.378 333.996 147.935C333.996 148.491 334.7 148.796 335.981 148.796C337.241 148.796 337.965 148.491 337.965 147.935C337.965 147.378 337.241 147.084 335.981 147.084ZM347.163 140.343H348.308V149.688H347.163V140.343ZM340.643 147.095C341.367 147.095 342.197 147.095 343.068 147.074V146.202C342.029 146.034 341.357 145.394 341.357 144.501C341.357 143.451 342.281 142.758 343.646 142.758C345 142.758 345.945 143.451 345.945 144.501C345.945 145.394 345.263 146.034 344.223 146.202V147.032C345.042 146.99 345.861 146.927 346.638 146.822L346.712 147.651C344.664 148.029 342.459 148.04 340.779 148.04L340.643 147.095ZM340.821 141.414H343.068V140.364H344.223V141.414H346.47V142.317H340.821V141.414ZM343.646 143.63C342.942 143.63 342.449 143.955 342.449 144.501C342.449 145.047 342.942 145.373 343.646 145.373C344.36 145.373 344.843 145.047 344.843 144.501C344.843 143.955 344.36 143.63 343.646 143.63Z" fill="#2F5FDD"/>
<path d="M358.521 145.964L361.445 143.041L362.28 143.876L358.521 147.634L354.763 143.876L355.598 143.041L358.521 145.964Z" fill="#2F5FDD"/>
<line x1="526.263" y1="380.275" x2="526.263" y2="413.875" stroke="#5786FF" stroke-width="0.525"/>
<line x1="531.381" y1="380.275" x2="531.381" y2="413.875" stroke="#5786FF" stroke-width="0.2625" stroke-dasharray="1.05 1.05"/>
<line x1="536.631" y1="380.275" x2="536.631" y2="413.875" stroke="#5786FF" stroke-width="0.2625" stroke-dasharray="1.05 1.05"/>
<line x1="541.881" y1="380.275" x2="541.881" y2="413.875" stroke="#5786FF" stroke-width="0.2625" stroke-dasharray="1.05 1.05"/>
<line x1="547.131" y1="380.275" x2="547.131" y2="413.875" stroke="#5786FF" stroke-width="0.2625" stroke-dasharray="1.05 1.05"/>
<line x1="552.381" y1="380.275" x2="552.381" y2="413.875" stroke="#5786FF" stroke-width="0.2625" stroke-dasharray="1.05 1.05"/>
<line x1="557.763" y1="380.275" x2="557.763" y2="413.875" stroke="#5786FF" stroke-width="0.525"/>
<line x1="562.881" y1="380.275" x2="562.881" y2="413.875" stroke="#5786FF" stroke-width="0.2625" stroke-dasharray="1.05 1.05"/>
<line x1="568.131" y1="380.275" x2="568.131" y2="413.875" stroke="#5786FF" stroke-width="0.2625" stroke-dasharray="1.05 1.05"/>
<line x1="573.381" y1="380.275" x2="573.381" y2="413.875" stroke="#5786FF" stroke-width="0.2625" stroke-dasharray="1.05 1.05"/>
<line x1="578.631" y1="380.275" x2="578.631" y2="413.875" stroke="#5786FF" stroke-width="0.2625" stroke-dasharray="1.05 1.05"/>
<line x1="583.881" y1="380.275" x2="583.881" y2="413.875" stroke="#5786FF" stroke-width="0.2625" stroke-dasharray="1.05 1.05"/>
<line x1="589.263" y1="380.275" x2="589.263" y2="413.875" stroke="#5786FF" stroke-width="0.525"/>
<line x1="594.381" y1="380.275" x2="594.381" y2="413.875" stroke="#5786FF" stroke-width="0.2625" stroke-dasharray="1.05 1.05"/>
<line x1="599.631" y1="380.275" x2="599.631" y2="413.875" stroke="#5786FF" stroke-width="0.2625" stroke-dasharray="1.05 1.05"/>
<line x1="604.881" y1="380.275" x2="604.881" y2="413.875" stroke="#5786FF" stroke-width="0.2625" stroke-dasharray="1.05 1.05"/>
<line x1="610.131" y1="380.275" x2="610.131" y2="413.875" stroke="#5786FF" stroke-width="0.2625" stroke-dasharray="1.05 1.05"/>
<line x1="615.381" y1="380.275" x2="615.381" y2="413.875" stroke="#5786FF" stroke-width="0.2625" stroke-dasharray="1.05 1.05"/>
<line x1="305.763" y1="450.625" x2="305.763" y2="484.225" stroke="#5786FF" stroke-width="0.525"/>
<line x1="310.881" y1="450.625" x2="310.881" y2="484.225" stroke="#5786FF" stroke-width="0.2625" stroke-dasharray="1.05 1.05"/>
<line x1="316.131" y1="450.625" x2="316.131" y2="484.225" stroke="#5786FF" stroke-width="0.2625" stroke-dasharray="1.05 1.05"/>
<line x1="321.381" y1="450.625" x2="321.381" y2="484.225" stroke="#5786FF" stroke-width="0.2625" stroke-dasharray="1.05 1.05"/>
<line x1="326.631" y1="450.625" x2="326.631" y2="484.225" stroke="#5786FF" stroke-width="0.2625" stroke-dasharray="1.05 1.05"/>
<line x1="331.881" y1="450.625" x2="331.881" y2="484.225" stroke="#5786FF" stroke-width="0.2625" stroke-dasharray="1.05 1.05"/>
<line x1="337.263" y1="450.625" x2="337.263" y2="484.225" stroke="#5786FF" stroke-width="0.525"/>
<line x1="342.381" y1="450.625" x2="342.381" y2="484.225" stroke="#5786FF" stroke-width="0.2625" stroke-dasharray="1.05 1.05"/>
<line x1="347.631" y1="450.625" x2="347.631" y2="484.225" stroke="#5786FF" stroke-width="0.2625" stroke-dasharray="1.05 1.05"/>
<line x1="352.881" y1="450.625" x2="352.881" y2="484.225" stroke="#5786FF" stroke-width="0.2625" stroke-dasharray="1.05 1.05"/>
<line x1="358.131" y1="450.625" x2="358.131" y2="484.225" stroke="#5786FF" stroke-width="0.2625" stroke-dasharray="1.05 1.05"/>
<line x1="363.381" y1="450.625" x2="363.381" y2="484.225" stroke="#5786FF" stroke-width="0.2625" stroke-dasharray="1.05 1.05"/>
<line x1="368.763" y1="450.625" x2="368.763" y2="484.225" stroke="#5786FF" stroke-width="0.525"/>
<line x1="373.881" y1="450.625" x2="373.881" y2="484.225" stroke="#5786FF" stroke-width="0.2625" stroke-dasharray="1.05 1.05"/>
<line x1="379.131" y1="450.625" x2="379.131" y2="484.225" stroke="#5786FF" stroke-width="0.2625" stroke-dasharray="1.05 1.05"/>
<line x1="384.381" y1="450.625" x2="384.381" y2="484.225" stroke="#5786FF" stroke-width="0.2625" stroke-dasharray="1.05 1.05"/>
<line x1="389.631" y1="450.625" x2="389.631" y2="484.225" stroke="#5786FF" stroke-width="0.2625" stroke-dasharray="1.05 1.05"/>
<line x1="394.881" y1="450.625" x2="394.881" y2="484.225" stroke="#5786FF" stroke-width="0.2625" stroke-dasharray="1.05 1.05"/>
<line x1="400.263" y1="450.625" x2="400.263" y2="484.225" stroke="#5786FF" stroke-width="0.525"/>
<line x1="405.381" y1="450.625" x2="405.381" y2="484.225" stroke="#5786FF" stroke-width="0.2625" stroke-dasharray="1.05 1.05"/>
<line x1="410.631" y1="450.625" x2="410.631" y2="484.225" stroke="#5786FF" stroke-width="0.2625" stroke-dasharray="1.05 1.05"/>
<line x1="415.881" y1="450.625" x2="415.881" y2="484.225" stroke="#5786FF" stroke-width="0.2625" stroke-dasharray="1.05 1.05"/>
<line x1="421.131" y1="450.625" x2="421.131" y2="484.225" stroke="#5786FF" stroke-width="0.2625" stroke-dasharray="1.05 1.05"/>
<line x1="426.381" y1="450.625" x2="426.381" y2="484.225" stroke="#5786FF" stroke-width="0.2625" stroke-dasharray="1.05 1.05"/>
<line x1="431.763" y1="450.625" x2="431.763" y2="484.225" stroke="#5786FF" stroke-width="0.525"/>
<line x1="436.881" y1="450.625" x2="436.881" y2="484.225" stroke="#5786FF" stroke-width="0.2625" stroke-dasharray="1.05 1.05"/>
<line x1="442.131" y1="450.625" x2="442.131" y2="484.225" stroke="#5786FF" stroke-width="0.2625" stroke-dasharray="1.05 1.05"/>
<line x1="447.381" y1="450.625" x2="447.381" y2="484.225" stroke="#5786FF" stroke-width="0.2625" stroke-dasharray="1.05 1.05"/>
<line x1="452.631" y1="450.625" x2="452.631" y2="484.225" stroke="#5786FF" stroke-width="0.2625" stroke-dasharray="1.05 1.05"/>
<line x1="457.881" y1="450.625" x2="457.881" y2="484.225" stroke="#5786FF" stroke-width="0.2625" stroke-dasharray="1.05 1.05"/>
<line x1="463.263" y1="450.625" x2="463.263" y2="484.225" stroke="#5786FF" stroke-width="0.525"/>
<line x1="468.381" y1="450.625" x2="468.381" y2="484.225" stroke="#5786FF" stroke-width="0.2625" stroke-dasharray="1.05 1.05"/>
<line x1="473.631" y1="450.625" x2="473.631" y2="484.225" stroke="#5786FF" stroke-width="0.2625" stroke-dasharray="1.05 1.05"/>
<line x1="478.881" y1="450.625" x2="478.881" y2="484.225" stroke="#5786FF" stroke-width="0.2625" stroke-dasharray="1.05 1.05"/>
<line x1="484.131" y1="450.625" x2="484.131" y2="484.225" stroke="#5786FF" stroke-width="0.2625" stroke-dasharray="1.05 1.05"/>
<line x1="489.381" y1="450.625" x2="489.381" y2="484.225" stroke="#5786FF" stroke-width="0.2625" stroke-dasharray="1.05 1.05"/>
<line x1="494.763" y1="450.625" x2="494.763" y2="484.225" stroke="#5786FF" stroke-width="0.525"/>
<line x1="499.881" y1="450.625" x2="499.881" y2="484.225" stroke="#5786FF" stroke-width="0.2625" stroke-dasharray="1.05 1.05"/>
<line x1="505.131" y1="450.625" x2="505.131" y2="484.225" stroke="#5786FF" stroke-width="0.2625" stroke-dasharray="1.05 1.05"/>
<line x1="510.381" y1="450.625" x2="510.381" y2="484.225" stroke="#5786FF" stroke-width="0.2625" stroke-dasharray="1.05 1.05"/>
<line x1="515.631" y1="450.625" x2="515.631" y2="484.225" stroke="#5786FF" stroke-width="0.2625" stroke-dasharray="1.05 1.05"/>
<line x1="520.881" y1="450.625" x2="520.881" y2="484.225" stroke="#5786FF" stroke-width="0.2625" stroke-dasharray="1.05 1.05"/>
<line x1="526.263" y1="450.625" x2="526.263" y2="484.225" stroke="#5786FF" stroke-width="0.525"/>
<line x1="531.381" y1="450.625" x2="531.381" y2="484.225" stroke="#5786FF" stroke-width="0.2625" stroke-dasharray="1.05 1.05"/>
<line x1="536.631" y1="450.625" x2="536.631" y2="484.225" stroke="#5786FF" stroke-width="0.2625" stroke-dasharray="1.05 1.05"/>
<line x1="541.881" y1="450.625" x2="541.881" y2="484.225" stroke="#5786FF" stroke-width="0.2625" stroke-dasharray="1.05 1.05"/>
<line x1="547.131" y1="450.625" x2="547.131" y2="484.225" stroke="#5786FF" stroke-width="0.2625" stroke-dasharray="1.05 1.05"/>
<line x1="552.381" y1="450.625" x2="552.381" y2="484.225" stroke="#5786FF" stroke-width="0.2625" stroke-dasharray="1.05 1.05"/>
<line x1="557.763" y1="450.625" x2="557.763" y2="484.225" stroke="#5786FF" stroke-width="0.525"/>
<line x1="562.881" y1="450.625" x2="562.881" y2="484.225" stroke="#5786FF" stroke-width="0.2625" stroke-dasharray="1.05 1.05"/>
<line x1="568.131" y1="450.625" x2="568.131" y2="484.225" stroke="#5786FF" stroke-width="0.2625" stroke-dasharray="1.05 1.05"/>
<defs>
<filter id="filter0_d_1585_2727" x="-3.73612" y="-2.73612" width="872.325" height="692.629" filterUnits="userSpaceOnUse" color-interpolation-filters="sRGB">
<feFlood flood-opacity="0" result="BackgroundImageFix"/>
<feColorMatrix in="SourceAlpha" type="matrix" values="0 0 0 0 0 0 0 0 0 0 0 0 0 0 0 0 0 0 127 0" result="hardAlpha"/>
<feOffset/>
<feGaussianBlur stdDeviation="25.3681"/>
<feComposite in2="hardAlpha" operator="out"/>
<feColorMatrix type="matrix" values="0 0 0 0 0.102833 0 0 0 0 0.166926 0 0 0 0 0.340893 0 0 0 0.3 0"/>
<feBlend mode="normal" in2="BackgroundImageFix" result="effect1_dropShadow_1585_2727"/>
<feBlend mode="normal" in="SourceGraphic" in2="effect1_dropShadow_1585_2727" result="shape"/>
</filter>
<filter id="filter1_d_1585_2727" x="416.275" y="196.525" width="30.45" height="30.45" filterUnits="userSpaceOnUse" color-interpolation-filters="sRGB">
<feFlood flood-opacity="0" result="BackgroundImageFix"/>
<feColorMatrix in="SourceAlpha" type="matrix" values="0 0 0 0 0 0 0 0 0 0 0 0 0 0 0 0 0 0 127 0" result="hardAlpha"/>
<feOffset dy="2.1"/>
<feGaussianBlur stdDeviation="1.05"/>
<feComposite in2="hardAlpha" operator="out"/>
<feColorMatrix type="matrix" values="0 0 0 0 0 0 0 0 0 0 0 0 0 0 0 0 0 0 0.25 0"/>
<feBlend mode="normal" in2="BackgroundImageFix" result="effect1_dropShadow_1585_2727"/>
<feBlend mode="normal" in="SourceGraphic" in2="effect1_dropShadow_1585_2727" result="shape"/>
</filter>
<clipPath id="clip0_1585_2727">
<rect width="26.25" height="26.25" fill="white" transform="translate(418.375 196.525)"/>
</clipPath>
<clipPath id="clip1_1585_2727">
<rect width="21" height="21" fill="white" transform="translate(169 137.2)"/>
</clipPath>
<clipPath id="clip2_1585_2727">
<rect width="14.175" height="14.175" fill="white" transform="translate(657.1 138.25)"/>
</clipPath>
<clipPath id="clip3_1585_2727">
<rect width="14.175" height="14.175" fill="white" transform="translate(679.15 138.25)"/>
</clipPath>
</defs>
</svg>
