<svg width="42" height="41" viewBox="0 0 42 41" fill="none" xmlns="http://www.w3.org/2000/svg">
<g clip-path="url(#clip0_35_5879)">
<path d="M39.1 35.2808H2.81884C1.56714 35.2808 0.55127 36.2966 0.55127 37.5483V40.9497H41.3676V37.5483C41.3676 36.2966 40.3517 35.2808 39.1 35.2808Z" fill="#FFAC33"/>
<path d="M19.8229 36.981C19.6245 37.8982 18.7174 38.481 17.8002 38.2814C16.8818 38.0819 16.2991 37.176 16.4986 36.2587L23.2333 1.83357C23.4329 0.915201 24.3388 0.333568 25.256 0.531981C26.1732 0.731527 26.756 1.63742 26.5565 2.55466L19.8229 36.981Z" fill="#66757F"/>
<path d="M24.7734 2.7491C14.6771 0.558623 5.09202 5.22983 3.36527 13.1856C3.36527 13.1856 2.88454 15.401 3.99225 15.6425C5.09996 15.8829 7.79724 14.1482 7.79724 14.1482L35.4968 20.1607C35.4968 20.1607 37.2315 22.8579 38.3403 23.0983C39.448 23.3387 39.9288 21.1233 39.9288 21.1233C41.6566 13.1663 34.8709 4.94071 24.7734 2.7491Z" fill="#DD2E44"/>
<path d="M24.7706 2.74958C17.122 1.08972 9.52225 6.19289 7.7955 14.1475C7.7955 14.1475 7.31477 16.3641 9.53019 16.8448C11.7456 17.3255 15.5506 15.8312 15.5506 15.8312L27.7377 18.4763C27.7377 18.4763 30.5812 21.4128 32.7978 21.8947C35.0132 22.3754 35.4939 20.16 35.4939 20.16C37.2218 12.2042 32.4191 4.40945 24.7706 2.74958Z" fill="#E1E8ED"/>
<path d="M24.7712 2.74926C20.7939 1.88645 17.278 7.87511 15.5513 15.8309C15.5513 15.8309 18.3937 18.7685 20.6102 19.2493L21.7179 19.4896C23.9345 19.9703 27.7383 18.476 27.7383 18.476C29.4662 10.5214 28.7497 3.6132 24.7712 2.74926Z" fill="#DD2E44"/>
</g>
<defs>
<clipPath id="clip0_35_5879">
<rect width="40.8163" height="40.8163" fill="white" transform="translate(0.551025 0.133545)"/>
</clipPath>
</defs>
</svg>
