<svg width="20" height="20" viewBox="0 0 20 20" fill="none" xmlns="http://www.w3.org/2000/svg">
<path d="M7.5 9.1665C7.5 9.82955 7.76339 10.4654 8.23223 10.9343C8.70107 11.4031 9.33696 11.6665 10 11.6665C10.663 11.6665 11.2989 11.4031 11.7678 10.9343C12.2366 10.4654 12.5 9.82955 12.5 9.1665C12.5 8.50346 12.2366 7.86758 11.7678 7.39874C11.2989 6.9299 10.663 6.6665 10 6.6665C9.33696 6.6665 8.70107 6.9299 8.23223 7.39874C7.76339 7.86758 7.5 8.50346 7.5 9.1665Z" stroke="#5E6D93" stroke-width="2" stroke-linecap="round" stroke-linejoin="round"/>
<path d="M14.7141 13.8806L11.1783 17.4164C10.8657 17.7286 10.4421 17.904 10.0003 17.904C9.5586 17.904 9.13493 17.7286 8.82242 17.4164L5.28576 13.8806C4.35344 12.9482 3.71853 11.7603 3.46133 10.4671C3.20412 9.17394 3.33616 7.83352 3.84076 6.61536C4.34535 5.39721 5.19984 4.35604 6.29616 3.62351C7.39248 2.89098 8.68139 2.5 9.99992 2.5C11.3184 2.5 12.6074 2.89098 13.7037 3.62351C14.8 4.35604 15.6545 5.39721 16.1591 6.61536C16.6637 7.83352 16.7957 9.17394 16.5385 10.4671C16.2813 11.7603 15.6464 12.9482 14.7141 13.8806Z" stroke="#5E6D93" stroke-width="2" stroke-linecap="round" stroke-linejoin="round"/>
</svg>
