<svg width="166" height="41" viewBox="0 0 166 41" fill="none" xmlns="http://www.w3.org/2000/svg">
<rect y="0.661621" width="161" height="39" rx="19.5" fill="#0078FF"/>
<path d="M159.967 32.827C160.561 36.3908 163.916 39.7367 165.89 40.5264C158.309 40.5264 153.453 37.9599 152.268 36.3806L146.346 38.1574L146.938 20.3896H159.375V22.7587V25.1277V25.72C159.375 26.9045 159.375 29.2735 159.967 32.827Z" fill="#0078FF"/>
<path d="M17.9457 16.1125H22.7341V20.9488H17.9457V16.1125ZM21.8602 16.8428H18.8196V20.2066H21.8602V16.8428ZM24.7093 15.1549H25.6071V18.3631H27.1634V19.1173H25.6071V22.8402H24.7093V15.1549ZM19.1189 22.11H20.0047V24.6598H26.086V25.402H19.1189V22.11ZM34.9328 15.1668H35.8307V17.3575H37.3869V18.1117H35.8307V20.458H34.9328V15.1668ZM28.2291 15.6217H29.1269V19.1652C30.6113 19.1652 32.1436 19.0574 33.8315 18.7103L33.9392 19.4644C32.1675 19.8236 30.6113 19.9313 29.0551 19.9313H28.2291V15.6217ZM29.2107 20.9728H35.8307V23.5106H30.1205V24.7676H36.2137V25.4978H29.2346V22.8163H34.9448V21.691H29.2107V20.9728ZM43.2107 16.0886H44.1085V17.992C44.1085 19.9074 45.4133 21.8347 46.9217 22.541L46.383 23.2592C45.1979 22.6727 44.1684 21.4157 43.6775 19.9074C43.1987 21.4995 42.1572 22.8402 40.9362 23.4508L40.3855 22.7086C41.9058 21.9783 43.2107 19.9792 43.2107 17.992V16.0886ZM48.0829 15.1549H48.9807V25.6534H48.0829V15.1549ZM57.8874 15.1668H58.7852V18.3631H60.3534V19.1173H58.7852V22.8283H57.8874V15.1668ZM55.984 15.9809C55.984 18.6743 54.0686 20.6615 51.0759 21.6192L50.6928 20.889C53.1828 20.1109 54.8228 18.6025 55.0144 16.7231H51.1238V15.9809H55.984ZM52.285 22.0502H53.1828V24.6598H59.2641V25.402H52.285V22.0502ZM60.8924 20.6974H70.3495V21.4277H60.8924V20.6974ZM62.1254 22.3734H63.0232V24.6718H69.308V25.414H62.1254V22.3734ZM65.6209 15.526C67.8595 15.526 69.296 16.3041 69.296 17.6089C69.296 18.9138 67.8595 19.6919 65.6209 19.6919C63.3824 19.6919 61.9458 18.9138 61.9458 17.6089C61.9458 16.3041 63.3824 15.526 65.6209 15.526ZM65.6209 16.2682C63.957 16.2682 62.8676 16.771 62.8676 17.6089C62.8676 18.4469 63.957 18.9616 65.6209 18.9616C67.2969 18.9616 68.3743 18.4469 68.3743 17.6089C68.3743 16.771 67.2969 16.2682 65.6209 16.2682ZM76.4127 15.9809C77.8372 15.9809 78.8667 17.2139 78.9984 19.1891H81.3447V15.1549H82.2306V25.6534H81.3447V19.9074H78.9984C78.9146 21.9664 77.8612 23.2712 76.4127 23.2712C74.8924 23.2712 73.815 21.8467 73.815 19.6201C73.815 17.3934 74.8924 15.9809 76.4127 15.9809ZM76.4127 16.7829C75.3832 16.7829 74.6649 17.9082 74.6649 19.6201C74.6649 21.3319 75.3832 22.4691 76.4127 22.4691C77.4542 22.4691 78.1605 21.3319 78.1605 19.6201C78.1605 17.9082 77.4542 16.7829 76.4127 16.7829ZM85.3074 21.4157H88.5875V20.3982H89.4853V21.4157H92.7534V22.122H85.3074V21.4157ZM89.0304 22.6367C90.8859 22.6367 91.9753 23.1635 91.9753 24.1331C91.9753 25.1028 90.8859 25.6295 89.0304 25.6295C87.1629 25.6295 86.0855 25.1028 86.0855 24.1331C86.0855 23.1635 87.1629 22.6367 89.0304 22.6367ZM89.0304 23.2712C87.7615 23.2712 87.0193 23.5824 87.0193 24.1331C87.0193 24.6838 87.7615 24.9831 89.0304 24.9831C90.2874 24.9831 91.0296 24.6838 91.0296 24.1331C91.0296 23.5824 90.2874 23.2712 89.0304 23.2712ZM84.1462 15.6936H86.7559V16.4118H85.0321V19.2609C85.5588 19.237 86.1813 19.1891 86.8876 19.0335L86.9953 19.7637C86.0017 19.9672 85.2236 19.9792 84.6011 19.9792H84.1462V15.6936ZM87.3545 15.6936H90.2395V16.4118H88.2403V19.2609C89.1381 19.249 89.8325 19.2011 90.6465 19.0215L90.7423 19.7398C89.7726 19.9552 88.9945 19.9792 87.8572 19.9792H87.3545V15.6936ZM91.676 15.1668H92.5618V20.7334H91.676V18.0638H89.7367V17.3575H91.676V15.1668ZM102.103 15.1668H102.965V25.6415H102.103V15.1668ZM99.9243 15.4422H100.774V25.0908H99.9243V20.2066H97.7097C97.0752 21.4277 96.0696 22.517 94.6211 23.3789L94.0944 22.7205C96.3569 21.3678 97.4942 19.4525 97.6618 17.2498H94.5254V16.5076H98.5596C98.5596 17.5371 98.392 18.5427 98.0329 19.4764H99.9243V15.4422ZM112.392 17.9082H114.523V15.1668H115.421V21.4037H114.523V18.6504H112.392V17.9082ZM111.985 21.7389C114.14 21.7389 115.457 22.4691 115.457 23.6902C115.457 24.9232 114.14 25.6295 111.985 25.6295C109.818 25.6295 108.501 24.9232 108.501 23.6902C108.501 22.4691 109.818 21.7389 111.985 21.7389ZM111.985 22.4452C110.381 22.4452 109.399 22.9121 109.399 23.6902C109.399 24.4563 110.381 24.9232 111.985 24.9232C113.577 24.9232 114.571 24.4563 114.571 23.6902C114.571 22.9121 113.577 22.4452 111.985 22.4452ZM107.149 15.945H112.739V16.6872H110.417V17.0942C110.417 18.4589 111.47 19.7637 112.979 20.2904L112.512 21.0087C111.339 20.5777 110.429 19.6919 109.986 18.6025C109.543 19.8475 108.561 20.8291 107.328 21.308L106.873 20.5897C108.406 20.0271 109.519 18.6145 109.519 17.0942V16.6872H107.149V15.945ZM124.267 15.1309H125.165V17.6808H126.745V18.4349H125.165V20.9249H124.267V15.1309ZM118.545 21.4756H125.165V23.774H119.455V24.8155H125.548V25.5218H118.581V23.1156H124.279V22.1579H118.545V21.4756ZM117.085 16.1245H119.73V15.0471H120.628V16.1245H123.274V16.8308H117.085V16.1245ZM120.173 17.3216C121.682 17.3216 122.675 17.98 122.675 19.0454C122.675 20.0989 121.682 20.7573 120.173 20.7573C118.665 20.7573 117.683 20.0989 117.683 19.0454C117.683 17.98 118.665 17.3216 120.173 17.3216ZM120.173 17.992C119.18 17.992 118.533 18.399 118.533 19.0454C118.533 19.6799 119.18 20.0989 120.173 20.0989C121.167 20.0989 121.813 19.6799 121.813 19.0454C121.813 18.399 121.167 17.992 120.173 17.992ZM134.599 15.1668H135.485V19.5003H137.077V20.2545H135.485V25.6415H134.599V15.1668ZM130.421 16.3041C130.421 18.7821 129.858 21.2481 127.967 23.2712L127.249 22.7565C128.829 21.1284 129.475 19.1412 129.583 17.0463H127.572V16.3041H130.421ZM133.282 16.3041C133.282 18.7701 132.911 21.6791 130.972 23.9655L130.241 23.4627C131.869 21.5953 132.36 19.225 132.432 17.0463H130.756V16.3041H133.282ZM140.046 24.9232C139.687 24.9232 139.435 24.6718 139.435 24.3127C139.435 23.9655 139.687 23.7261 140.046 23.7261C140.393 23.7261 140.632 23.9655 140.632 24.3127C140.632 24.6718 140.393 24.9232 140.046 24.9232ZM139.603 22.6966C139.591 21.5354 139.914 20.8411 140.764 20.2186C141.674 19.5363 141.913 19.0694 141.949 18.5187C141.997 17.561 141.291 16.8907 140.249 16.8907C139.495 16.8907 138.765 17.4294 138.466 18.2075L137.628 17.8962C138.047 16.7829 139.124 16.0048 140.249 16.0048C141.841 16.0048 142.907 17.0583 142.835 18.5666C142.799 19.3447 142.392 20.1109 141.291 20.9369C140.656 21.4037 140.477 21.7629 140.489 22.6966H139.603Z" fill="white"/>
</svg>
