<svg width="302" height="288" viewBox="0 0 302 288" fill="none" xmlns="http://www.w3.org/2000/svg">
<g clip-path="url(#clip0_1585_2612)">
<path d="M178.652 54.4085L141.302 28.7068C134.426 23.9743 126.667 26.2969 123.969 33.9003L91.4246 125.618C88.7299 133.213 92.1175 143.208 98.9923 147.945L136.342 173.647L178.652 54.4085ZM196.605 178.43L233.954 204.132C240.828 208.858 248.591 206.537 251.286 198.943L283.83 107.225C286.527 99.6258 283.134 89.629 276.263 84.8981L238.913 59.1963L196.605 178.43Z" fill="#CCD6DD"/>
<path d="M196.606 178.428L136.343 173.644L178.652 54.4109L238.914 59.1941L196.606 178.428Z" fill="#E1E8ED"/>
<path d="M175.396 63.5819L142.198 40.7318C137.617 37.5779 132.44 39.1283 130.644 44.1911L101.354 126.737C99.557 131.8 101.817 138.468 106.4 141.617L139.597 164.472L175.396 63.5819ZM268.859 91.2106L235.66 68.3606L199.861 169.25L233.06 192.101C237.641 195.254 242.816 193.709 244.615 188.637L273.906 106.09C275.7 101.032 273.44 94.3645 268.859 91.2106Z" fill="#55ACEE"/>
<path d="M199.86 169.257L139.598 164.473L175.397 63.5835L235.659 68.3667L199.86 169.257Z" fill="#88C9F9"/>
<path d="M156.033 118.153C154.794 117.744 153.135 117.661 151.922 117.443C149.804 117.068 149.572 119.278 149.078 118.721C148.579 118.162 147.331 116.733 146.425 114.382C145.52 112.027 148.347 112.601 149.354 112.21C150.36 111.818 148.184 110.907 147.67 109.898C147.153 108.894 145.341 109.608 144.73 107.43C144.103 105.266 145.552 103.642 146.04 101.802C146.519 99.958 148.594 100.948 149.973 101.473C151.357 101.98 152.205 103.009 151.46 105.109C150.718 107.2 152.005 108.958 152.456 106.216C152.906 103.479 153.988 103.368 154.982 102.517C155.971 101.68 157.574 100.597 159.756 98.8412C161.352 97.5591 162.001 98.1764 162.802 99.0753L168.245 83.7354C168.065 83.4441 167.887 83.1437 167.672 82.9487C166.498 81.8503 166.887 86.5581 165.23 87.8083C163.564 89.0552 162.174 87.7203 160.629 86.6609C159.098 85.6065 158.246 83.0014 160.236 81.3221C162.217 79.6395 164.258 81.3656 166.119 80.0377C167.979 78.7099 162.823 75.3987 161.257 73.454C159.689 71.4985 157.506 70.0113 155.074 70.5063C152.641 71.0059 148.561 68.882 146.778 68.523C144.994 68.1686 145.379 66.1213 145.599 64.5265C145.816 62.9408 143.14 61.9551 140.385 60.931C137.622 59.899 131.944 59.3866 130.428 66.4803C129.904 68.9481 133.001 68.0334 133.612 67.7958C134.218 67.5566 136.061 69.6975 135.652 71.8089C135.25 73.9328 134.37 75.9336 133.194 77.2977C132.004 78.6569 133.098 82.4578 133.34 85.673C133.59 88.8852 134.852 89.7513 135.406 90.1391C135.967 90.5238 138.615 94.3085 137.798 96.1305C136.978 97.9616 139.423 101.824 140.245 103.917C141.065 106.016 141.433 107.757 142.936 109.24C144.44 110.719 145.159 115.373 145.874 116.298C146.422 117.009 147.057 119.047 147.571 119.895C146.224 120.667 143.548 122.33 143.09 123.618C142.467 125.375 143.313 129.393 143.763 130.569C144.21 131.74 146.025 133.654 145.824 135.689C145.625 137.72 142.825 143.124 141.015 143.829C139.194 144.536 137.419 147.939 137.419 147.939C137.419 147.939 137.433 149.457 139.35 149.264C141.001 149.107 143.83 147.931 145.67 147.371L156.037 118.154L156.033 118.153Z" fill="#5C913B"/>
<path d="M163.923 99.8179C163.439 99.7285 163.046 99.5686 162.676 99.4322L168.119 84.0924C169.178 84.8038 169.952 86.3793 170.164 88.6181C170.409 91.3331 172.826 89.9036 172.944 91.5357C173.058 93.1662 175.724 96.4357 174.053 95.7602C172.376 95.0877 170.642 94.5911 169.457 96.4737C168.261 98.3622 168.936 100.388 167.642 100.105C166.35 99.8168 165.714 100.154 163.923 99.8179ZM166.756 129.521C164.877 128.472 165.148 128.831 164.851 125.752C164.561 122.67 164.084 121.643 161.168 121.058C158.252 120.472 158.273 120.733 157.989 119.088C157.867 118.384 157.017 118.32 155.907 118.51L145.541 147.722C146.14 147.345 146.664 147.031 147.021 146.868C150.114 145.503 153.259 143.784 156.423 141.706C159.589 139.622 159.302 137.956 161.286 135.784C163.277 133.609 164.771 133.835 167.479 132.07C170.198 130.298 168.637 130.581 166.756 129.521ZM220.462 111.195L230.736 82.2398C230.546 82.193 230.405 82.1841 230.208 82.1296C229.231 81.8399 227.777 81.9643 226.114 82.3294C226.012 82.2674 225.93 82.1812 225.828 82.1192C222.003 79.8587 217.85 85.5103 214.602 84.0842C211.345 82.6549 207.366 79.7404 203.072 82.6467C198.783 85.55 197.019 88.3987 200.966 88.5808C204.913 88.7629 209.301 84.1809 210.534 86.3531C211.767 88.5253 210.691 90.1314 205.838 90.3921C200.983 90.6574 195.712 91.0177 193.031 90.8046C190.349 90.5914 189.158 92.1876 190.354 94.099C191.555 96.0121 188.583 95.9026 184.906 97.4326C181.233 98.9533 184.743 100.018 186.768 101.733C188.792 103.448 191.411 101.713 193.407 99.2766C195.391 96.8415 201.192 94.1858 203.027 94.7182C204.862 95.2506 204.504 96.2595 203.506 97.9964C203.331 98.3009 203.343 98.4704 203.332 98.6472C201.674 100.847 200.234 102.866 199.533 104.042C199.194 104.619 198.82 105.602 198.441 106.727C198.04 106.605 197.567 106.526 197.302 106.328C195.503 105.024 191.084 102.986 189.431 103.757C187.776 104.538 186.725 105.389 184.916 105.888C183.106 106.377 175.573 108.893 174.064 112.798C172.551 116.696 170.861 121.11 173.377 121.44C175.894 121.77 182.742 120.498 185.273 119.011C187.802 117.518 190.346 118.116 190.535 120.073C190.714 122.041 189.699 123.127 187.781 126.087C185.845 129.055 186.719 130.682 187.14 133.439C187.572 136.194 188.13 137.792 187.457 139.69C186.786 141.58 188.064 143.639 192.105 140.705C193.407 139.773 194.774 138.523 196.121 137.188C198.759 135.703 201.145 134.205 201.38 133.396C201.764 132.081 201.99 131.371 202.286 130.495L203.061 129.634C204.12 128.497 205.38 126.605 206.6 124.926C206.649 124.892 206.688 124.87 206.731 124.849C208.366 123.689 208.154 123.531 210.621 122.326C212.271 121.517 212.619 120.391 212.706 119.565C213.472 118.933 213.776 118.499 212.937 118.433L212.857 118.426C212.848 118.422 212.803 118.505 212.807 118.48C212.944 117.759 211.857 118.159 210.268 118.344C208.953 117.918 207.78 117.12 207.804 115.569C207.838 113.537 206.664 110.022 207.047 108.402C207.128 108.219 207.196 108.057 207.295 107.85C207.418 107.708 207.554 107.601 207.755 107.559C207.965 107.52 208.147 107.543 208.325 107.58C208.333 108.156 208.215 108.982 207.965 109.848C207.308 112.078 209.452 111.388 208.961 112.773C208.468 114.163 210.591 115.892 211.101 116.362C211.244 116.495 211.576 116.391 211.989 116.171C212.113 116.272 212.211 116.42 212.356 116.492C213.644 117.11 218.185 113.48 219.372 112.972C219.994 112.702 220.287 111.907 220.165 111.219L220.462 111.195Z" fill="#77B255"/>
<path d="M229.821 137.698C228.862 139.63 230.338 138.92 231.453 141.918C232.566 144.936 230.335 143.555 229.613 142.897C228.895 142.229 228.13 141.694 227.801 139.579C227.461 137.439 228.932 136.392 229.472 134.869C229.472 134.869 230.785 135.769 229.821 137.698ZM232.947 134.156C234.461 135.55 234.254 132.131 235.435 130.696C236.619 129.278 237.483 129.523 238.571 129.934C239.65 130.328 240.817 129.745 241.868 129.096C242.912 128.439 244.661 127.743 244.996 126.421C245.331 125.099 245.304 124.041 245.396 122.21C245.5 120.388 247.444 121.037 248.855 119.766C250.257 118.493 248.855 119.766 250.798 120.415C252.747 121.065 251.984 120.536 252.602 119.929C253.228 119.33 253.744 118.646 253.956 116.899C254.173 115.153 252.422 115.838 251.218 115.013C250.018 114.19 252.396 113.237 253.092 111.651C253.791 110.061 255.182 111.54 256.327 112.153C257.47 112.76 257.108 114.929 257.286 115.576C257.476 116.222 261.985 115.359 263.411 114.44C264.826 113.522 263.031 112.802 263.704 112.463C264.371 112.126 261.354 109.889 260.225 108.807C259.116 107.727 256.108 105.451 255.237 103.686C254.372 101.918 249.528 99.4607 248.044 99.3937C246.57 99.3146 246.094 97.9634 245.926 96.5457C245.752 95.1311 243.263 94.0674 242.815 93.0307C242.368 91.994 241.16 93.0989 240.129 92.9037C239.109 92.7224 238.734 92.6306 237.929 91.0437C237.133 89.4601 238.899 89.4725 237.618 87.7272C236.378 86.0581 234.186 85.5696 230.738 82.2344L220.464 111.19C221.161 111.509 221.822 111.858 222.05 112.016C222.594 112.39 223.172 115.373 222.829 116.34C222.486 117.308 222.206 120.395 222.219 122.294C222.224 124.186 223.322 125.298 224.034 127.162C224.737 129.022 225.618 128.431 225.618 128.431C225.618 128.431 226.021 125.765 226.706 123.835C227.396 121.89 229.296 121.134 229.296 121.134C229.296 121.134 230.681 124.507 230.603 125.135C230.514 125.764 231.466 128.828 231.237 129.883C230.999 130.929 231.435 132.772 232.947 134.156ZM245.906 128.076C246.62 128.742 250.104 130.449 248.99 127.446C247.874 124.437 248.991 125.902 249.948 123.975C250.907 122.044 249.59 121.143 249.59 121.143C249.05 122.665 247.584 123.725 247.921 125.848C248.249 127.978 245.183 127.407 245.906 128.076ZM246.356 155.968C246.109 154.76 245.052 153.517 243.722 152.653C242.401 151.792 243.173 149.98 241.81 149.223C240.451 148.456 239.949 146.554 239.498 145.758C238.5 144.031 238.671 146.544 238.36 148.964C238.052 151.374 240.257 150.907 241.392 153.065C242.531 155.225 243.186 153.785 244.413 155.32C245.638 156.844 245.745 158.477 247.159 159.279C248.572 160.085 246.613 157.18 246.356 155.968ZM234.525 144.376C235.073 146.646 235.185 144.832 236.863 145.123C238.532 145.41 236.441 142.077 235.861 140.642C235.28 139.207 234.424 138.578 233.007 139.882C231.394 141.37 233.983 142.108 234.525 144.376ZM241.349 160.113C241.289 158.347 240.133 156.001 239.734 154.842C239.319 153.698 238.375 152.749 237.354 152.557C236.331 152.354 235.931 151.577 235.887 150.172C235.834 148.78 234.936 148.632 234.225 148.323C233.524 148.012 230.404 147.581 228.526 147.488C226.655 147.408 225.654 147.77 224.215 148.318C221.942 149.164 223.264 148.523 223.525 150.262C223.778 151.994 220.933 154.847 220.037 156.992C219.137 159.135 223.087 158.234 224.28 158.699C225.471 159.183 225.44 158.135 226.607 157.903C227.783 157.675 228.417 157.879 228.982 159.634C229.554 161.412 230.451 163.31 230.008 164.557C229.569 165.795 232.292 170.257 233.9 170.337C235.509 170.402 236.861 169.282 238.561 168.712C240.261 168.154 240.755 165.236 241.672 163.786C242.603 162.34 241.4 161.861 241.349 160.113Z" fill="#5C913B"/>
</g>
<g clip-path="url(#clip1_1585_2612)">
<path d="M60.8256 287.899C94.4187 287.899 121.651 260.666 121.651 227.073C121.651 193.48 94.4187 166.248 60.8256 166.248C27.2325 166.248 0 193.48 0 227.073C0 260.666 27.2325 287.899 60.8256 287.899Z" fill="#FFB049"/>
<path d="M60.826 276.072C87.8871 276.072 109.824 254.135 109.824 227.074C109.824 200.013 87.8871 178.075 60.826 178.075C33.765 178.075 11.8276 200.013 11.8276 227.074C11.8276 254.135 33.765 276.072 60.826 276.072Z" fill="#FFD983"/>
<path d="M60.8261 271.003C85.0877 271.003 104.756 251.335 104.756 227.074C104.756 202.812 85.0877 183.144 60.8261 183.144C36.5644 183.144 16.8965 202.812 16.8965 227.074C16.8965 251.335 36.5644 271.003 60.8261 271.003Z" fill="#F5F8FA"/>
<path d="M60.8257 193.281L65.9992 214.584L84.72 203.179L73.3152 221.9L94.6177 227.073L73.3152 232.247L84.72 250.968L65.9992 239.563L60.8257 260.865L55.6521 239.563L36.9314 250.968L48.3362 232.247L27.0337 227.073L48.3362 221.9L36.9314 203.179L55.6521 214.584L60.8257 193.281Z" fill="#CCD6DD"/>
<path d="M58.605 236.358L88.2642 254.542L70.0875 224.879L58.605 236.358Z" fill="#292F33"/>
<path d="M63.0459 217.837L33.3833 199.653L51.5634 229.319L63.0459 217.837Z" fill="#DD2E44"/>
<path d="M60.8264 237.424C66.5279 237.424 71.1498 232.802 71.1498 227.101C71.1498 221.399 66.5279 216.777 60.8264 216.777C55.1249 216.777 50.5029 221.399 50.5029 227.101C50.5029 232.802 55.1249 237.424 60.8264 237.424Z" fill="#8899A6"/>
<path d="M60.8258 232.671C63.9014 232.671 66.3947 230.177 66.3947 227.102C66.3947 224.026 63.9014 221.533 60.8258 221.533C57.7501 221.533 55.2568 224.026 55.2568 227.102C55.2568 230.177 57.7501 232.671 60.8258 232.671Z" fill="#F5F8FA"/>
</g>
<defs>
<clipPath id="clip0_1585_2612">
<rect width="175.178" height="175.178" fill="white" transform="translate(135.998 0.000488281) rotate(19.5365)"/>
</clipPath>
<clipPath id="clip1_1585_2612">
<rect width="121.651" height="121.651" fill="white" transform="translate(0 166.248)"/>
</clipPath>
</defs>
</svg>
