<svg width="351" height="255" viewBox="0 0 351 255" fill="none" xmlns="http://www.w3.org/2000/svg">
<rect width="351" height="254.475" rx="7.02" transform="matrix(1 0 0 -1 0 254.475)" fill="#F8F8FB"/>
<path d="M117.577 112.034C118.183 112.034 118.61 111.326 118.61 110.327C118.61 109.327 118.183 108.625 117.577 108.625C116.964 108.625 116.538 109.327 116.538 110.327C116.538 111.326 116.964 112.034 117.577 112.034ZM117.577 112.393C116.729 112.393 116.133 111.54 116.133 110.327C116.133 109.119 116.729 108.266 117.577 108.266C118.419 108.266 119.014 109.119 119.014 110.327C119.014 111.54 118.419 112.393 117.577 112.393ZM121.02 108.063L119.846 112.624H119.441L120.621 108.063H121.02ZM122.994 112.034C123.601 112.034 124.027 111.326 124.027 110.327C124.027 109.327 123.601 108.625 122.994 108.625C122.382 108.625 121.955 109.327 121.955 110.327C121.955 111.326 122.382 112.034 122.994 112.034ZM122.994 112.393C122.146 112.393 121.551 111.54 121.551 110.327C121.551 109.119 122.146 108.266 122.994 108.266C123.836 108.266 124.432 109.119 124.432 110.327C124.432 111.54 123.836 112.393 122.994 112.393ZM129.326 107.844H129.753V109.855H130.545V110.209H129.753V112.764H129.326V107.844ZM128.49 108.378C128.49 109.765 127.838 111.029 126.254 111.82L126.018 111.495C127.282 110.86 127.967 109.894 128.063 108.726H126.243V108.378H128.49ZM131.359 107.951H131.775V109.232H134.684V109.58H131.359V107.951ZM130.753 110.164H135.19V110.512H130.753V110.164ZM132.966 110.967C134.01 110.967 134.645 111.287 134.645 111.854C134.645 112.421 134.01 112.747 132.966 112.747C131.915 112.747 131.286 112.421 131.286 111.854C131.286 111.287 131.915 110.967 132.966 110.967ZM132.966 111.298C132.185 111.298 131.708 111.5 131.708 111.854C131.708 112.208 132.185 112.41 132.966 112.41C133.746 112.41 134.218 112.208 134.218 111.854C134.218 111.5 133.746 111.298 132.966 111.298Z" fill="black"/>
<path d="M214.453 112.034C215.059 112.034 215.486 111.326 215.486 110.327C215.486 109.327 215.059 108.625 214.453 108.625C213.84 108.625 213.414 109.327 213.414 110.327C213.414 111.326 213.84 112.034 214.453 112.034ZM214.453 112.393C213.605 112.393 213.009 111.54 213.009 110.327C213.009 109.119 213.605 108.266 214.453 108.266C215.295 108.266 215.89 109.119 215.89 110.327C215.89 111.54 215.295 112.393 214.453 112.393ZM217.896 108.063L216.722 112.624H216.317L217.497 108.063H217.896ZM219.752 112.045C220.291 112.045 220.667 111.697 220.667 111.203C220.667 110.731 220.291 110.4 219.752 110.4C219.213 110.4 218.837 110.731 218.837 111.203C218.837 111.697 219.213 112.045 219.752 112.045ZM218.943 109.327C218.943 109.743 219.275 110.035 219.752 110.035C220.229 110.035 220.566 109.743 220.566 109.327C220.566 108.889 220.229 108.586 219.752 108.586C219.275 108.586 218.943 108.889 218.943 109.327ZM220.42 110.209C220.802 110.433 221.072 110.838 221.072 111.191C221.072 111.905 220.527 112.405 219.752 112.405C218.977 112.405 218.432 111.905 218.432 111.191C218.432 110.838 218.702 110.433 219.089 110.209C218.764 109.99 218.539 109.63 218.539 109.338C218.539 108.687 219.039 108.226 219.752 108.226C220.465 108.226 220.971 108.687 220.971 109.338C220.971 109.63 220.746 109.99 220.42 110.209ZM225.966 107.844H226.393V109.855H227.185V110.209H226.393V112.764H225.966V107.844ZM225.13 108.378C225.13 109.765 224.478 111.029 222.894 111.82L222.659 111.495C223.922 110.86 224.607 109.894 224.703 108.726H222.883V108.378H225.13ZM228 107.951H228.415V109.232H231.324V109.58H228V107.951ZM227.393 110.164H231.83V110.512H227.393V110.164ZM229.606 110.967C230.65 110.967 231.285 111.287 231.285 111.854C231.285 112.421 230.65 112.747 229.606 112.747C228.556 112.747 227.927 112.421 227.927 111.854C227.927 111.287 228.556 110.967 229.606 110.967ZM229.606 111.298C228.825 111.298 228.348 111.5 228.348 111.854C228.348 112.208 228.825 112.41 229.606 112.41C230.386 112.41 230.858 112.208 230.858 111.854C230.858 111.5 230.386 111.298 229.606 111.298Z" fill="black"/>
<path d="M148.853 41.2629H149.866V49.4124H148.853V41.2629ZM145.522 41.8561C146.745 41.8561 147.63 42.9694 147.63 44.7308C147.63 46.5012 146.745 47.6146 145.522 47.6146C144.299 47.6146 143.414 46.5012 143.414 44.7308C143.414 42.9694 144.299 41.8561 145.522 41.8561ZM145.522 42.7687C144.846 42.7687 144.381 43.4896 144.381 44.7308C144.381 45.981 144.846 46.7111 145.522 46.7111C146.197 46.7111 146.662 45.981 146.662 44.7308C146.662 43.4896 146.197 42.7687 145.522 42.7687ZM156.656 41.2811H157.659V47.2769H156.656V44.2927H155.049V45.9719H151.28V41.8104H152.266V43.1246H154.064V41.8104H155.049V43.4805H156.656V41.2811ZM152.348 46.6928H153.352V48.4359H157.842V49.239H152.348V46.6928ZM152.266 43.8912V45.1597H154.064V43.8912H152.266ZM160.539 47.5963H163.705V45.8259H161.342V41.9017H167.055V45.8259H164.7V47.5963H167.894V48.4085H160.539V47.5963ZM166.078 42.6957H162.327V45.0319H166.078V42.6957ZM173.981 41.2811H174.985V45.8898H173.981V41.2811ZM169.647 46.2822H174.985V49.3029H169.647V46.2822ZM174.009 47.0761H170.632V48.5089H174.009V47.0761ZM170.596 41.6735C171.846 41.6735 172.768 42.4675 172.768 43.5991C172.768 44.7308 171.846 45.5247 170.596 45.5247C169.345 45.5247 168.424 44.7308 168.424 43.5991C168.424 42.4675 169.345 41.6735 170.596 41.6735ZM170.596 42.504C169.911 42.504 169.4 42.9329 169.4 43.5991C169.4 44.2745 169.911 44.6943 170.596 44.6943C171.28 44.6943 171.791 44.2745 171.791 43.5991C171.791 42.9329 171.28 42.504 170.596 42.504ZM180.182 41.5367C181.414 41.5367 182.336 42.2941 182.336 43.371C182.336 44.4479 181.414 45.1962 180.182 45.1962C178.96 45.1962 178.047 44.4479 178.047 43.371C178.047 42.2941 178.96 41.5367 180.182 41.5367ZM180.182 42.3489C179.516 42.3489 179.014 42.7413 179.014 43.371C179.014 44.0007 179.516 44.384 180.182 44.384C180.867 44.384 181.36 44.0007 181.36 43.371C181.36 42.7413 180.867 42.3489 180.182 42.3489ZM183.614 41.2811H184.618V45.3787H183.614V41.2811ZM179.27 45.7346H184.618V47.861H180.265V48.518H184.846V49.3029H179.288V47.1309H183.623V46.5103H179.27V45.7346ZM187.684 41.9382H188.697V43.2158C188.697 44.7125 189.464 46.2092 190.769 46.7841L190.185 47.5963C189.245 47.1583 188.569 46.2913 188.204 45.2327C187.839 46.3734 187.146 47.3043 186.169 47.7697L185.567 46.9392C186.899 46.3461 187.684 44.7855 187.684 43.2158V41.9382ZM191.344 41.2629H192.348V49.4124H191.344V41.2629ZM194.346 41.564H195.341V43.5626H199.932V44.3657H194.346V41.564ZM193.406 45.3057H200.762V46.1088H193.406V45.3057ZM194.283 46.8115H195.277V48.4085H199.977V49.2207H194.283V46.8115ZM201.903 47.7423C202.232 47.7423 202.46 47.9796 202.46 48.3081C202.46 48.6458 202.232 48.8831 201.903 48.8831C201.565 48.8831 201.328 48.6458 201.328 48.3081C201.328 47.9796 201.565 47.7423 201.903 47.7423ZM204.215 47.7423C204.543 47.7423 204.771 47.9796 204.771 48.3081C204.771 48.6458 204.543 48.8831 204.215 48.8831C203.877 48.8831 203.64 48.6458 203.64 48.3081C203.64 47.9796 203.877 47.7423 204.215 47.7423ZM206.527 47.7423C206.855 47.7423 207.083 47.9796 207.083 48.3081C207.083 48.6458 206.855 48.8831 206.527 48.8831C206.189 48.8831 205.952 48.6458 205.952 48.3081C205.952 47.9796 206.189 47.7423 206.527 47.7423Z" fill="#1A3C95"/>
<path d="M162.663 83.1136V87.2021H163.503V88.0417H162.663V89.7574H161.696V88.0417H158.839L158.748 87.2021L161.741 83.1136H162.663ZM159.898 87.2021H161.696V84.7289L159.898 87.2021ZM169.783 82.3379H170.787V87.0743H169.783V86.7549H168.286V86.1343H169.783V82.3379ZM164.015 85.2765C165.585 85.2765 167.52 85.2674 169.244 85.094L169.308 85.7145C168.569 85.8241 167.812 85.8879 167.072 85.9244V87.0926H166.068V85.9609C165.384 85.9792 164.727 85.9792 164.134 85.9792L164.015 85.2765ZM165.202 87.339H170.787V89.155H166.214V89.6935H171.015V90.3962H165.211V88.5162H169.801V88.0325H165.202V87.339ZM166.607 82.4748C167.821 82.4748 168.624 82.9402 168.624 83.6886C168.624 84.4369 167.821 84.9023 166.607 84.9023C165.402 84.9023 164.59 84.4369 164.59 83.6886C164.59 82.9402 165.402 82.4748 166.607 82.4748ZM166.607 83.141C165.95 83.141 165.53 83.3418 165.53 83.6886C165.53 84.0445 165.95 84.2453 166.607 84.2453C167.273 84.2453 167.693 84.0445 167.693 83.6886C167.693 83.3418 167.273 83.141 166.607 83.141ZM176.267 83.1228V89.7574L175.299 89.7482V84.154L174.131 84.8019L173.73 83.9897L175.308 83.1228H176.267ZM177.517 88.9086C178.849 87.631 180.665 86.3351 180.665 85.2126C180.665 84.4643 180.191 83.935 179.515 83.935C178.995 83.935 178.475 84.3091 178.238 84.8476L177.389 84.4734C177.754 83.6338 178.639 83.0497 179.515 83.0497C180.766 83.0497 181.633 83.9441 181.633 85.2126C181.633 86.6089 180.118 87.85 178.886 88.9086H181.742V89.7574H177.608L177.517 88.9086ZM184.545 82.6026C185.777 82.6026 186.699 83.36 186.699 84.4369C186.699 85.5138 185.777 86.2621 184.545 86.2621C183.322 86.2621 182.41 85.5138 182.41 84.4369C182.41 83.36 183.322 82.6026 184.545 82.6026ZM184.545 83.4148C183.879 83.4148 183.377 83.8072 183.377 84.4369C183.377 85.0666 183.879 85.4499 184.545 85.4499C185.23 85.4499 185.723 85.0666 185.723 84.4369C185.723 83.8072 185.23 83.4148 184.545 83.4148ZM187.977 82.347H188.981V86.4446H187.977V82.347ZM183.633 86.8005H188.981V88.9269H184.627V89.584H189.209V90.3688H183.651V88.1968H187.986V87.5762H183.633V86.8005Z" fill="#1A3C95"/>
<g filter="url(#filter0_d_2213_4679)">
<g clip-path="url(#clip0_2213_4679)">
<path d="M166.725 29.2316C166.725 30.3085 167.598 31.1816 168.675 31.1816H180.375C181.452 31.1816 182.325 30.3085 182.325 29.2316V20.9441C182.325 19.8673 181.452 18.9941 180.375 18.9941H175.987C174.251 18.9941 174.525 16.5566 171.874 16.5566H168.675C167.598 16.5566 166.725 17.4298 166.725 18.5066V29.2316Z" fill="#2F5FDD"/>
<path d="M182.489 20.9443H179.29C176.639 20.9443 176.666 23.3818 174.929 23.3818H170.542C169.465 23.3818 168.503 24.2549 168.394 25.3318L168.153 27.2204L167.898 29.2318L167.888 29.2309C167.832 29.5268 167.56 29.7179 167.254 29.7179C166.941 29.7179 166.715 29.4707 166.731 29.1602C166.73 29.1845 166.725 29.2075 166.725 29.2318C166.725 30.2088 167.445 31.0102 168.382 31.1521C168.469 31.1706 168.563 31.1818 168.675 31.1818H181.35C182.427 31.1818 183.389 30.3087 183.498 29.2318L184.24 22.8943C184.35 21.8174 183.566 20.9443 182.489 20.9443Z" fill="#5786FF"/>
</g>
</g>
<path d="M124.559 59.8227H125.109V65.4015H124.559V59.8227ZM122.164 60.2524C122.992 60.2524 123.586 61.0042 123.586 62.1983C123.586 63.3861 122.992 64.1442 122.164 64.1442C121.337 64.1442 120.743 63.3861 120.743 62.1983C120.743 61.0042 121.337 60.2524 122.164 60.2524ZM122.164 60.7452C121.64 60.7452 121.274 61.3075 121.274 62.1983C121.274 63.0891 121.64 63.6578 122.164 63.6578C122.689 63.6578 123.055 63.0891 123.055 62.1983C123.055 61.3075 122.689 60.7452 122.164 60.7452ZM129.948 59.8354H130.498V63.9484H129.948V61.8319H128.71V63.0133H126.189V60.2018H126.726V61.1621H128.173V60.2018H128.71V61.3833H129.948V59.8354ZM126.916 63.544H127.459V64.8266H130.631V65.2688H126.916V63.544ZM126.726 61.5918V62.5647H128.173V61.5918H126.726ZM132.58 64.2327H134.816V62.9186H133.161V60.2839H137.015V62.9186H135.36V64.2327H137.615V64.6813H132.58V64.2327ZM136.484 60.7199H133.698V62.4826H136.484V60.7199ZM141.956 59.8354H142.499V63.007H141.956V59.8354ZM138.898 63.2976H142.499V65.3194H138.898V63.2976ZM141.968 63.7336H139.435V64.8771H141.968V63.7336ZM139.517 60.1197C140.364 60.1197 140.976 60.6567 140.976 61.4275C140.976 62.192 140.364 62.7227 139.517 62.7227C138.67 62.7227 138.058 62.192 138.058 61.4275C138.058 60.6567 138.67 60.1197 139.517 60.1197ZM139.517 60.5809C138.986 60.5809 138.595 60.9221 138.595 61.4275C138.595 61.9329 138.986 62.2678 139.517 62.2678C140.048 62.2678 140.439 61.9329 140.439 61.4275C140.439 60.9221 140.048 60.5809 139.517 60.5809ZM144.834 60.3219H147.399V62.9186H144.834V60.3219ZM146.868 60.7641H145.371V62.47H146.868V60.7641ZM148.384 59.829H148.934V61.5096H149.743V61.9645H148.934V63.8978H148.384V59.829ZM145.459 63.5124H146.002V64.8266H149.174V65.2688H145.459V63.5124ZM153.748 59.829H154.298V61.0926H155.113V61.5475H154.298V62.9754H153.748V59.829ZM150.779 63.266H154.298V65.3131H150.779V63.266ZM153.767 63.702H151.316V64.8708H153.767V63.702ZM150.236 60.107H150.785V62.1162C151.543 62.1098 152.339 62.053 153.205 61.8761L153.268 62.3183C152.339 62.5142 151.499 62.5711 150.684 62.5711H150.236V60.107ZM159.34 59.8227H159.89V65.4015H159.34V59.8227ZM156.945 60.2524C157.773 60.2524 158.367 61.0042 158.367 62.1983C158.367 63.3861 157.773 64.1442 156.945 64.1442C156.118 64.1442 155.524 63.3861 155.524 62.1983C155.524 61.0042 156.118 60.2524 156.945 60.2524ZM156.945 60.7452C156.421 60.7452 156.055 61.3075 156.055 62.1983C156.055 63.0891 156.421 63.6578 156.945 63.6578C157.47 63.6578 157.836 63.0891 157.836 62.1983C157.836 61.3075 157.47 60.7452 156.945 60.7452ZM165.731 59.8227H166.287V62.0656H167.152V62.5268H166.287V65.3889H165.731V59.8227ZM164.846 60.4229C164.846 62.0151 164.132 63.4429 162.325 64.3464L162.016 63.9294C163.418 63.2218 164.17 62.1793 164.29 60.8715H162.287V60.4229H164.846ZM168.043 59.9428H168.58V61.358H171.821V61.8003H168.043V59.9428ZM167.367 62.4194H172.39V62.868H167.367V62.4194ZM169.869 63.3482C171.057 63.3482 171.777 63.7146 171.777 64.3591C171.777 65.0035 171.057 65.3763 169.869 65.3763C168.675 65.3763 167.961 65.0035 167.961 64.3591C167.961 63.7146 168.675 63.3482 169.869 63.3482ZM169.869 63.7778C169.016 63.7778 168.511 63.9863 168.511 64.3591C168.511 64.7318 169.016 64.9403 169.869 64.9403C170.722 64.9403 171.221 64.7318 171.221 64.3591C171.221 63.9863 170.722 63.7778 169.869 63.7778ZM176.497 59.8354H177.046V61.6423H177.861V62.0972H177.046V64.0052H176.497V59.8354ZM172.738 60.4924H174.109V59.8354H174.652V60.4924H176.023V60.9347H172.738V60.4924ZM174.38 61.2253C175.17 61.2253 175.713 61.6423 175.713 62.2678C175.713 62.8996 175.17 63.3103 174.38 63.3103C173.59 63.3103 173.047 62.8996 173.047 62.2678C173.047 61.6423 173.59 61.2253 174.38 61.2253ZM174.38 61.655C173.894 61.655 173.565 61.8887 173.565 62.2678C173.565 62.6469 173.894 62.8806 174.38 62.8806C174.86 62.8806 175.189 62.6469 175.189 62.2678C175.189 61.8887 174.86 61.655 174.38 61.655ZM173.572 63.6704H174.115V64.8266H177.293V65.2688H173.572V63.6704ZM180.828 60.3092H181.377V61.2759C181.377 62.2931 182.015 63.3166 182.843 63.6957L182.521 64.1379C181.883 63.8283 181.371 63.1902 181.112 62.4068C180.859 63.2345 180.335 63.9168 179.678 64.2453L179.343 63.7904C180.19 63.3987 180.828 62.3373 180.828 61.2759V60.3092ZM183.386 59.8227H183.936V65.4015H183.386V59.8227ZM188.523 59.8354H189.073V61.497H189.888V61.9519H189.073V63.8789H188.523V59.8354ZM187.582 60.2587C187.582 61.7055 186.59 62.7606 184.985 63.2597L184.751 62.8175C186.059 62.4194 186.887 61.655 186.988 60.7073H184.985V60.2587H187.582ZM185.592 63.4682H186.141V64.8266H189.313V65.2688H185.592V63.4682ZM192.624 59.9301C193.856 59.9301 194.589 60.265 194.589 60.8842C194.589 61.5096 193.856 61.8508 192.624 61.8508C191.398 61.8508 190.659 61.5096 190.659 60.8842C190.659 60.265 191.398 59.9301 192.624 59.9301ZM192.624 60.3345C191.733 60.3345 191.227 60.5367 191.227 60.8842C191.227 61.2443 191.733 61.4401 192.624 61.4401C193.515 61.4401 194.026 61.2443 194.026 60.8842C194.026 60.5367 193.515 60.3345 192.624 60.3345ZM190.115 62.2046H195.138V62.6469H190.115V62.2046ZM190.716 63.0955H194.494V64.3717H191.265V64.9087H194.664V65.332H190.735V63.98H193.963V63.5188H190.716V63.0955ZM200.55 59.8354H201.099V61.5033H201.902V61.9582H201.099V63.5693H200.55V59.8354ZM196.74 62.9817C197.176 62.9817 197.688 62.9817 198.212 62.9628V62.5711C197.574 62.5079 197.176 62.2109 197.176 61.756C197.176 61.2443 197.688 60.9347 198.471 60.9347C199.267 60.9347 199.779 61.2443 199.779 61.756C199.779 62.2046 199.387 62.5016 198.749 62.5711V62.9438C199.254 62.9186 199.76 62.8743 200.234 62.8048L200.278 63.1965C199.09 63.4114 197.782 63.4177 196.816 63.4177L196.74 62.9817ZM197.428 63.841H201.099V65.3952H200.55V64.2769H197.428V63.841ZM196.885 60.3219H198.212V59.7848H198.749V60.3219H200.069V60.7325H196.885V60.3219ZM198.471 61.3075C197.997 61.3075 197.694 61.478 197.694 61.756C197.694 62.0277 197.997 62.2109 198.471 62.2109C198.957 62.2109 199.261 62.0277 199.261 61.756C199.261 61.478 198.957 61.3075 198.471 61.3075ZM206.154 59.8354H206.703V63.8852H206.154V59.8354ZM203.121 63.4745H203.665V64.8266H206.868V65.2688H203.121V63.4745ZM203.715 60.2144C204.549 60.2144 205.175 60.7831 205.175 61.5918C205.175 62.3942 204.549 62.9628 203.715 62.9628C202.887 62.9628 202.256 62.3942 202.256 61.5918C202.256 60.7831 202.887 60.2144 203.715 60.2144ZM203.715 60.6883C203.191 60.6883 202.793 61.0547 202.793 61.5918C202.793 62.1162 203.191 62.4826 203.715 62.4826C204.239 62.4826 204.644 62.1162 204.644 61.5918C204.644 61.0547 204.239 60.6883 203.715 60.6883ZM207.493 60.7704H208.599V59.987H209.136V60.7704H210.235V61.2127H207.493V60.7704ZM208.871 61.5665C209.566 61.5665 210.071 62.0972 210.071 62.8427C210.071 63.5946 209.566 64.119 208.871 64.119C208.176 64.119 207.677 63.5946 207.677 62.8427C207.677 62.0972 208.176 61.5665 208.871 61.5665ZM208.871 62.0277C208.454 62.0277 208.163 62.3626 208.163 62.8427C208.163 63.3229 208.454 63.6578 208.871 63.6578C209.281 63.6578 209.585 63.3229 209.585 62.8427C209.585 62.3626 209.281 62.0277 208.871 62.0277ZM211.695 59.829H212.213V65.3889H211.695V62.609H211.019V65.1235H210.507V59.9617H211.019V62.1604H211.695V59.829ZM212.87 64.2327H215.107V63.0639H213.458V60.2144H214.001V61.1874H216.768V60.2144H217.312V63.0639H215.65V64.2327H217.906V64.6876H212.87V64.2327ZM214.001 61.6297V62.6216H216.768V61.6297H214.001ZM220.42 61.8066H221.305V59.9491H221.817V65.1109H221.305V62.2615H220.42V61.8066ZM219.365 60.3534H219.89V61.377C219.89 62.2615 220.288 63.2092 221.02 63.6641L220.711 64.0874C220.193 63.7715 219.833 63.1965 219.637 62.5458C219.435 63.2597 219.043 63.8726 218.5 64.2074L218.158 63.7968C218.929 63.3419 219.365 62.3436 219.365 61.3896V60.3534ZM222.436 59.829H222.96V65.3889H222.436V59.829ZM223.598 64.2327H224.818V62.7543C224.357 62.5016 224.079 62.1098 224.079 61.6044C224.079 60.7325 224.931 60.1702 226.107 60.1702C227.294 60.1702 228.135 60.7325 228.135 61.6044C228.135 62.1035 227.863 62.4952 227.414 62.7416V64.2327H228.634V64.6813H223.598V64.2327ZM226.107 60.5998C225.235 60.5998 224.616 60.9979 224.616 61.6044C224.616 62.2173 225.235 62.609 226.107 62.609C226.985 62.609 227.604 62.2173 227.604 61.6044C227.604 60.9979 226.985 60.5998 226.107 60.5998ZM225.361 64.2327H226.865V62.9501C226.637 63.007 226.378 63.0386 226.107 63.0386C225.841 63.0386 225.589 63.007 225.361 62.9565V64.2327ZM230.081 60.2839L229.999 63.7778H229.506L229.411 60.2839H230.081ZM229.759 64.3338C229.954 64.3338 230.093 64.4728 230.093 64.675C230.093 64.8771 229.954 65.0224 229.759 65.0224C229.556 65.0224 229.411 64.8771 229.411 64.675C229.411 64.4728 229.556 64.3338 229.759 64.3338Z" fill="#5E6D93"/>
<rect x="179.01" y="224.992" width="164.97" height="22.464" rx="4.914" fill="#B7BDCC"/>
<path d="M237.882 237.171H244.106V237.866H241.419V239.943H240.561V237.866H237.882V237.171ZM238.685 233.356H243.364V234.028H239.519V234.63H243.218V235.286H239.519V235.92H243.442V236.599H238.685V233.356ZM244.446 238.452H246.052V237.039H244.979V236.36H245.936V234.313H244.948V233.634H250.129V234.313H249.148V236.36H250.114V237.039H249.033V238.452H250.67V239.14H244.446V238.452ZM246.785 236.36H248.307V234.313H246.785V236.36ZM246.894 238.452H248.199V237.039H246.894V238.452ZM257.685 233.055H258.496V239.927H257.685V236.437H256.998V239.603H256.202V233.186H256.998V235.75H257.685V233.055ZM252.673 233.796H255.816V234.491H254.697V234.808C254.697 236.035 255.114 237.163 256.11 237.688L255.623 238.337C254.982 237.989 254.558 237.395 254.311 236.653C254.079 237.503 253.654 238.182 252.99 238.584L252.473 237.935C253.477 237.348 253.878 236.159 253.878 234.808V234.491H252.673V233.796ZM260.45 233.472H261.268V234.313C261.268 235.07 261.693 235.819 262.589 236.174L262.141 236.815C261.538 236.576 261.114 236.144 260.874 235.603C260.62 236.221 260.179 236.746 259.523 237.024L259.075 236.367C260.01 235.958 260.45 235.093 260.45 234.313V233.472ZM264.156 233.062H264.967V237.279H264.156V235.487H263.492V237.062H262.697V233.194H263.492V234.8H264.156V233.062ZM262.658 237.395C264.094 237.395 264.998 237.873 264.998 238.661C264.998 239.456 264.094 239.927 262.658 239.927C261.23 239.927 260.326 239.456 260.326 238.661C260.326 237.873 261.23 237.395 262.658 237.395ZM262.658 238.043C261.716 238.043 261.168 238.259 261.168 238.661C261.168 239.062 261.716 239.286 262.658 239.286C263.608 239.286 264.149 239.062 264.149 238.661C264.149 238.259 263.608 238.043 262.658 238.043ZM267.346 233.433H268.195V234.043C268.195 234.978 268.728 235.835 269.786 236.174L269.338 236.839C268.604 236.584 268.087 236.082 267.793 235.441C267.492 236.182 266.921 236.761 266.095 237.047L265.654 236.36C266.774 235.989 267.346 235.07 267.346 234.074V233.433ZM270.55 233.062H271.4V237.101H270.55V235.086H269.207V234.383H270.55V233.062ZM269.106 237.286C270.543 237.286 271.431 237.773 271.431 238.607C271.431 239.449 270.543 239.927 269.106 239.927C267.662 239.927 266.766 239.449 266.766 238.607C266.766 237.773 267.662 237.286 269.106 237.286ZM269.106 237.943C268.149 237.943 267.624 238.174 267.624 238.607C267.624 239.039 268.149 239.271 269.106 239.271C270.048 239.271 270.589 239.039 270.589 238.607C270.589 238.174 270.048 237.943 269.106 237.943ZM276.759 233.062H277.608V235.796H278.651V236.499H277.608V239.935H276.759V233.062ZM272.218 234.105H273.817V233.163H274.674V234.105H276.249V234.784H272.218V234.105ZM274.249 235.248C275.245 235.248 275.971 235.912 275.971 236.862C275.971 237.812 275.245 238.476 274.249 238.476C273.269 238.476 272.535 237.812 272.535 236.862C272.535 235.912 273.269 235.248 274.249 235.248ZM274.249 235.935C273.724 235.935 273.354 236.298 273.354 236.862C273.354 237.425 273.724 237.781 274.249 237.781C274.774 237.781 275.153 237.425 275.153 236.862C275.153 236.298 274.774 235.935 274.249 235.935ZM283.647 233.055H284.497V239.927H283.647V233.055ZM282.466 233.773C282.466 235.835 281.686 237.564 279.292 238.723L278.852 238.051C280.636 237.194 281.446 236.028 281.593 234.46H279.192V233.773H282.466Z" fill="white"/>
<rect x="7.02" y="224.992" width="164.97" height="22.464" rx="4.914" fill="#5786FF"/>
<path d="M69.0509 237.171H75.2748V237.866H72.5876V239.943H71.7304V237.866H69.0509V237.171ZM69.854 233.356H74.5335V234.028H70.6879V234.63H74.3868V235.286H70.6879V235.92H74.6107V236.599H69.854V233.356ZM75.6148 238.452H77.2209V237.039H76.1476V236.36H77.1051V234.313H76.1167V233.634H81.2982V234.313H80.3175V236.36H81.2827V237.039H80.2016V238.452H81.8387V239.14H75.6148V238.452ZM77.9545 236.36H79.4758V234.313H77.9545V236.36ZM78.0626 238.452H79.3677V237.039H78.0626V238.452ZM88.2518 233.047H89.1089V235.657H90.1514V236.36H89.1089V239.943H88.2518V233.047ZM84.0355 233.711H87.2402V234.391H84.885V237.557C85.9583 237.549 86.7923 237.503 87.7189 237.333L87.8039 238.043C86.7614 238.236 85.8348 238.267 84.5993 238.267H84.0355V233.711ZM92.028 233.618H92.8851V234.7C92.8851 235.966 93.5338 237.232 94.638 237.719L94.1438 238.406C93.3485 238.035 92.777 237.302 92.4682 236.406C92.1593 237.371 91.5724 238.159 90.7461 238.553L90.2365 237.85C91.3639 237.348 92.028 236.028 92.028 234.7V233.618ZM95.1245 233.047H95.9739V239.943H95.1245V233.047ZM101.372 233.062H102.221V235.796H103.264V236.499H102.221V239.935H101.372V233.062ZM96.8313 234.105H98.4297V233.163H99.2869V234.105H100.862V234.784H96.8313V234.105ZM98.8622 235.248C99.8583 235.248 100.584 235.912 100.584 236.862C100.584 237.812 99.8583 238.476 98.8622 238.476C97.8815 238.476 97.1479 237.812 97.1479 236.862C97.1479 235.912 97.8815 235.248 98.8622 235.248ZM98.8622 235.935C98.3371 235.935 97.9664 236.298 97.9664 236.862C97.9664 237.425 98.3371 237.781 98.8622 237.781C99.3872 237.781 99.7656 237.425 99.7656 236.862C99.7656 236.298 99.3872 235.935 98.8622 235.935ZM108.26 233.055H109.109V239.927H108.26V233.055ZM107.079 233.773C107.079 235.835 106.299 237.564 103.905 238.723L103.465 238.051C105.248 237.194 106.059 236.028 106.206 234.46H103.804V233.773H107.079Z" fill="white"/>
<path d="M140.023 86.4981C139.842 86.6885 139.845 86.9928 140.031 87.1738L143.381 90.4435C143.567 90.6245 143.718 90.5009 143.718 90.1685V83.2182C143.718 82.8858 143.57 82.7701 143.388 82.9602L140.023 86.4981Z" fill="#BCD7FF"/>
<path d="M208.52 86.1461C208.701 86.3365 208.697 86.6408 208.512 86.8218L205.162 90.0914C204.976 90.2724 204.824 90.1488 204.824 89.8164V82.8662C204.824 82.5338 204.973 82.418 205.154 82.6081L208.52 86.1461Z" fill="#BCD7FF"/>
<path d="M48.0786 133.094C48.6851 133.094 49.1119 132.386 49.1119 131.387C49.1119 130.387 48.6851 129.685 48.0786 129.685C47.4664 129.685 47.0396 130.387 47.0396 131.387C47.0396 132.386 47.4664 133.094 48.0786 133.094ZM48.0786 133.453C47.2306 133.453 46.6353 132.6 46.6353 131.387C46.6353 130.179 47.2306 129.326 48.0786 129.326C48.921 129.326 49.5163 130.179 49.5163 131.387C49.5163 132.6 48.921 133.453 48.0786 133.453ZM51.4317 133.094C52.0383 133.094 52.4651 132.386 52.4651 131.387C52.4651 130.387 52.0383 129.685 51.4317 129.685C50.8196 129.685 50.3928 130.387 50.3928 131.387C50.3928 132.386 50.8196 133.094 51.4317 133.094ZM51.4317 133.453C50.5837 133.453 49.9884 132.6 49.9884 131.387C49.9884 130.179 50.5837 129.326 51.4317 129.326C52.2741 129.326 52.8694 130.179 52.8694 131.387C52.8694 132.6 52.2741 133.453 51.4317 133.453Z" fill="#15254D"/>
<path d="M69.8206 133.094C70.4271 133.094 70.8539 132.386 70.8539 131.387C70.8539 130.387 70.4271 129.685 69.8206 129.685C69.2085 129.685 68.7816 130.387 68.7816 131.387C68.7816 132.386 69.2085 133.094 69.8206 133.094ZM69.8206 133.453C68.9726 133.453 68.3773 132.6 68.3773 131.387C68.3773 130.179 68.9726 129.326 69.8206 129.326C70.663 129.326 71.2583 130.179 71.2583 131.387C71.2583 132.6 70.663 133.453 69.8206 133.453ZM72.9547 129.365V133.414H72.5504V129.825L71.9214 130.263L71.6967 129.955L72.5504 129.365H72.9547Z" fill="#15254D"/>
<path d="M90.5626 133.094C91.1691 133.094 91.5959 132.386 91.5959 131.387C91.5959 130.387 91.1691 129.685 90.5626 129.685C89.9504 129.685 89.5236 130.387 89.5236 131.387C89.5236 132.386 89.9504 133.094 90.5626 133.094ZM90.5626 133.453C89.7146 133.453 89.1193 132.6 89.1193 131.387C89.1193 130.179 89.7146 129.326 90.5626 129.326C91.405 129.326 92.0003 130.179 92.0003 131.387C92.0003 132.6 91.405 133.453 90.5626 133.453ZM92.5005 133.06C93.3036 132.28 94.5223 131.297 94.5223 130.561C94.5223 130.039 94.1909 129.668 93.7136 129.668C93.371 129.668 93.0172 129.927 92.8543 130.297L92.4837 130.14C92.6971 129.651 93.2081 129.309 93.7136 129.309C94.4268 129.309 94.9266 129.825 94.9266 130.561C94.9266 131.415 93.8371 132.33 93.0509 133.06H94.994V133.42H92.5567L92.5005 133.06Z" fill="#15254D"/>
<path d="M112.305 133.094C112.911 133.094 113.338 132.386 113.338 131.387C113.338 130.387 112.911 129.685 112.305 129.685C111.692 129.685 111.266 130.387 111.266 131.387C111.266 132.386 111.692 133.094 112.305 133.094ZM112.305 133.453C111.457 133.453 110.861 132.6 110.861 131.387C110.861 130.179 111.457 129.326 112.305 129.326C113.147 129.326 113.742 130.179 113.742 131.387C113.742 132.6 113.147 133.453 112.305 133.453ZM116.275 131.319C116.635 131.538 116.831 131.931 116.831 132.268C116.831 132.959 116.292 133.448 115.523 133.448C114.759 133.448 114.22 132.959 114.22 132.268H114.624C114.624 132.751 114.995 133.088 115.523 133.088C116.056 133.088 116.427 132.751 116.427 132.274C116.427 131.819 116.056 131.499 115.534 131.499H115.237V131.128H115.534C116.023 131.128 116.371 130.836 116.371 130.421C116.371 129.988 116.034 129.685 115.557 129.685C115.074 129.685 114.737 129.994 114.737 130.432H114.332C114.332 129.781 114.838 129.326 115.557 129.326C116.27 129.326 116.775 129.781 116.775 130.432C116.775 130.735 116.601 131.1 116.275 131.319Z" fill="#15254D"/>
<path d="M134.047 133.094C134.653 133.094 135.08 132.386 135.08 131.387C135.08 130.387 134.653 129.685 134.047 129.685C133.434 129.685 133.008 130.387 133.008 131.387C133.008 132.386 133.434 133.094 134.047 133.094ZM134.047 133.453C133.199 133.453 132.603 132.6 132.603 131.387C132.603 130.179 133.199 129.326 134.047 129.326C134.889 129.326 135.484 130.179 135.484 131.387C135.484 132.6 134.889 133.453 134.047 133.453ZM138.197 129.359V131.915H138.798V132.274H138.197V133.414H137.793V132.274H136.018L135.962 131.915L137.804 129.359H138.197ZM136.462 131.915H137.793V130.067L136.462 131.915Z" fill="#15254D"/>
<path d="M155.789 133.094C156.395 133.094 156.822 132.386 156.822 131.387C156.822 130.387 156.395 129.685 155.789 129.685C155.176 129.685 154.75 130.387 154.75 131.387C154.75 132.386 155.176 133.094 155.789 133.094ZM155.789 133.453C154.941 133.453 154.345 132.6 154.345 131.387C154.345 130.179 154.941 129.326 155.789 129.326C156.631 129.326 157.226 130.179 157.226 131.387C157.226 132.6 156.631 133.453 155.789 133.453ZM158.305 131.499L157.901 131.432L158.03 129.354H160.052V129.713H158.417L158.339 130.971C158.546 130.853 158.788 130.78 159.007 130.78C159.81 130.78 160.377 131.331 160.377 132.111C160.377 132.909 159.81 133.47 159.007 133.47C158.384 133.47 157.85 133.049 157.71 132.454L158.103 132.364C158.198 132.791 158.569 133.088 159.007 133.088C159.574 133.088 159.973 132.684 159.973 132.111C159.973 131.555 159.574 131.162 159.007 131.162C158.765 131.162 158.473 131.302 158.305 131.499Z" fill="#15254D"/>
<path d="M177.531 133.094C178.137 133.094 178.564 132.386 178.564 131.387C178.564 130.387 178.137 129.685 177.531 129.685C176.918 129.685 176.492 130.387 176.492 131.387C176.492 132.386 176.918 133.094 177.531 133.094ZM177.531 133.453C176.683 133.453 176.087 132.6 176.087 131.387C176.087 130.179 176.683 129.326 177.531 129.326C178.373 129.326 178.968 130.179 178.968 131.387C178.968 132.6 178.373 133.453 177.531 133.453ZM180.771 133.1C181.327 133.1 181.715 132.701 181.715 132.128C181.715 131.555 181.327 131.151 180.771 131.151C180.232 131.151 179.85 131.555 179.85 132.128C179.85 132.701 180.232 133.1 180.771 133.1ZM179.446 132.128C179.446 131.842 179.536 131.583 179.654 131.375L180.805 129.359H181.271L180.423 130.831C180.536 130.808 180.659 130.791 180.783 130.791C181.569 130.791 182.119 131.342 182.119 132.128C182.119 132.909 181.569 133.459 180.783 133.459C179.996 133.459 179.446 132.909 179.446 132.128Z" fill="#15254D"/>
<path d="M199.273 133.094C199.879 133.094 200.306 132.386 200.306 131.387C200.306 130.387 199.879 129.685 199.273 129.685C198.66 129.685 198.234 130.387 198.234 131.387C198.234 132.386 198.66 133.094 199.273 133.094ZM199.273 133.453C198.425 133.453 197.829 132.6 197.829 131.387C197.829 130.179 198.425 129.326 199.273 129.326C200.115 129.326 200.71 130.179 200.71 131.387C200.71 132.6 200.115 133.453 199.273 133.453ZM202.036 133.408H201.598L203.232 129.719H201.261V129.359H203.614L203.67 129.719L202.036 133.408Z" fill="#15254D"/>
<path d="M221.015 133.094C221.621 133.094 222.048 132.386 222.048 131.387C222.048 130.387 221.621 129.685 221.015 129.685C220.402 129.685 219.976 130.387 219.976 131.387C219.976 132.386 220.402 133.094 221.015 133.094ZM221.015 133.453C220.167 133.453 219.571 132.6 219.571 131.387C219.571 130.179 220.167 129.326 221.015 129.326C221.857 129.326 222.452 130.179 222.452 131.387C222.452 132.6 221.857 133.453 221.015 133.453ZM224.25 133.105C224.789 133.105 225.165 132.757 225.165 132.263C225.165 131.791 224.789 131.46 224.25 131.46C223.711 131.46 223.334 131.791 223.334 132.263C223.334 132.757 223.711 133.105 224.25 133.105ZM223.441 130.387C223.441 130.803 223.772 131.095 224.25 131.095C224.727 131.095 225.064 130.803 225.064 130.387C225.064 129.949 224.727 129.646 224.25 129.646C223.772 129.646 223.441 129.949 223.441 130.387ZM224.918 131.269C225.3 131.493 225.57 131.898 225.57 132.252C225.57 132.965 225.025 133.465 224.25 133.465C223.475 133.465 222.93 132.965 222.93 132.252C222.93 131.898 223.2 131.493 223.587 131.269C223.261 131.05 223.037 130.69 223.037 130.398C223.037 129.747 223.537 129.286 224.25 129.286C224.963 129.286 225.468 129.747 225.468 130.398C225.468 130.69 225.244 131.05 224.918 131.269Z" fill="#15254D"/>
<path d="M242.757 133.094C243.363 133.094 243.79 132.386 243.79 131.387C243.79 130.387 243.363 129.685 242.757 129.685C242.144 129.685 241.718 130.387 241.718 131.387C241.718 132.386 242.144 133.094 242.757 133.094ZM242.757 133.453C241.909 133.453 241.313 132.6 241.313 131.387C241.313 130.179 241.909 129.326 242.757 129.326C243.599 129.326 244.194 130.179 244.194 131.387C244.194 132.6 243.599 133.453 242.757 133.453ZM246.02 129.674C245.464 129.674 245.076 130.073 245.076 130.645C245.076 131.218 245.464 131.623 246.02 131.623C246.559 131.623 246.941 131.218 246.941 130.645C246.941 130.073 246.559 129.674 246.02 129.674ZM247.345 130.645C247.345 130.932 247.255 131.19 247.137 131.398L245.986 133.414H245.52L246.368 131.943C246.256 131.965 246.132 131.982 246.009 131.982C245.222 131.982 244.672 131.432 244.672 130.645C244.672 129.865 245.222 129.314 246.009 129.314C246.795 129.314 247.345 129.865 247.345 130.645Z" fill="#15254D"/>
<path d="M264.28 129.365V133.414H263.875V129.825L263.246 130.263L263.022 129.955L263.875 129.365H264.28ZM266.453 133.094C267.06 133.094 267.487 132.386 267.487 131.387C267.487 130.387 267.06 129.685 266.453 129.685C265.841 129.685 265.414 130.387 265.414 131.387C265.414 132.386 265.841 133.094 266.453 133.094ZM266.453 133.453C265.605 133.453 265.01 132.6 265.01 131.387C265.01 130.179 265.605 129.326 266.453 129.326C267.296 129.326 267.891 130.179 267.891 131.387C267.891 132.6 267.296 133.453 266.453 133.453Z" fill="#15254D"/>
<path d="M285.022 129.365V133.414H284.617V129.825L283.988 130.263L283.764 129.955L284.617 129.365H285.022ZM287.201 129.365V133.414H286.797V129.825L286.168 130.263L285.943 129.955L286.797 129.365H287.201Z" fill="#15254D"/>
<path d="M304.764 129.365V133.414H304.359V129.825L303.73 130.263L303.506 129.955L304.359 129.365H304.764ZM305.522 133.06C306.325 132.28 307.544 131.297 307.544 130.561C307.544 130.039 307.212 129.668 306.735 129.668C306.392 129.668 306.039 129.927 305.876 130.297L305.505 130.14C305.719 129.651 306.23 129.309 306.735 129.309C307.448 129.309 307.948 129.825 307.948 130.561C307.948 131.415 306.859 132.33 306.072 133.06H308.016V133.42H305.578L305.522 133.06Z" fill="#15254D"/>
<rect x="49.4032" y="138.208" width="252.193" height="21.9375" rx="4.65075" fill="white" stroke="#5786FF" stroke-width="0.5265"/>
<line x1="52.7377" y1="137.944" x2="52.7377" y2="160.408" stroke="#5786FF" stroke-width="0.1755" stroke-dasharray="0.7 0.7"/>
<line x1="56.2477" y1="137.944" x2="56.2477" y2="160.408" stroke="#5786FF" stroke-width="0.1755" stroke-dasharray="0.7 0.7"/>
<line x1="59.7577" y1="137.944" x2="59.7577" y2="160.408" stroke="#5786FF" stroke-width="0.1755" stroke-dasharray="0.7 0.7"/>
<line x1="63.2677" y1="137.944" x2="63.2677" y2="160.408" stroke="#5786FF" stroke-width="0.1755" stroke-dasharray="0.7 0.7"/>
<line x1="66.7777" y1="137.944" x2="66.7777" y2="160.408" stroke="#5786FF" stroke-width="0.1755" stroke-dasharray="0.7 0.7"/>
<line x1="70.3755" y1="137.944" x2="70.3755" y2="160.408" stroke="#5786FF" stroke-width="0.351"/>
<line x1="73.7976" y1="137.944" x2="73.7976" y2="160.408" stroke="#5786FF" stroke-width="0.1755" stroke-dasharray="0.7 0.7"/>
<line x1="77.3077" y1="137.944" x2="77.3077" y2="160.408" stroke="#5786FF" stroke-width="0.1755" stroke-dasharray="0.7 0.7"/>
<line x1="80.8177" y1="137.944" x2="80.8177" y2="160.408" stroke="#5786FF" stroke-width="0.1755" stroke-dasharray="0.7 0.7"/>
<line x1="84.3277" y1="137.944" x2="84.3277" y2="160.408" stroke="#5786FF" stroke-width="0.1755" stroke-dasharray="0.7 0.7"/>
<line x1="87.8377" y1="137.944" x2="87.8377" y2="160.408" stroke="#5786FF" stroke-width="0.1755" stroke-dasharray="0.7 0.7"/>
<line x1="91.4355" y1="137.944" x2="91.4355" y2="160.408" stroke="#5786FF" stroke-width="0.351"/>
<line x1="94.8577" y1="137.944" x2="94.8577" y2="160.408" stroke="#5786FF" stroke-width="0.1755" stroke-dasharray="0.7 0.7"/>
<line x1="98.3677" y1="137.944" x2="98.3677" y2="160.408" stroke="#5786FF" stroke-width="0.1755" stroke-dasharray="0.7 0.7"/>
<line x1="101.878" y1="137.944" x2="101.878" y2="160.408" stroke="#5786FF" stroke-width="0.1755" stroke-dasharray="0.7 0.7"/>
<line x1="105.388" y1="137.944" x2="105.388" y2="160.408" stroke="#5786FF" stroke-width="0.1755" stroke-dasharray="0.7 0.7"/>
<line x1="108.898" y1="137.944" x2="108.898" y2="160.408" stroke="#5786FF" stroke-width="0.1755" stroke-dasharray="0.7 0.7"/>
<line x1="112.495" y1="137.944" x2="112.495" y2="160.408" stroke="#5786FF" stroke-width="0.351"/>
<line x1="115.918" y1="137.944" x2="115.918" y2="160.408" stroke="#5786FF" stroke-width="0.1755" stroke-dasharray="0.7 0.7"/>
<line x1="119.428" y1="137.944" x2="119.428" y2="160.408" stroke="#5786FF" stroke-width="0.1755" stroke-dasharray="0.7 0.7"/>
<line x1="122.938" y1="137.944" x2="122.938" y2="160.408" stroke="#5786FF" stroke-width="0.1755" stroke-dasharray="0.7 0.7"/>
<line x1="126.448" y1="137.944" x2="126.448" y2="160.408" stroke="#5786FF" stroke-width="0.1755" stroke-dasharray="0.7 0.7"/>
<line x1="129.958" y1="137.944" x2="129.958" y2="160.408" stroke="#5786FF" stroke-width="0.1755" stroke-dasharray="0.7 0.7"/>
<line x1="133.555" y1="137.944" x2="133.555" y2="160.408" stroke="#5786FF" stroke-width="0.351"/>
<line x1="136.978" y1="137.944" x2="136.978" y2="160.408" stroke="#5786FF" stroke-width="0.1755" stroke-dasharray="0.7 0.7"/>
<line x1="140.488" y1="137.944" x2="140.488" y2="160.408" stroke="#5786FF" stroke-width="0.1755" stroke-dasharray="0.7 0.7"/>
<line x1="143.998" y1="137.944" x2="143.998" y2="160.408" stroke="#5786FF" stroke-width="0.1755" stroke-dasharray="0.7 0.7"/>
<line x1="147.508" y1="137.944" x2="147.508" y2="160.408" stroke="#5786FF" stroke-width="0.1755" stroke-dasharray="0.7 0.7"/>
<line x1="151.018" y1="137.944" x2="151.018" y2="160.408" stroke="#5786FF" stroke-width="0.1755" stroke-dasharray="0.7 0.7"/>
<line x1="154.615" y1="137.944" x2="154.615" y2="160.408" stroke="#5786FF" stroke-width="0.351"/>
<line x1="158.038" y1="137.944" x2="158.038" y2="160.408" stroke="#5786FF" stroke-width="0.1755" stroke-dasharray="0.7 0.7"/>
<line x1="161.548" y1="137.944" x2="161.548" y2="160.408" stroke="#5786FF" stroke-width="0.1755" stroke-dasharray="0.7 0.7"/>
<line x1="165.058" y1="137.944" x2="165.058" y2="160.408" stroke="#5786FF" stroke-width="0.1755" stroke-dasharray="0.7 0.7"/>
<line x1="168.568" y1="137.944" x2="168.568" y2="160.408" stroke="#5786FF" stroke-width="0.1755" stroke-dasharray="0.7 0.7"/>
<line x1="172.078" y1="137.944" x2="172.078" y2="160.408" stroke="#5786FF" stroke-width="0.1755" stroke-dasharray="0.7 0.7"/>
<line x1="175.675" y1="137.944" x2="175.675" y2="160.408" stroke="#5786FF" stroke-width="0.351"/>
<line x1="179.098" y1="137.944" x2="179.098" y2="160.408" stroke="#5786FF" stroke-width="0.1755" stroke-dasharray="0.7 0.7"/>
<line x1="182.608" y1="137.944" x2="182.608" y2="160.408" stroke="#5786FF" stroke-width="0.1755" stroke-dasharray="0.7 0.7"/>
<line x1="186.118" y1="137.944" x2="186.118" y2="160.408" stroke="#5786FF" stroke-width="0.1755" stroke-dasharray="0.7 0.7"/>
<line x1="189.628" y1="137.944" x2="189.628" y2="160.408" stroke="#5786FF" stroke-width="0.1755" stroke-dasharray="0.7 0.7"/>
<line x1="193.138" y1="137.944" x2="193.138" y2="160.408" stroke="#5786FF" stroke-width="0.1755" stroke-dasharray="0.7 0.7"/>
<line x1="196.735" y1="137.944" x2="196.735" y2="160.408" stroke="#5786FF" stroke-width="0.351"/>
<line x1="200.158" y1="137.944" x2="200.158" y2="160.408" stroke="#5786FF" stroke-width="0.1755" stroke-dasharray="0.7 0.7"/>
<line x1="203.668" y1="137.944" x2="203.668" y2="160.408" stroke="#5786FF" stroke-width="0.1755" stroke-dasharray="0.7 0.7"/>
<line x1="207.178" y1="137.944" x2="207.178" y2="160.408" stroke="#5786FF" stroke-width="0.1755" stroke-dasharray="0.7 0.7"/>
<line x1="210.688" y1="137.944" x2="210.688" y2="160.408" stroke="#5786FF" stroke-width="0.1755" stroke-dasharray="0.7 0.7"/>
<line x1="214.198" y1="137.944" x2="214.198" y2="160.408" stroke="#5786FF" stroke-width="0.1755" stroke-dasharray="0.7 0.7"/>
<line x1="217.795" y1="137.944" x2="217.795" y2="160.408" stroke="#5786FF" stroke-width="0.351"/>
<line x1="221.218" y1="137.944" x2="221.218" y2="160.408" stroke="#5786FF" stroke-width="0.1755" stroke-dasharray="0.7 0.7"/>
<line x1="224.728" y1="137.944" x2="224.728" y2="160.408" stroke="#5786FF" stroke-width="0.1755" stroke-dasharray="0.7 0.7"/>
<line x1="228.238" y1="137.944" x2="228.238" y2="160.408" stroke="#5786FF" stroke-width="0.1755" stroke-dasharray="0.7 0.7"/>
<line x1="231.748" y1="137.944" x2="231.748" y2="160.408" stroke="#5786FF" stroke-width="0.1755" stroke-dasharray="0.7 0.7"/>
<line x1="235.258" y1="137.944" x2="235.258" y2="160.408" stroke="#5786FF" stroke-width="0.1755" stroke-dasharray="0.7 0.7"/>
<path d="M47.8596 176.398V180.447H47.4552V176.859L46.8262 177.297L46.6016 176.988L47.4552 176.398H47.8596ZM48.618 180.093C49.4211 179.313 50.6398 178.33 50.6398 177.594C50.6398 177.072 50.3084 176.701 49.831 176.701C49.4885 176.701 49.1347 176.96 48.9718 177.33L48.6011 177.173C48.8146 176.685 49.3256 176.342 49.831 176.342C50.5443 176.342 51.0441 176.859 51.0441 177.594C51.0441 178.448 49.9546 179.363 49.1684 180.093H51.1115V180.453H48.6742L48.618 180.093Z" fill="#15254D"/>
<path d="M69.3036 176.398V180.447H68.8992V176.859L68.2702 177.297L68.0456 176.988L68.8992 176.398H69.3036ZM72.095 178.352C72.4544 178.572 72.651 178.965 72.651 179.302C72.651 179.992 72.1118 180.481 71.3424 180.481C70.5787 180.481 70.0395 179.992 70.0395 179.302H70.4439C70.4439 179.785 70.8145 180.122 71.3424 180.122C71.876 180.122 72.2466 179.785 72.2466 179.307C72.2466 178.852 71.876 178.532 71.3537 178.532H71.056V178.162H71.3537C71.8423 178.162 72.1905 177.87 72.1905 177.454C72.1905 177.022 71.8535 176.718 71.3761 176.718C70.8932 176.718 70.5562 177.027 70.5562 177.465H70.1518C70.1518 176.814 70.6573 176.359 71.3761 176.359C72.0894 176.359 72.5948 176.814 72.5948 177.465C72.5948 177.768 72.4207 178.133 72.095 178.352Z" fill="#15254D"/>
<path d="M90.7476 176.398V180.447H90.3432V176.859L89.7142 177.297L89.4896 176.988L90.3432 176.398H90.7476ZM93.7187 176.393V178.948H94.3196V179.307H93.7187V180.447H93.3143V179.307H91.5397L91.4835 178.948L93.3256 176.393H93.7187ZM91.9834 178.948H93.3143V177.1L91.9834 178.948Z" fill="#15254D"/>
<path d="M112.192 176.398V180.447H111.787V176.859L111.158 177.297L110.934 176.988L111.787 176.398H112.192ZM113.528 178.532L113.124 178.465L113.253 176.387H115.275V176.746H113.641L113.562 178.004C113.77 177.886 114.011 177.813 114.23 177.813C115.034 177.813 115.601 178.364 115.601 179.144C115.601 179.942 115.034 180.503 114.23 180.503C113.607 180.503 113.074 180.082 112.933 179.487L113.326 179.397C113.422 179.824 113.792 180.122 114.23 180.122C114.798 180.122 115.196 179.717 115.196 179.144C115.196 178.588 114.798 178.195 114.23 178.195C113.989 178.195 113.697 178.336 113.528 178.532Z" fill="#15254D"/>
<path d="M133.636 176.398V180.447H133.231V176.859L132.602 177.297L132.378 176.988L133.231 176.398H133.636ZM135.697 180.133C136.253 180.133 136.64 179.734 136.64 179.161C136.64 178.588 136.253 178.184 135.697 178.184C135.158 178.184 134.776 178.588 134.776 179.161C134.776 179.734 135.158 180.133 135.697 180.133ZM134.372 179.161C134.372 178.875 134.461 178.616 134.579 178.409L135.731 176.393H136.197L135.349 177.864C135.461 177.841 135.585 177.825 135.708 177.825C136.494 177.825 137.045 178.375 137.045 179.161C137.045 179.942 136.494 180.492 135.708 180.492C134.922 180.492 134.372 179.942 134.372 179.161Z" fill="#15254D"/>
<path d="M155.08 176.398V180.447H154.675V176.859L154.046 177.297L153.822 176.988L154.675 176.398H155.08ZM156.664 180.442H156.225L157.86 176.752H155.889V176.393H158.242L158.298 176.752L156.664 180.442Z" fill="#15254D"/>
<path d="M176.524 176.398V180.447H176.119V176.859L175.49 177.297L175.266 176.988L176.119 176.398H176.524ZM178.579 180.138C179.118 180.138 179.495 179.79 179.495 179.296C179.495 178.824 179.118 178.493 178.579 178.493C178.04 178.493 177.664 178.824 177.664 179.296C177.664 179.79 178.04 180.138 178.579 180.138ZM177.771 177.42C177.771 177.836 178.102 178.128 178.579 178.128C179.057 178.128 179.394 177.836 179.394 177.42C179.394 176.982 179.057 176.679 178.579 176.679C178.102 176.679 177.771 176.982 177.771 177.42ZM179.248 178.302C179.629 178.527 179.899 178.931 179.899 179.285C179.899 179.998 179.354 180.498 178.579 180.498C177.804 180.498 177.26 179.998 177.26 179.285C177.26 178.931 177.529 178.527 177.917 178.302C177.591 178.083 177.366 177.724 177.366 177.431C177.366 176.78 177.866 176.32 178.579 176.32C179.293 176.32 179.798 176.78 179.798 177.431C179.798 177.724 179.573 178.083 179.248 178.302Z" fill="#15254D"/>
<path d="M197.968 176.398V180.447H197.563V176.859L196.934 177.297L196.71 176.988L197.563 176.398H197.968ZM200.051 176.707C199.495 176.707 199.108 177.106 199.108 177.679C199.108 178.251 199.495 178.656 200.051 178.656C200.591 178.656 200.972 178.251 200.972 177.679C200.972 177.106 200.591 176.707 200.051 176.707ZM201.377 177.679C201.377 177.965 201.287 178.223 201.169 178.431L200.018 180.447H199.552L200.4 178.976C200.287 178.998 200.164 179.015 200.04 179.015C199.254 179.015 198.704 178.465 198.704 177.679C198.704 176.898 199.254 176.348 200.04 176.348C200.826 176.348 201.377 176.898 201.377 177.679Z" fill="#15254D"/>
<path d="M218.215 180.093C219.018 179.313 220.237 178.33 220.237 177.594C220.237 177.072 219.906 176.701 219.428 176.701C219.086 176.701 218.732 176.96 218.569 177.33L218.199 177.173C218.412 176.685 218.923 176.342 219.428 176.342C220.142 176.342 220.641 176.859 220.641 177.594C220.641 178.448 219.552 179.363 218.766 180.093H220.709V180.453H218.272L218.215 180.093ZM222.622 180.127C223.228 180.127 223.655 179.42 223.655 178.42C223.655 177.42 223.228 176.718 222.622 176.718C222.01 176.718 221.583 177.42 221.583 178.42C221.583 179.42 222.01 180.127 222.622 180.127ZM222.622 180.487C221.774 180.487 221.178 179.633 221.178 178.42C221.178 177.212 221.774 176.359 222.622 176.359C223.464 176.359 224.059 177.212 224.059 178.42C224.059 179.633 223.464 180.487 222.622 180.487Z" fill="#15254D"/>
<path d="M240.659 180.093C241.462 179.313 242.681 178.33 242.681 177.594C242.681 177.072 242.35 176.701 241.872 176.701C241.53 176.701 241.176 176.96 241.013 177.33L240.643 177.173C240.856 176.685 241.367 176.342 241.872 176.342C242.586 176.342 243.085 176.859 243.085 177.594C243.085 178.448 241.996 179.363 241.21 180.093H243.153V180.453H240.716L240.659 180.093ZM244.847 176.398V180.447H244.442V176.859L243.813 177.297L243.589 176.988L244.442 176.398H244.847Z" fill="#15254D"/>
<path d="M262.103 180.093C262.906 179.313 264.125 178.33 264.125 177.594C264.125 177.072 263.794 176.701 263.316 176.701C262.974 176.701 262.62 176.96 262.457 177.33L262.087 177.173C262.3 176.685 262.811 176.342 263.316 176.342C264.03 176.342 264.529 176.859 264.529 177.594C264.529 178.448 263.44 179.363 262.654 180.093H264.597V180.453H262.16L262.103 180.093ZM265.095 180.093C265.898 179.313 267.116 178.33 267.116 177.594C267.116 177.072 266.785 176.701 266.308 176.701C265.965 176.701 265.611 176.96 265.448 177.33L265.078 177.173C265.291 176.685 265.802 176.342 266.308 176.342C267.021 176.342 267.521 176.859 267.521 177.594C267.521 178.448 266.431 179.363 265.645 180.093H267.588V180.453H265.151L265.095 180.093Z" fill="#15254D"/>
<path d="M284.547 180.093C285.35 179.313 286.569 178.33 286.569 177.594C286.569 177.072 286.238 176.701 285.76 176.701C285.418 176.701 285.064 176.96 284.901 177.33L284.531 177.173C284.744 176.685 285.255 176.342 285.76 176.342C286.474 176.342 286.973 176.859 286.973 177.594C286.973 178.448 285.884 179.363 285.098 180.093H287.041V180.453H284.604L284.547 180.093ZM289.572 178.352C289.931 178.572 290.128 178.965 290.128 179.302C290.128 179.992 289.588 180.481 288.819 180.481C288.055 180.481 287.516 179.992 287.516 179.302H287.92C287.92 179.785 288.291 180.122 288.819 180.122C289.353 180.122 289.723 179.785 289.723 179.307C289.723 178.852 289.353 178.532 288.83 178.532H288.533V178.162H288.83C289.319 178.162 289.667 177.87 289.667 177.454C289.667 177.022 289.33 176.718 288.853 176.718C288.37 176.718 288.033 177.027 288.033 177.465H287.628C287.628 176.814 288.134 176.359 288.853 176.359C289.566 176.359 290.071 176.814 290.071 177.465C290.071 177.768 289.897 178.133 289.572 178.352Z" fill="#15254D"/>
<path d="M306.991 180.093C307.794 179.313 309.013 178.33 309.013 177.594C309.013 177.072 308.682 176.701 308.204 176.701C307.862 176.701 307.508 176.96 307.345 177.33L306.975 177.173C307.188 176.685 307.699 176.342 308.204 176.342C308.918 176.342 309.417 176.859 309.417 177.594C309.417 178.448 308.328 179.363 307.542 180.093H309.485V180.453H307.048L306.991 180.093ZM312.195 176.393V178.948H312.796V179.307H312.195V180.447H311.791V179.307H310.016L309.96 178.948L311.802 176.393H312.195ZM310.46 178.948H311.791V177.1L310.46 178.948Z" fill="#15254D"/>
<rect x="49.4032" y="185.24" width="252.193" height="21.9375" rx="4.65075" fill="white" stroke="#5786FF" stroke-width="0.5265"/>
<line x1="52.7377" y1="184.977" x2="52.7377" y2="207.441" stroke="#5786FF" stroke-width="0.1755" stroke-dasharray="0.7 0.7"/>
<line x1="56.2477" y1="184.977" x2="56.2477" y2="207.441" stroke="#5786FF" stroke-width="0.1755" stroke-dasharray="0.7 0.7"/>
<line x1="59.7577" y1="184.977" x2="59.7577" y2="207.441" stroke="#5786FF" stroke-width="0.1755" stroke-dasharray="0.7 0.7"/>
<line x1="63.2677" y1="184.977" x2="63.2677" y2="207.441" stroke="#5786FF" stroke-width="0.1755" stroke-dasharray="0.7 0.7"/>
<line x1="66.7777" y1="184.977" x2="66.7777" y2="207.441" stroke="#5786FF" stroke-width="0.1755" stroke-dasharray="0.7 0.7"/>
<line x1="70.3755" y1="184.977" x2="70.3755" y2="207.441" stroke="#5786FF" stroke-width="0.351"/>
<line x1="73.7976" y1="184.977" x2="73.7976" y2="207.441" stroke="#5786FF" stroke-width="0.1755" stroke-dasharray="0.7 0.7"/>
<line x1="77.3077" y1="184.977" x2="77.3077" y2="207.441" stroke="#5786FF" stroke-width="0.1755" stroke-dasharray="0.7 0.7"/>
<line x1="80.8177" y1="184.977" x2="80.8177" y2="207.441" stroke="#5786FF" stroke-width="0.1755" stroke-dasharray="0.7 0.7"/>
<line x1="84.3277" y1="184.977" x2="84.3277" y2="207.441" stroke="#5786FF" stroke-width="0.1755" stroke-dasharray="0.7 0.7"/>
<line x1="87.8377" y1="184.977" x2="87.8377" y2="207.441" stroke="#5786FF" stroke-width="0.1755" stroke-dasharray="0.7 0.7"/>
<line x1="270.358" y1="184.977" x2="270.358" y2="207.441" stroke="#5786FF" stroke-width="0.1755" stroke-dasharray="0.7 0.7"/>
<line x1="273.868" y1="184.977" x2="273.868" y2="207.441" stroke="#5786FF" stroke-width="0.1755" stroke-dasharray="0.7 0.7"/>
<line x1="277.378" y1="184.977" x2="277.378" y2="207.441" stroke="#5786FF" stroke-width="0.1755" stroke-dasharray="0.7 0.7"/>
<line x1="280.975" y1="184.977" x2="280.975" y2="207.441" stroke="#5786FF" stroke-width="0.351"/>
<line x1="284.398" y1="184.977" x2="284.398" y2="207.441" stroke="#5786FF" stroke-width="0.1755" stroke-dasharray="0.7 0.7"/>
<line x1="287.908" y1="184.977" x2="287.908" y2="207.441" stroke="#5786FF" stroke-width="0.1755" stroke-dasharray="0.7 0.7"/>
<line x1="291.418" y1="184.977" x2="291.418" y2="207.441" stroke="#5786FF" stroke-width="0.1755" stroke-dasharray="0.7 0.7"/>
<line x1="294.928" y1="184.977" x2="294.928" y2="207.441" stroke="#5786FF" stroke-width="0.1755" stroke-dasharray="0.7 0.7"/>
<line x1="298.438" y1="184.977" x2="298.438" y2="207.441" stroke="#5786FF" stroke-width="0.1755" stroke-dasharray="0.7 0.7"/>
<mask id="path-116-inside-1_2213_4679" fill="white">
<path d="M147.771 107.758C147.771 105.044 149.971 102.844 152.685 102.844H154.791V116.884H152.685C149.971 116.884 147.771 114.684 147.771 111.97V107.758Z"/>
</mask>
<path d="M147.771 107.758C147.771 105.044 149.971 102.844 152.685 102.844H154.791V116.884H152.685C149.971 116.884 147.771 114.684 147.771 111.97V107.758Z" fill="white"/>
<path d="M147.244 107.758C147.244 104.754 149.68 102.318 152.685 102.318H154.791V103.371H152.685C150.262 103.371 148.297 105.335 148.297 107.758H147.244ZM154.791 117.411H152.685C149.68 117.411 147.244 114.975 147.244 111.97H148.297C148.297 114.393 150.262 116.358 152.685 116.358H154.791V117.411ZM152.685 117.411C149.68 117.411 147.244 114.975 147.244 111.97V107.758C147.244 104.754 149.68 102.318 152.685 102.318V103.371C150.262 103.371 148.297 105.335 148.297 107.758V111.97C148.297 114.393 150.262 116.358 152.685 116.358V117.411ZM154.791 102.844V116.884V102.844Z" fill="#5786FF" mask="url(#path-116-inside-1_2213_4679)"/>
<mask id="path-118-inside-2_2213_4679" fill="white">
<path d="M154.791 102.844H161.811V116.884H154.791V102.844Z"/>
</mask>
<path d="M154.791 102.844H161.811V116.884H154.791V102.844Z" fill="#E2EAFF"/>
<path d="M154.791 103.371H161.811V102.318H154.791V103.371ZM161.811 116.358H154.791V117.411H161.811V116.358Z" fill="#5786FF" mask="url(#path-118-inside-2_2213_4679)"/>
<mask id="path-120-inside-3_2213_4679" fill="white">
<path d="M161.811 102.844H168.831V116.884H161.811V102.844Z"/>
</mask>
<path d="M161.811 102.844H168.831V116.884H161.811V102.844Z" fill="#ACC3FF"/>
<path d="M161.811 103.371H168.831V102.318H161.811V103.371ZM168.831 116.358H161.811V117.411H168.831V116.358Z" fill="#5786FF" mask="url(#path-120-inside-3_2213_4679)"/>
<mask id="path-122-inside-4_2213_4679" fill="white">
<path d="M168.831 102.844H175.851V116.884H168.831V102.844Z"/>
</mask>
<path d="M168.831 102.844H175.851V116.884H168.831V102.844Z" fill="#80A3FF"/>
<path d="M168.831 103.371H175.851V102.318H168.831V103.371ZM175.851 116.358H168.831V117.411H175.851V116.358Z" fill="#5786FF" mask="url(#path-122-inside-4_2213_4679)"/>
<mask id="path-124-inside-5_2213_4679" fill="white">
<path d="M175.851 102.844H182.871V116.884H175.851V102.844Z"/>
</mask>
<path d="M175.851 102.844H182.871V116.884H175.851V102.844Z" fill="#5786FF"/>
<path d="M175.851 103.371H182.871V102.318H175.851V103.371ZM182.871 116.358H175.851V117.411H182.871V116.358Z" fill="#5786FF" mask="url(#path-124-inside-5_2213_4679)"/>
<mask id="path-126-inside-6_2213_4679" fill="white">
<path d="M182.871 102.844H189.891V116.884H182.871V102.844Z"/>
</mask>
<path d="M182.871 102.844H189.891V116.884H182.871V102.844Z" fill="#1556FF"/>
<path d="M182.871 103.371H189.891V102.318H182.871V103.371ZM189.891 116.358H182.871V117.411H189.891V116.358Z" fill="#5786FF" mask="url(#path-126-inside-6_2213_4679)"/>
<mask id="path-128-inside-7_2213_4679" fill="white">
<path d="M189.891 102.844H196.911V116.884H189.891V102.844Z"/>
</mask>
<path d="M189.891 102.844H196.911V116.884H189.891V102.844Z" fill="#0042ED"/>
<path d="M189.891 103.371H196.911V102.318H189.891V103.371ZM196.911 116.358H189.891V117.411H196.911V116.358Z" fill="#5786FF" mask="url(#path-128-inside-7_2213_4679)"/>
<mask id="path-130-inside-8_2213_4679" fill="white">
<path d="M196.911 102.844H199.017C201.731 102.844 203.931 105.044 203.931 107.758V111.97C203.931 114.684 201.731 116.884 199.017 116.884H196.911V102.844Z"/>
</mask>
<path d="M196.911 102.844H199.017C201.731 102.844 203.931 105.044 203.931 107.758V111.97C203.931 114.684 201.731 116.884 199.017 116.884H196.911V102.844Z" fill="#003EDF"/>
<path d="M196.911 102.318H199.017C202.022 102.318 204.457 104.754 204.457 107.758H203.404C203.404 105.335 201.44 103.371 199.017 103.371H196.911V102.318ZM204.457 111.97C204.457 114.975 202.022 117.411 199.017 117.411H196.911V116.358H199.017C201.44 116.358 203.404 114.393 203.404 111.97H204.457ZM196.911 116.884V102.844V116.884ZM199.017 102.318C202.022 102.318 204.457 104.754 204.457 107.758V111.97C204.457 114.975 202.022 117.411 199.017 117.411L199.017 116.358C201.44 116.358 203.404 114.393 203.404 111.97V107.758C203.404 105.335 201.44 103.371 199.017 103.371L199.017 102.318Z" fill="#5786FF" mask="url(#path-130-inside-8_2213_4679)"/>
<path d="M238.68 138.428H296.612C299.326 138.428 301.526 140.628 301.526 143.342V154.908C301.526 157.622 299.326 159.822 296.612 159.822H238.68V138.428Z" fill="#E2EAFF"/>
<rect x="291.497" y="138.428" width="6.68571" height="21.3943" fill="#80A3FF"/>
<rect x="260.074" y="138.428" width="31.4229" height="21.3943" fill="#ACC3FF"/>
<rect x="90.9257" y="185.228" width="94.9371" height="22.0629" fill="#ACC3FF"/>
<rect x="173.829" y="185.228" width="94.9371" height="22.0629" fill="#1556FF"/>
<rect x="259.406" y="185.228" width="9.36" height="22.0629" fill="#F3F6FF"/>
<rect x="227.983" y="185.228" width="31.4229" height="22.0629" fill="#E2EAFF"/>
<defs>
<filter id="filter0_d_2213_4679" x="165.321" y="15.0942" width="20.358" height="20.3578" filterUnits="userSpaceOnUse" color-interpolation-filters="sRGB">
<feFlood flood-opacity="0" result="BackgroundImageFix"/>
<feColorMatrix in="SourceAlpha" type="matrix" values="0 0 0 0 0 0 0 0 0 0 0 0 0 0 0 0 0 0 127 0" result="hardAlpha"/>
<feOffset dy="1.404"/>
<feGaussianBlur stdDeviation="0.702"/>
<feComposite in2="hardAlpha" operator="out"/>
<feColorMatrix type="matrix" values="0 0 0 0 0 0 0 0 0 0 0 0 0 0 0 0 0 0 0.25 0"/>
<feBlend mode="normal" in2="BackgroundImageFix" result="effect1_dropShadow_2213_4679"/>
<feBlend mode="normal" in="SourceGraphic" in2="effect1_dropShadow_2213_4679" result="shape"/>
</filter>
<clipPath id="clip0_2213_4679">
<rect width="17.55" height="17.55" fill="white" transform="translate(166.725 15.0942)"/>
</clipPath>
</defs>
</svg>
