<svg width="28" height="28" viewBox="0 0 28 28" fill="none" xmlns="http://www.w3.org/2000/svg">
<path d="M11.6664 18.6667H18.6664M23.3331 7.00008V21.0001C23.3331 21.6189 23.0873 22.2124 22.6497 22.65C22.2121 23.0876 21.6186 23.3334 20.9998 23.3334H9.33309C8.71425 23.3334 8.12076 23.0876 7.68317 22.65C7.24559 22.2124 6.99976 21.6189 6.99976 21.0001V7.00008C6.99976 6.38124 7.24559 5.78775 7.68317 5.35017C8.12076 4.91258 8.71425 4.66675 9.33309 4.66675H20.9998C21.6186 4.66675 22.2121 4.91258 22.6497 5.35017C23.0873 5.78775 23.3331 6.38124 23.3331 7.00008Z" stroke="currentColor" stroke-width="2.33333" stroke-linecap="round" stroke-linejoin="round"/>
<path d="M4.6665 9.33325H8.1665M4.6665 13.9999H8.1665M4.6665 18.6666H8.1665M12.8332 12.8333C12.8332 13.4521 13.079 14.0456 13.5166 14.4832C13.9542 14.9208 14.5477 15.1666 15.1665 15.1666C15.7853 15.1666 16.3788 14.9208 16.8164 14.4832C17.254 14.0456 17.4998 13.4521 17.4998 12.8333C17.4998 12.2144 17.254 11.6209 16.8164 11.1833C16.3788 10.7458 15.7853 10.4999 15.1665 10.4999C14.5477 10.4999 13.9542 10.7458 13.5166 11.1833C13.079 11.6209 12.8332 12.2144 12.8332 12.8333Z" stroke="currentColor" stroke-width="2.33333" stroke-linecap="round" stroke-linejoin="round"/>
</svg>
