<svg width="28" height="28" viewBox="0 0 28 28" fill="none" xmlns="http://www.w3.org/2000/svg">
<path d="M8.1665 8.16675H6.99984C6.381 8.16675 5.78751 8.41258 5.34992 8.85017C4.91234 9.28775 4.6665 9.88124 4.6665 10.5001V21.0001C4.6665 21.6189 4.91234 22.2124 5.34992 22.65C5.78751 23.0876 6.381 23.3334 6.99984 23.3334H17.4998C18.1187 23.3334 18.7122 23.0876 19.1498 22.65C19.5873 22.2124 19.8332 21.6189 19.8332 21.0001V19.8334" stroke="currentColor" stroke-width="2.33333" stroke-linecap="round" stroke-linejoin="round"/>
<path d="M18.6664 5.83334L22.1664 9.33334M23.7823 7.6825C24.2417 7.22302 24.4999 6.59982 24.4999 5.95C24.4999 5.30019 24.2417 4.67699 23.7823 4.2175C23.3228 3.75802 22.6996 3.49988 22.0498 3.49988C21.3999 3.49988 20.7767 3.75802 20.3173 4.2175L10.4998 14V17.5H13.9998L23.7823 7.6825Z" stroke="currentColor" stroke-width="2.33333" stroke-linecap="round" stroke-linejoin="round"/>
</svg>
