<svg width="42" height="42" viewBox="0 0 42 42" fill="none" xmlns="http://www.w3.org/2000/svg">
<g clip-path="url(#clip0_35_5932)">
<path d="M17.785 35.7207C17.785 38.2252 16.8882 40.2558 14.3837 40.2558H6.44759C1.91265 40.2558 1.91265 24.3828 6.44759 24.3828H14.3837C16.8882 24.3828 17.785 26.4134 17.785 28.918V35.7207Z" fill="#553788"/>
<path d="M39.3233 37.9883H38.1895V26.6504H39.3233C39.9502 26.6504 40.457 26.1436 40.457 25.5166C40.457 24.8896 39.9502 24.3828 39.3233 24.3828H12.1136C7.57867 24.3828 7.57867 40.2558 12.1136 40.2558H39.3233C39.9502 40.2558 40.457 39.749 40.457 39.122C40.457 38.4951 39.9502 37.9883 39.3233 37.9883Z" fill="#9266CC"/>
<path d="M39.5218 37.989H13.2509C10.9834 37.989 10.9834 26.6511 13.2509 26.6511H39.5218C40.7735 26.6511 40.7735 37.989 39.5218 37.989Z" fill="#CCD6DD"/>
<path d="M13.8169 28.9187H40.2896C40.1366 27.5865 39.8815 26.6511 39.521 26.6511H13.25C11.3782 26.6511 11.0528 34.3699 12.2716 37.0684C11.8272 33.7135 12.3419 28.9187 13.8169 28.9187Z" fill="#99AAB5"/>
<path d="M14.3817 9.64232C14.3817 12.1469 12.3512 14.1775 9.8468 14.1775H5.31185C0.776909 14.1775 0.776909 1.70581 5.31185 1.70581H9.8468C12.3512 1.70581 14.3817 3.73642 14.3817 6.24096V9.64232Z" fill="#226699"/>
<path d="M35.9224 11.9099H34.7887V3.97338H35.9224C36.5493 3.97338 37.0561 3.46658 37.0561 2.8396C37.0561 2.21261 36.5493 1.70581 35.9224 1.70581H8.71273C4.17779 1.70581 4.17779 14.1775 8.71273 14.1775H35.9224C36.5493 14.1775 37.0561 13.6707 37.0561 13.0437C37.0561 12.4167 36.5493 11.9099 35.9224 11.9099Z" fill="#55ACEE"/>
<path d="M36.1205 11.9111H9.84953C7.58206 11.9111 7.58206 3.97461 9.84953 3.97461H36.1205C37.3721 3.97461 37.3721 11.9111 36.1205 11.9111Z" fill="#CCD6DD"/>
<path d="M9.84337 6.24218H36.968C36.8387 4.96667 36.5553 3.97461 36.1143 3.97461H9.84337C8.49082 3.97461 7.95116 6.7966 8.21305 9.07665C8.38992 7.53697 8.92844 6.24218 9.84337 6.24218Z" fill="#99AAB5"/>
<path d="M23.4493 19.8476C23.4493 22.3522 21.4188 24.3828 18.9143 24.3828H7.57699C3.04205 24.3828 3.04205 14.1787 7.57699 14.1787H18.9143C21.4188 14.1787 23.4493 16.2093 23.4493 18.7139V19.8476Z" fill="#F4900C"/>
<path d="M40.4553 22.1152H39.3216V16.4463H40.4553C41.0823 16.4463 41.5891 15.9395 41.5891 15.3125C41.5891 14.6855 41.0823 14.1787 40.4553 14.1787H17.7806C13.2457 14.1787 13.2457 24.3828 17.7806 24.3828H40.4553C41.0823 24.3828 41.5891 23.876 41.5891 23.249C41.5891 22.622 41.0823 22.1152 40.4553 22.1152Z" fill="#FFAC33"/>
<path d="M40.6519 22.1162H18.9159C16.6485 22.1162 16.6485 16.4473 18.9159 16.4473H40.6519C41.9036 16.4473 41.9036 22.1162 40.6519 22.1162Z" fill="#CCD6DD"/>
<path d="M18.9193 18.7146H41.5759C41.5022 17.5105 41.1972 16.447 40.6553 16.447H18.9193C17.4749 16.447 16.9545 18.7452 17.3513 20.4153C17.5758 19.464 18.0962 18.7146 18.9193 18.7146Z" fill="#99AAB5"/>
</g>
<defs>
<clipPath id="clip0_35_5932">
<rect width="40.8145" height="40.8163" fill="white" transform="translate(0.770508 0.573242)"/>
</clipPath>
</defs>
</svg>
