<svg width="328" height="96" viewBox="0 0 328 96" fill="none" xmlns="http://www.w3.org/2000/svg">
<g filter="url(#filter0_d_577_1617)">
<path fill-rule="evenodd" clip-rule="evenodd" d="M294 14C305.046 14 314 22.9543 314 34V45C314 56.0457 305.046 65 294 65H272.113L263.742 79.5C262.202 82.1667 258.353 82.1667 256.813 79.5L248.442 65H34C22.9543 65 14 56.0457 14 45V34C14 22.9543 22.9543 14 34 14H294Z" fill="white"/>
</g>
<path d="M67.3516 33.5664C69.9102 33.5762 71.7266 35.9297 71.7461 39.6211C71.7266 43.3223 69.9102 45.666 67.3516 45.6562C64.7734 45.666 62.9668 43.3223 62.9766 39.6211C62.9668 35.9297 64.7734 33.5762 67.3516 33.5664ZM64.4219 39.6211C64.4316 42.4434 65.6328 44.2988 67.3516 44.2891C69.0898 44.2988 70.2617 42.4434 70.2617 39.6211C70.2617 36.7988 69.0898 34.9434 67.3516 34.9336C65.6328 34.9434 64.4316 36.7988 64.4219 39.6211ZM74.6172 49.582V32.2188H76.1406V39.1523H79.0508V40.4805H76.1406V49.582H74.6172ZM85.8383 35.4414C85.848 37.7754 87.6938 39.9043 90.2914 40.7539L89.5102 41.9453C87.4887 41.2617 85.8871 39.8359 85.0961 38C84.3344 39.9727 82.7133 41.5352 80.643 42.2773L79.8422 41.0859C82.4496 40.168 84.2855 37.9023 84.2953 35.4414V34.6992H80.2328V33.4492H89.8422V34.6992H85.8383V35.4414ZM82.2445 44.9141V43.6445H93.9242V49.582H92.4008V44.9141H82.2445ZM92.4008 42.7266V32.2188H93.9242V42.7266H92.4008ZM106.269 35.6758C106.279 37.5996 107.616 39.543 109.843 40.3828L109.042 41.5547C107.372 40.9102 106.171 39.6699 105.546 38.1758C104.911 39.8262 103.661 41.3008 101.952 42.043L101.112 40.8516C103.398 39.8555 104.794 37.6094 104.804 35.6758V33.3125H106.269V35.6758ZM104.277 46.457C104.257 44.4941 106.484 43.3418 110.097 43.3516C113.691 43.3418 115.927 44.4941 115.937 46.457C115.927 48.4004 113.691 49.543 110.097 49.543C106.484 49.543 104.257 48.4004 104.277 46.457ZM105.8 46.457C105.78 47.6387 107.431 48.3613 110.097 48.3516C112.734 48.3613 114.394 47.6387 114.413 46.457C114.394 45.2559 112.734 44.5332 110.097 44.5234C107.431 44.5332 105.78 45.2559 105.8 46.457ZM110.624 42.4141V32.5703H112.07V36.9062H114.374V32.2383H115.839V42.9609H114.374V38.1758H112.07V42.4141H110.624ZM123.955 34.9531C123.935 37.4336 125.703 39.6113 128.252 40.4805L127.392 41.6719C125.478 40.959 123.974 39.543 123.222 37.7168C122.48 39.7969 120.898 41.4082 118.798 42.1992L117.959 40.9492C120.634 40.0117 122.412 37.707 122.431 35.0117V33.2148H123.955V34.9531ZM120.791 46.3008C120.781 44.2109 122.998 43.0098 126.611 43.0195C130.214 43.0098 132.431 44.2109 132.431 46.3008C132.431 48.3711 130.214 49.543 126.611 49.543C122.998 49.543 120.781 48.3711 120.791 46.3008ZM122.314 46.3008C122.304 47.5605 123.945 48.3223 126.611 48.3125C129.267 48.3223 130.908 47.5605 130.908 46.3008C130.908 45.002 129.267 44.2305 126.611 44.2305C123.945 44.2305 122.304 45.002 122.314 46.3008ZM126.963 37.2188V35.9492H130.83V32.2188H132.373V42.5117H130.83V37.2188H126.963ZM144.961 37.9219V39.1719H141.445V41.5938C143.066 41.5254 144.688 41.4082 146.191 41.2422L146.309 42.375C142.568 42.8926 138.438 43 135.176 43L134.941 41.75C136.465 41.7402 138.174 41.7207 139.922 41.6621V39.1719H136.523V33.3516H144.824V34.6211H138.066V37.9219H144.961ZM137.91 49.2109V44.3281H139.434V47.9219H149.746V49.2109H137.91ZM147.637 45.2266V32.2383H149.18V45.2266H147.637ZM172.266 46.0664V47.3555H156.368V46.0664H163.516V41.8281H158.243V33.6836H170.294V41.8281H165.02V46.0664H172.266ZM159.747 40.5977H168.809V34.9141H159.747V40.5977ZM187.589 32.2383V42.1602H186.066V32.2383H187.589ZM173.663 37.2188C173.654 34.7969 175.577 33.1562 178.214 33.1562C180.851 33.1562 182.755 34.7969 182.765 37.2188C182.755 39.6016 180.851 41.2617 178.214 41.2617C175.577 41.2617 173.654 39.6016 173.663 37.2188ZM175.167 37.2188C175.148 38.8301 176.427 39.9629 178.214 39.9531C179.982 39.9629 181.261 38.8301 181.261 37.2188C181.261 35.5977 179.982 34.4551 178.214 34.4648C176.427 34.4551 175.148 35.5977 175.167 37.2188ZM176.3 49.3477V43.0977H187.589V49.3477H176.3ZM177.804 48.0977H186.085V44.3477H177.804V48.0977ZM204.455 32.2188V49.6211H202.912V32.2188H204.455ZM190.783 39.6211C190.793 35.9297 192.629 33.5762 195.216 33.5664C197.795 33.5762 199.66 35.9297 199.65 39.6211C199.66 43.3223 197.795 45.666 195.216 45.6562C192.629 45.666 190.793 43.3223 190.783 39.6211ZM192.267 39.6211C192.267 42.4434 193.478 44.2988 195.216 44.2891C196.964 44.2988 198.166 42.4434 198.166 39.6211C198.166 36.7988 196.964 34.9434 195.216 34.9336C193.478 34.9434 192.267 36.7988 192.267 39.6211ZM215.1 42.4141V44.582H218.264V42.4141H219.69V49.3477H213.655V42.4141H215.1ZM211.916 36.9844C211.907 34.6113 213.782 33 216.428 33C218.762 33 220.53 34.3184 220.862 36.3203H224.495V32.2188H226.038V41.418H224.495V37.5898H220.871C220.569 39.6406 218.782 40.9883 216.428 40.9883C213.782 40.9883 211.907 39.3672 211.916 36.9844ZM213.381 36.9844C213.381 38.5762 214.641 39.709 216.428 39.7188C218.176 39.709 219.436 38.5762 219.436 36.9844C219.436 35.4023 218.176 34.2891 216.428 34.2891C214.641 34.2891 213.381 35.4023 213.381 36.9844ZM215.1 48.1367H218.264V45.7539H215.1V48.1367ZM219.924 48.3125C222.014 47.4434 223.118 45.5391 223.127 43.7812V42.2969H224.651V43.7812C224.631 45.6074 225.735 47.5312 227.854 48.3125L227.053 49.4844C225.452 48.8496 224.407 47.6191 223.87 46.1836C223.323 47.5996 222.258 48.8301 220.725 49.4844L219.924 48.3125ZM233.196 33.5664C235.559 33.5762 237.268 35.6074 237.503 38.8594H241.399V32.2188H242.923V49.6211H241.399V40.1289H237.522C237.356 43.5371 235.618 45.666 233.196 45.6562C230.628 45.666 228.831 43.3223 228.841 39.6211C228.831 35.9297 230.628 33.5762 233.196 33.5664ZM230.305 39.6211C230.315 42.4434 231.487 44.2988 233.196 44.2891C234.895 44.2988 236.087 42.4434 236.087 39.6211C236.087 36.7988 234.895 34.9434 233.196 34.9336C231.487 34.9434 230.315 36.7988 230.305 39.6211ZM261.312 46.0664V47.3555H245.413V46.0664H249.359V41.3887C247.874 40.6172 246.976 39.3672 246.976 37.7852C246.976 35.0996 249.613 33.332 253.323 33.3125C257.034 33.332 259.671 35.0996 259.671 37.7852C259.671 39.3379 258.802 40.5684 257.366 41.3398V46.0664H261.312ZM248.46 37.7852C248.45 39.7285 250.472 41.0273 253.323 41.0273C256.146 41.0273 258.187 39.7285 258.187 37.7852C258.187 35.8418 256.146 34.5625 253.323 34.582C250.472 34.5625 248.45 35.8418 248.46 37.7852ZM250.863 46.0664H255.823V41.9355C255.071 42.1309 254.232 42.2383 253.323 42.2383C252.435 42.2383 251.605 42.1406 250.863 41.9453V46.0664ZM265.111 33.8594L264.974 44.0156H263.334L263.197 33.8594H265.111ZM262.904 46.8477C262.884 46.1641 263.47 45.5977 264.154 45.5977C264.847 45.5977 265.414 46.1641 265.404 46.8477C265.414 47.541 264.847 48.1074 264.154 48.1172C263.47 48.1074 262.884 47.541 262.904 46.8477Z" fill="#5E6D93"/>
<defs>
<filter id="filter0_d_577_1617" x="0" y="0" width="328" height="95.5" filterUnits="userSpaceOnUse" color-interpolation-filters="sRGB">
<feFlood flood-opacity="0" result="BackgroundImageFix"/>
<feColorMatrix in="SourceAlpha" type="matrix" values="0 0 0 0 0 0 0 0 0 0 0 0 0 0 0 0 0 0 127 0" result="hardAlpha"/>
<feOffset/>
<feGaussianBlur stdDeviation="7"/>
<feComposite in2="hardAlpha" operator="out"/>
<feColorMatrix type="matrix" values="0 0 0 0 0.721926 0 0 0 0 0.713579 0 0 0 0 0.773203 0 0 0 0.2 0"/>
<feBlend mode="normal" in2="BackgroundImageFix" result="effect1_dropShadow_577_1617"/>
<feBlend mode="normal" in="SourceGraphic" in2="effect1_dropShadow_577_1617" result="shape"/>
</filter>
</defs>
</svg>
