<svg width="371" height="250" viewBox="0 0 371 250" fill="none" xmlns="http://www.w3.org/2000/svg">
<g filter="url(#filter0_d_2213_4654)">
<rect x="10" y="10" width="351" height="230" rx="20" fill="white"/>
</g>
<rect x="36" y="25" width="79.0178" height="42.8571" rx="9.37499" fill="#EEF3FF"/>
<rect x="124.393" y="25" width="211.607" height="42.8571" rx="9.37499" fill="#F8F8FB"/>
<path d="M72.5356 41.6828V47.6828H73.7678V48.9149H72.5356V51.4328H71.116V48.9149H66.924L66.7901 47.6828L71.1829 41.6828H72.5356ZM68.4776 47.6828H71.116V44.0533L68.4776 47.6828ZM74.5464 49.906H77.3321V47.4551H75.4705V46.2765H77.1312V42.7274H75.417V41.5488H84.4036V42.7274H82.7027V46.2765H84.3768V47.4551H82.5018V49.906H85.3411V51.0979H74.5464V49.906ZM78.6045 46.2765H81.2428V42.7274H78.6045V46.2765ZM78.792 49.906H81.0554V47.4551H78.792V49.906Z" fill="#5786FF"/>
<path d="M183.79 49.437C186.361 49.437 187.835 50.0665 187.835 51.2584C187.835 52.437 186.361 53.0531 183.79 53.0531C181.205 53.0531 179.745 52.437 179.745 51.2584C179.745 50.0665 181.205 49.437 183.79 49.437ZM183.79 50.3075C181.942 50.3075 180.924 50.629 180.924 51.2584C180.924 51.8745 181.942 52.1825 183.79 52.1825C185.625 52.1825 186.643 51.8745 186.643 51.2584C186.643 50.629 185.625 50.3075 183.79 50.3075ZM179.022 42.2451H183.214V41.1335H184.379V42.2451H188.504V43.1558H179.022V42.2451ZM183.79 43.6111C186.241 43.6111 187.607 44.2004 187.607 45.2852C187.607 46.3031 186.455 46.879 184.379 46.9593V47.8299H189.12V48.754H178.473V47.8299H183.214V46.9593C181.125 46.879 179.973 46.3031 179.973 45.2852C179.973 44.2004 181.339 43.6111 183.79 43.6111ZM183.79 44.4281C182.116 44.4281 181.205 44.7361 181.205 45.2852C181.205 45.8611 182.116 46.1558 183.79 46.1558C185.477 46.1558 186.388 45.8611 186.388 45.2852C186.388 44.7361 185.477 44.4281 183.79 44.4281ZM198.737 41.2808H199.848V53.0665H198.737V46.9459H197.17V52.4638H196.085V41.5486H197.17V45.9817H198.737V41.2808ZM190.259 42.7138H194.625V43.6647H191.411V49.2361C192.897 49.2227 194.009 49.1558 195.255 48.9013L195.375 49.8522C193.955 50.1468 192.763 50.2004 191.036 50.2004H190.259V42.7138ZM209.719 41.2942H210.871V47.6022H209.719V41.2942ZM203.264 48.1915H204.402V49.5709H209.733V48.1915H210.871V52.9192H203.264V48.1915ZM204.402 50.4817V51.9817H209.733V50.4817H204.402ZM204.549 41.8433C206.344 41.8433 207.643 42.9549 207.643 44.562C207.643 46.1692 206.344 47.2808 204.549 47.2808C202.755 47.2808 201.456 46.1692 201.456 44.562C201.456 42.9549 202.755 41.8433 204.549 41.8433ZM204.549 42.8076C203.411 42.8076 202.594 43.5174 202.594 44.562C202.594 45.6067 203.411 46.3165 204.549 46.3165C205.688 46.3165 206.505 45.6067 206.505 44.562C206.505 43.5174 205.688 42.8076 204.549 42.8076ZM213.911 42.0442H221.867V43.0754C221.867 44.187 221.867 45.4058 221.532 47.1067H223.246V48.0709H218.478V53.0933H217.3V48.0709H212.585V47.1067H220.353C220.715 45.4326 220.715 44.1736 220.715 43.0754V42.9817H213.911V42.0442ZM225.778 48.8745H233.666V53.0799H232.501V49.7986H225.778V48.8745ZM232.501 41.2942H233.666V48.2317H232.501V46.5843H229.581C229.032 47.2406 228.162 47.629 227.171 47.629C225.43 47.629 224.117 46.4504 224.117 44.7897C224.117 43.1156 225.43 41.9504 227.171 41.9504C228.175 41.9504 229.032 42.3388 229.581 42.9951H232.501V41.2942ZM227.171 42.9415C226.059 42.9415 225.215 43.7049 225.215 44.7897C225.215 45.9013 226.059 46.6379 227.171 46.6379C228.269 46.6379 229.099 45.9013 229.099 44.7897C229.099 43.7049 228.269 42.9415 227.171 42.9415ZM230.09 45.6334H232.501V43.946H230.09C230.171 44.2138 230.211 44.4951 230.211 44.7897C230.211 45.0843 230.171 45.3656 230.09 45.6334ZM238.387 51.0977C240.316 49.2361 243.141 47.0397 243.141 45.312C243.141 44.1201 242.378 43.2763 241.293 43.2763C240.49 43.2763 239.673 43.8656 239.298 44.7227L238.293 44.2808C238.816 43.1022 240.061 42.2718 241.293 42.2718C243.034 42.2718 244.253 43.5308 244.253 45.312C244.253 47.3611 241.775 49.4102 239.927 51.0977H244.414V52.0888H238.521L238.387 51.0977ZM253.848 41.2942H255.014V50.0129H253.848V45.5263H251.223V48.0308H245.88V42.071H247.018V44.1067H250.085V42.071H251.223V44.5754H253.848V41.2942ZM247.42 49.1558H248.572V51.8745H255.295V52.812H247.42V49.1558ZM247.018 45.0174V47.0799H250.085V45.0174H247.018ZM259.44 46.4906H270.06V47.3611H265.319V48.3924H268.708V51.0174H261.864V52.0754H269.069V52.9459H260.739V50.2004H267.583V49.2629H260.699V48.3924H264.154V47.3611H259.44V46.4906ZM264.167 41.2272H265.333V42.2986H269.002V43.1826H265.413C265.627 44.254 267.301 44.9906 269.525 45.0977L269.19 45.9951C267.181 45.8343 265.493 45.2317 264.757 44.187C264.02 45.2317 262.319 45.8343 260.31 45.9951L259.976 45.0977C262.199 44.9906 263.873 44.254 264.087 43.1826H260.511V42.2986H264.167V41.2272ZM272.123 42.0442H280.078V43.0754C280.078 44.187 280.078 45.4058 279.744 47.1067H281.458V48.0709H276.69V53.0933H275.512V48.0709H270.797V47.1067H278.565C278.927 45.4326 278.927 44.1736 278.927 43.0754V42.9817H272.123V42.0442Z" fill="#15254D"/>
<rect x="35.9999" y="77.2319" width="79.0178" height="42.8571" rx="9.37499" fill="#EEF3FF"/>
<rect x="124.393" y="77.2319" width="211.607" height="42.8571" rx="9.37499" fill="#F8F8FB"/>
<path d="M71.9731 98.6295C72.8437 99.1384 73.3928 100.089 73.3928 100.906C73.3928 102.567 72.0267 103.746 70.0847 103.746C68.1562 103.746 66.7901 102.54 66.7901 100.826H68.2097C68.2097 101.804 68.9865 102.487 70.0847 102.487C71.2097 102.487 72.0133 101.804 72.0133 100.826C72.0133 99.8884 71.2231 99.2188 70.1115 99.2188H69.4151V98.0268H70.1249C71.1428 98.0268 71.866 97.4241 71.866 96.567C71.866 95.6964 71.1696 95.0938 70.1785 95.0938C69.1874 95.0938 68.5044 95.7098 68.5044 96.5804H67.0847C67.0847 94.9598 68.3571 93.8348 70.1785 93.8348C71.9731 93.8348 73.2454 94.933 73.2454 96.4866C73.2454 97.2366 72.7633 98.1205 71.9731 98.6295ZM74.1671 102.138H76.9529V99.6875H75.0912V98.5089H76.752V94.9598H75.0377V93.7813H84.0243V94.9598H82.3234V98.5089H83.9975V99.6875H82.1225V102.138H84.9618V103.33H74.1671V102.138ZM78.2252 98.5089H80.8636V94.9598H78.2252V98.5089ZM78.4127 102.138H80.6761V99.6875H78.4127V102.138Z" fill="#5786FF"/>
<path d="M195.736 97.478H198.415V93.5003H199.567V105.326H198.415V98.4289H195.736V97.478ZM192.857 94.5181H194.009V96.5806C194.009 98.7235 195.268 100.88 197.009 101.697L196.326 102.634C195 101.951 193.969 100.585 193.446 98.9512C192.924 100.679 191.866 102.125 190.54 102.835L189.817 101.898C191.571 101.04 192.857 98.7637 192.857 96.5806V94.5181ZM206.545 93.661C209.156 93.661 210.71 94.3842 210.71 95.6833C210.71 97.0092 209.156 97.7324 206.545 97.7324C203.946 97.7324 202.38 97.0092 202.38 95.6833C202.38 94.3842 203.946 93.661 206.545 93.661ZM206.545 94.5315C204.656 94.5315 203.585 94.9467 203.585 95.6833C203.585 96.4467 204.656 96.8619 206.545 96.8619C208.433 96.8619 209.518 96.4467 209.518 95.6833C209.518 94.9467 208.433 94.5315 206.545 94.5315ZM201.228 98.4556H211.875V99.3931H207.121V100.438H210.509V103.143H203.665V104.282H210.871V105.179H202.54V102.313H209.384V101.335H202.5V100.438H205.955V99.3931H201.228V98.4556ZM214.42 101.107H222.308V105.313H221.143V102.032H214.42V101.107ZM221.143 93.5271H222.308V100.465H221.143V98.8173H218.224C217.674 99.4735 216.804 99.8619 215.813 99.8619C214.072 99.8619 212.759 98.6833 212.759 97.0226C212.759 95.3485 214.072 94.1833 215.813 94.1833C216.817 94.1833 217.674 94.5717 218.224 95.228H221.143V93.5271ZM215.813 95.1744C214.701 95.1744 213.858 95.9378 213.858 97.0226C213.858 98.1342 214.701 98.8708 215.813 98.8708C216.911 98.8708 217.741 98.1342 217.741 97.0226C217.741 95.9378 216.911 95.1744 215.813 95.1744ZM218.732 97.8664H221.143V96.1789H218.732C218.813 96.4467 218.853 96.728 218.853 97.0226C218.853 97.3173 218.813 97.5985 218.732 97.8664ZM227.029 103.331C228.958 101.469 231.784 99.2726 231.784 97.5449C231.784 96.353 231.02 95.5092 229.935 95.5092C229.132 95.5092 228.315 96.0985 227.94 96.9556L226.936 96.5137C227.458 95.3351 228.703 94.5048 229.935 94.5048C231.677 94.5048 232.895 95.7637 232.895 97.5449C232.895 99.594 230.418 101.643 228.569 103.331H233.056V104.322H227.163L227.029 103.331ZM242.491 93.5271H243.656V102.246H242.491V97.7592H239.866V100.264H234.522V94.3039H235.66V96.3396H238.727V94.3039H239.866V96.8083H242.491V93.5271ZM236.062 101.389H237.214V104.107H243.937V105.045H236.062V101.389ZM235.66 97.2503V99.3128H238.727V97.2503H235.66ZM248.082 98.7235H258.703V99.594H253.962V100.625H257.35V103.25H250.506V104.308H257.712V105.179H249.381V102.433H256.225V101.496H249.341V100.625H252.796V99.594H248.082V98.7235ZM252.81 93.4601H253.975V94.5315H257.645V95.4155H254.055C254.27 96.4869 255.944 97.2235 258.167 97.3306L257.832 98.228C255.823 98.0673 254.136 97.4646 253.399 96.4199C252.662 97.4646 250.962 98.0673 248.953 98.228L248.618 97.3306C250.841 97.2235 252.515 96.4869 252.729 95.4155H249.153V94.5315H252.81V93.4601ZM260.765 94.2771H268.721V95.3083C268.721 96.4199 268.721 97.6387 268.386 99.3396H270.1V100.304H265.332V105.326H264.154V100.304H259.44V99.3396H267.207C267.569 97.6655 267.569 96.4065 267.569 95.3083V95.2146H260.765V94.2771Z" fill="#15254D"/>
<rect x="35.9999" y="129.464" width="79.0178" height="42.8571" rx="9.37499" fill="#EEF3FF"/>
<rect x="124.393" y="129.464" width="211.607" height="42.8571" rx="9.37499" fill="#F8F8FB"/>
<path d="M66.991 154.652C68.9463 152.777 71.6115 150.875 71.6115 149.227C71.6115 148.129 70.9151 147.352 69.924 147.352C69.1606 147.352 68.3972 147.902 68.049 148.692L66.8035 148.143C67.3392 146.911 68.6383 146.053 69.924 146.053C71.7588 146.053 73.0312 147.366 73.0312 149.227C73.0312 151.277 70.8079 153.098 68.9999 154.652H73.1919V155.897H67.1249L66.991 154.652ZM73.971 154.37H76.7567V151.919H74.8951V150.741H76.5558V147.192H74.8415V146.013H83.8281V147.192H82.1272V150.741H83.8013V151.919H81.9263V154.37H84.7656V155.562H73.971V154.37ZM78.029 150.741H80.6674V147.192H78.029V150.741ZM78.2165 154.37H80.4799V151.919H78.2165V154.37Z" fill="#5786FF"/>
<path d="M189.857 151.558H192.455V149.924C191.531 149.549 191.009 148.959 191.009 148.169C191.009 146.776 192.616 145.973 195.174 145.973C197.732 145.973 199.339 146.776 199.339 148.169C199.339 148.946 198.817 149.549 197.906 149.924V151.558H200.504V152.468H189.857V151.558ZM195.174 153.325C197.692 153.325 199.218 154.089 199.218 155.415C199.218 156.767 197.692 157.531 195.174 157.531C192.643 157.531 191.129 156.767 191.129 155.415C191.129 154.089 192.643 153.325 195.174 153.325ZM195.174 154.223C193.352 154.223 192.294 154.665 192.294 155.415C192.294 156.205 193.352 156.634 195.174 156.634C196.982 156.634 198.04 156.205 198.04 155.415C198.04 154.665 196.982 154.223 195.174 154.223ZM195.174 146.857C193.339 146.857 192.201 147.339 192.201 148.169C192.201 148.986 193.339 149.468 195.174 149.468C197.009 149.468 198.147 148.986 198.147 148.169C198.147 147.339 197.009 146.857 195.174 146.857ZM193.594 151.558H196.754V150.232C196.285 150.312 195.75 150.352 195.174 150.352C194.598 150.352 194.062 150.312 193.594 150.232V151.558ZM204.094 146.455H205.246V147.915C205.246 149.522 206.371 151.022 208.125 151.638L207.536 152.549C206.223 152.08 205.219 151.102 204.71 149.884C204.201 151.25 203.183 152.308 201.79 152.83L201.161 151.919C202.996 151.263 204.094 149.683 204.094 147.888V146.455ZM209.223 145.745H210.388V149.334H212.116V150.299H210.388V154.437H209.223V145.745ZM203.049 153.607H204.214V156.339H210.897V157.276H203.049V153.607ZM214.42 153.339H222.308V157.544H221.143V154.263H214.42V153.339ZM221.143 145.759H222.308V152.696H221.143V151.049H218.224C217.674 151.705 216.804 152.093 215.813 152.093C214.072 152.093 212.759 150.915 212.759 149.254C212.759 147.58 214.072 146.415 215.813 146.415C216.817 146.415 217.674 146.803 218.224 147.459H221.143V145.759ZM215.813 147.406C214.701 147.406 213.858 148.169 213.858 149.254C213.858 150.366 214.701 151.102 215.813 151.102C216.911 151.102 217.741 150.366 217.741 149.254C217.741 148.169 216.911 147.406 215.813 147.406ZM218.732 150.098H221.143V148.41H218.732C218.813 148.678 218.853 148.959 218.853 149.254C218.853 149.549 218.813 149.83 218.732 150.098ZM227.029 155.562C228.958 153.7 231.784 151.504 231.784 149.776C231.784 148.584 231.02 147.741 229.935 147.741C229.132 147.741 228.315 148.33 227.94 149.187L226.936 148.745C227.458 147.567 228.703 146.736 229.935 146.736C231.677 146.736 232.895 147.995 232.895 149.776C232.895 151.825 230.418 153.875 228.569 155.562H233.056V156.553H227.163L227.029 155.562ZM242.491 145.759H243.656V154.477H242.491V149.991H239.866V152.495H234.522V146.535H235.66V148.571H238.727V146.535H239.866V149.04H242.491V145.759ZM236.062 153.62H237.214V156.339H243.937V157.276H236.062V153.62ZM235.66 149.482V151.544H238.727V149.482H235.66ZM248.082 150.955H258.703V151.825H253.962V152.857H257.35V155.482H250.506V156.54H257.712V157.41H249.381V154.665H256.225V153.727H249.341V152.857H252.796V151.825H248.082V150.955ZM252.81 145.692H253.975V146.763H257.645V147.647H254.055C254.27 148.718 255.944 149.455 258.167 149.562L257.832 150.459C255.823 150.299 254.136 149.696 253.399 148.651C252.662 149.696 250.962 150.299 248.953 150.459L248.618 149.562C250.841 149.455 252.515 148.718 252.729 147.647H249.153V146.763H252.81V145.692ZM260.765 146.509H268.721V147.54C268.721 148.651 268.721 149.87 268.386 151.571H270.1V152.535H265.332V157.558H264.154V152.535H259.44V151.571H267.207C267.569 149.897 267.569 148.638 267.569 147.54V147.446H260.765V146.509Z" fill="#15254D"/>
<rect x="36.0004" y="181.698" width="79.0178" height="42.8571" rx="9.37499" fill="#EEF3FF"/>
<rect x="124.393" y="181.698" width="211.607" height="42.8571" rx="9.37499" fill="#F8F8FB"/>
<path d="M70.42 198.394V208.131L69.0004 208.118V199.908L67.2861 200.859L66.6968 199.667L69.0138 198.394H70.42ZM71.8526 206.604H74.6384V204.153H72.7768V202.975H74.4375V199.426H72.7232V198.247H81.7098V199.426H80.0089V202.975H81.683V204.153H79.808V206.604H82.6473V207.796H71.8526V206.604ZM75.9107 202.975H78.5491V199.426H75.9107V202.975ZM76.0982 206.604H78.3616V204.153H76.0982V206.604Z" fill="#5786FF"/>
<path d="M189.857 203.792H192.456V202.158C191.532 201.783 191.009 201.194 191.009 200.404C191.009 199.011 192.616 198.207 195.174 198.207C197.732 198.207 199.34 199.011 199.34 200.404C199.34 201.18 198.817 201.783 197.907 202.158V203.792H200.505V204.703H189.857V203.792ZM195.174 205.56C197.692 205.56 199.219 206.323 199.219 207.649C199.219 209.002 197.692 209.765 195.174 209.765C192.643 209.765 191.13 209.002 191.13 207.649C191.13 206.323 192.643 205.56 195.174 205.56ZM195.174 206.457C193.353 206.457 192.295 206.899 192.295 207.649C192.295 208.439 193.353 208.868 195.174 208.868C196.982 208.868 198.04 208.439 198.04 207.649C198.04 206.899 196.982 206.457 195.174 206.457ZM195.174 199.091C193.34 199.091 192.201 199.573 192.201 200.404C192.201 201.221 193.34 201.703 195.174 201.703C197.009 201.703 198.148 201.221 198.148 200.404C198.148 199.573 197.009 199.091 195.174 199.091ZM193.594 203.792H196.755V202.466C196.286 202.546 195.75 202.587 195.174 202.587C194.598 202.587 194.063 202.546 193.594 202.466V203.792ZM204.094 198.689H205.246V200.149C205.246 201.756 206.371 203.256 208.126 203.872L207.536 204.783C206.224 204.314 205.219 203.337 204.71 202.118C204.201 203.484 203.184 204.542 201.791 205.064L201.161 204.154C202.996 203.497 204.094 201.917 204.094 200.122V198.689ZM209.224 197.98H210.389V201.569H212.117V202.533H210.389V206.671H209.224V197.98ZM203.05 205.841H204.215V208.573H210.898V209.511H203.05V205.841ZM214.421 205.573H222.309V209.779H221.144V206.497H214.421V205.573ZM221.144 197.993H222.309V204.93H221.144V203.283H218.224C217.675 203.939 216.804 204.328 215.813 204.328C214.072 204.328 212.76 203.149 212.76 201.488C212.76 199.814 214.072 198.649 215.813 198.649C216.818 198.649 217.675 199.038 218.224 199.694H221.144V197.993ZM215.813 199.64C214.702 199.64 213.858 200.404 213.858 201.488C213.858 202.6 214.702 203.337 215.813 203.337C216.912 203.337 217.742 202.6 217.742 201.488C217.742 200.404 216.912 199.64 215.813 199.64ZM218.733 202.332H221.144V200.645H218.733C218.813 200.913 218.854 201.194 218.854 201.488C218.854 201.783 218.813 202.064 218.733 202.332ZM227.03 207.796C228.958 205.935 231.784 203.738 231.784 202.011C231.784 200.819 231.021 199.975 229.936 199.975C229.132 199.975 228.315 200.564 227.94 201.421L226.936 200.98C227.458 199.801 228.704 198.971 229.936 198.971C231.677 198.971 232.896 200.23 232.896 202.011C232.896 204.06 230.418 206.109 228.57 207.796H233.057V208.788H227.164L227.03 207.796ZM242.491 197.993H243.656V206.712H242.491V202.225H239.866V204.729H234.522V198.77H235.661V200.805H238.728V198.77H239.866V201.274H242.491V197.993ZM236.063 205.854H237.214V208.573H243.938V209.511H236.063V205.854ZM235.661 201.716V203.779H238.728V201.716H235.661ZM248.083 203.189H258.703V204.06H253.962V205.091H257.35V207.716H250.507V208.774H257.712V209.645H249.382V206.899H256.225V205.962H249.342V205.091H252.797V204.06H248.083V203.189ZM252.81 197.926H253.975V198.997H257.645V199.881H254.056C254.27 200.953 255.944 201.689 258.167 201.796L257.833 202.694C255.824 202.533 254.136 201.93 253.4 200.886C252.663 201.93 250.962 202.533 248.953 202.694L248.618 201.796C250.842 201.689 252.516 200.953 252.73 199.881H249.154V198.997H252.81V197.926ZM260.766 198.743H268.721V199.774C268.721 200.886 268.721 202.105 268.386 203.805H270.101V204.77H265.333V209.792H264.154V204.77H259.44V203.805H267.208C267.569 202.131 267.569 200.872 267.569 199.774V199.68H260.766V198.743Z" fill="#15254D"/>
<defs>
<filter id="filter0_d_2213_4654" x="0" y="0" width="371" height="250" filterUnits="userSpaceOnUse" color-interpolation-filters="sRGB">
<feFlood flood-opacity="0" result="BackgroundImageFix"/>
<feColorMatrix in="SourceAlpha" type="matrix" values="0 0 0 0 0 0 0 0 0 0 0 0 0 0 0 0 0 0 127 0" result="hardAlpha"/>
<feOffset/>
<feGaussianBlur stdDeviation="5"/>
<feComposite in2="hardAlpha" operator="out"/>
<feColorMatrix type="matrix" values="0 0 0 0 0 0 0 0 0 0 0 0 0 0 0 0 0 0 0.25 0"/>
<feBlend mode="normal" in2="BackgroundImageFix" result="effect1_dropShadow_2213_4654"/>
<feBlend mode="normal" in="SourceGraphic" in2="effect1_dropShadow_2213_4654" result="shape"/>
</filter>
</defs>
</svg>
