<svg width="36" height="37" viewBox="0 0 36 37" fill="none" xmlns="http://www.w3.org/2000/svg">
<path d="M18 0L30.414 12.414L27.586 15.242L20 7.656V26.828H16V7.656L8.414 15.242L5.586 12.414L18 0ZM0 30.828V22.828H4V30.828C4 31.3584 4.21071 31.8671 4.58579 32.2422C4.96086 32.6173 5.46957 32.828 6 32.828H30C30.5304 32.828 31.0391 32.6173 31.4142 32.2422C31.7893 31.8671 32 31.3584 32 30.828V22.828H36V30.828C36 32.4193 35.3679 33.9454 34.2426 35.0706C33.1174 36.1959 31.5913 36.828 30 36.828H6C4.4087 36.828 2.88258 36.1959 1.75736 35.0706C0.632141 33.9454 0 32.4193 0 30.828Z" fill="#1A3C95"/>
</svg>
