<svg width="35" height="35" viewBox="0 0 35 35" fill="none" xmlns="http://www.w3.org/2000/svg">
<g filter="url(#filter0_d_1585_2459)">
<rect x="4" y="4" width="27" height="27" rx="13.5" fill="url(#paint0_radial_1585_2459)"/>
<rect x="4" y="4" width="27" height="27" rx="13.5" fill="url(#paint1_radial_1585_2459)"/>
<rect x="4" y="4" width="27" height="27" rx="13.5" fill="url(#paint2_radial_1585_2459)"/>
<path d="M23.4062 12.8594C23.4062 13.5584 22.8396 14.125 22.1406 14.125C21.4416 14.125 20.875 13.5584 20.875 12.8594C20.875 12.1604 21.4416 11.5938 22.1406 11.5938C22.8396 11.5938 23.4062 12.1604 23.4062 12.8594Z" fill="white"/>
<path fill-rule="evenodd" clip-rule="evenodd" d="M17.5 21.7188C19.83 21.7188 21.7188 19.83 21.7188 17.5C21.7188 15.17 19.83 13.2812 17.5 13.2812C15.17 13.2812 13.2812 15.17 13.2812 17.5C13.2812 19.83 15.17 21.7188 17.5 21.7188ZM17.5 20.0312C18.898 20.0312 20.0312 18.898 20.0312 17.5C20.0312 16.102 18.898 14.9688 17.5 14.9688C16.102 14.9688 14.9688 16.102 14.9688 17.5C14.9688 18.898 16.102 20.0312 17.5 20.0312Z" fill="white"/>
<path fill-rule="evenodd" clip-rule="evenodd" d="M9.0625 17.1625C9.0625 14.3272 9.0625 12.9096 9.61428 11.8267C10.0996 10.8741 10.8741 10.0996 11.8267 9.61428C12.9096 9.0625 14.3272 9.0625 17.1625 9.0625H17.8375C20.6728 9.0625 22.0904 9.0625 23.1733 9.61428C24.1259 10.0996 24.9004 10.8741 25.3857 11.8267C25.9375 12.9096 25.9375 14.3272 25.9375 17.1625V17.8375C25.9375 20.6728 25.9375 22.0904 25.3857 23.1733C24.9004 24.1259 24.1259 24.9004 23.1733 25.3857C22.0904 25.9375 20.6728 25.9375 17.8375 25.9375H17.1625C14.3272 25.9375 12.9096 25.9375 11.8267 25.3857C10.8741 24.9004 10.0996 24.1259 9.61428 23.1733C9.0625 22.0904 9.0625 20.6728 9.0625 17.8375V17.1625ZM17.1625 10.75H17.8375C19.283 10.75 20.2656 10.7513 21.0251 10.8134C21.7649 10.8738 22.1433 10.9834 22.4072 11.1179C23.0423 11.4414 23.5586 11.9577 23.8821 12.5928C24.0166 12.8567 24.1262 13.2351 24.1866 13.9749C24.2487 14.7344 24.25 15.717 24.25 17.1625V17.8375C24.25 19.283 24.2487 20.2656 24.1866 21.0251C24.1262 21.7649 24.0166 22.1433 23.8821 22.4072C23.5586 23.0423 23.0423 23.5586 22.4072 23.8821C22.1433 24.0166 21.7649 24.1262 21.0251 24.1866C20.2656 24.2487 19.283 24.25 17.8375 24.25H17.1625C15.717 24.25 14.7344 24.2487 13.9749 24.1866C13.2351 24.1262 12.8567 24.0166 12.5928 23.8821C11.9577 23.5586 11.4414 23.0423 11.1179 22.4072C10.9834 22.1433 10.8738 21.7649 10.8134 21.0251C10.7513 20.2656 10.75 19.283 10.75 17.8375V17.1625C10.75 15.717 10.7513 14.7344 10.8134 13.9749C10.8738 13.2351 10.9834 12.8567 11.1179 12.5928C11.4414 11.9577 11.9577 11.4414 12.5928 11.1179C12.8567 10.9834 13.2351 10.8738 13.9749 10.8134C14.7344 10.7513 15.717 10.75 17.1625 10.75Z" fill="white"/>
</g>
<defs>
<filter id="filter0_d_1585_2459" x="0.4" y="0.4" width="34.2" height="34.2" filterUnits="userSpaceOnUse" color-interpolation-filters="sRGB">
<feFlood flood-opacity="0" result="BackgroundImageFix"/>
<feColorMatrix in="SourceAlpha" type="matrix" values="0 0 0 0 0 0 0 0 0 0 0 0 0 0 0 0 0 0 127 0" result="hardAlpha"/>
<feOffset/>
<feGaussianBlur stdDeviation="1.8"/>
<feComposite in2="hardAlpha" operator="out"/>
<feColorMatrix type="matrix" values="0 0 0 0 0 0 0 0 0 0 0 0 0 0 0 0 0 0 0.25 0"/>
<feBlend mode="normal" in2="BackgroundImageFix" result="effect1_dropShadow_1585_2459"/>
<feBlend mode="normal" in="SourceGraphic" in2="effect1_dropShadow_1585_2459" result="shape"/>
</filter>
<radialGradient id="paint0_radial_1585_2459" cx="0" cy="0" r="1" gradientUnits="userSpaceOnUse" gradientTransform="translate(13.6429 24.25) rotate(-55.3758) scale(24.6082)">
<stop stop-color="#B13589"/>
<stop offset="0.79309" stop-color="#C62F94"/>
<stop offset="1" stop-color="#8A3AC8"/>
</radialGradient>
<radialGradient id="paint1_radial_1585_2459" cx="0" cy="0" r="1" gradientUnits="userSpaceOnUse" gradientTransform="translate(12.6786 31.9643) rotate(-65.1363) scale(21.7873)">
<stop stop-color="#E0E8B7"/>
<stop offset="0.444662" stop-color="#FB8A2E"/>
<stop offset="0.71474" stop-color="#E2425C"/>
<stop offset="1" stop-color="#E2425C" stop-opacity="0"/>
</radialGradient>
<radialGradient id="paint2_radial_1585_2459" cx="0" cy="0" r="1" gradientUnits="userSpaceOnUse" gradientTransform="translate(2.55357 4.96429) rotate(-8.1301) scale(37.5019 8.02127)">
<stop offset="0.156701" stop-color="#406ADC"/>
<stop offset="0.467799" stop-color="#6A45BE"/>
<stop offset="1" stop-color="#6A45BE" stop-opacity="0"/>
</radialGradient>
</defs>
</svg>
