<svg width="20" height="24" viewBox="0 0 20 24" fill="none" xmlns="http://www.w3.org/2000/svg">
<path d="M5.33325 10.8333V6.16667C5.33325 4.92899 5.82492 3.742 6.70009 2.86683C7.57526 1.99167 8.76224 1.5 9.99992 1.5C11.2376 1.5 12.4246 1.99167 13.2998 2.86683C14.1749 3.742 14.6666 4.92899 14.6666 6.16667V10.8333M13.4999 16.6667H13.5116M10.0116 16.6667H10.0233M6.52325 16.6667H6.53492M1.83325 13.1667C1.83325 12.5478 2.07908 11.9543 2.51667 11.5168C2.95425 11.0792 3.54775 10.8333 4.16659 10.8333H15.8333C16.4521 10.8333 17.0456 11.0792 17.4832 11.5168C17.9208 11.9543 18.1666 12.5478 18.1666 13.1667V20.1667C18.1666 20.7855 17.9208 21.379 17.4832 21.8166C17.0456 22.2542 16.4521 22.5 15.8333 22.5H4.16659C3.54775 22.5 2.95425 22.2542 2.51667 21.8166C2.07908 21.379 1.83325 20.7855 1.83325 20.1667V13.1667Z" stroke="currentColor" stroke-width="2" stroke-linecap="round" stroke-linejoin="round"/>
</svg>
