<svg width="42" height="42" viewBox="0 0 42 42" fill="none" xmlns="http://www.w3.org/2000/svg">
<g clip-path="url(#clip0_35_5962)">
<path d="M20.958 23.7161C10.3338 23.7161 1.72192 23.461 1.72192 31.003C1.72192 38.5415 10.3338 40.2569 20.958 40.2569C31.5823 40.2569 40.1941 38.5415 40.1941 31.003C40.1941 23.4621 31.5823 23.7161 20.958 23.7161Z" fill="#D99E82"/>
<path d="M39.6339 24.287C39.6339 24.287 30.3157 23.1714 20.9612 23.1238C11.6068 23.1714 2.28861 24.287 2.28861 24.287C1.36689 31.6272 9.0196 34.651 20.9612 34.651C32.9029 34.651 40.5556 31.6272 39.6339 24.287Z" fill="#662113"/>
<path d="M38.9684 21.3538L2.85321 22.0862C1.6061 22.0862 0.561928 24.6134 1.885 25.2744C11.7576 28.3447 19.6937 31.4513 19.6937 31.4513C20.7844 32.0544 21.1528 32.0567 22.2446 31.4547C22.2446 31.4547 33.2033 27.0692 40.2427 25.2268C41.2415 24.966 40.2143 21.3538 38.9684 21.3538Z" fill="#FFCC4D"/>
<path d="M39.9158 21.4464C37.7617 19.4612 37.8864 20.5179 36.2357 20.0519C35.6087 19.875 31.1225 14.0757 20.8974 14.0757H20.8747C10.6495 14.0757 6.16334 19.875 5.53639 20.0519C3.88567 20.5179 4.01038 19.4612 1.85628 21.4464C0.867663 22.358 0.600101 22.8319 1.64314 23.0677C3.2145 23.4226 3.07165 24.3739 4.19744 24.7049C5.5602 25.1052 6.12026 24.3739 8.31744 24.6732C10.1915 24.9283 10.3139 27.3591 12.205 27.3591C14.0961 27.3591 14.0961 26.4521 15.986 26.4521C17.876 26.4521 18.9938 28.8852 20.8849 28.8852C22.776 28.8852 23.8927 26.4521 25.7838 26.4521C27.6748 26.4521 27.6748 27.3591 29.5648 27.3591C31.4559 27.3591 31.5783 24.9283 33.4524 24.6732C35.6495 24.375 36.2107 25.1052 37.5724 24.7049C38.6982 24.3739 38.5553 23.4238 40.1267 23.0677C41.172 22.8331 40.9055 22.358 39.9158 21.4464Z" fill="#77B255"/>
<path d="M39.1858 19.3048C39.1858 22.688 31.0252 24.2855 20.9588 24.2855C10.8923 24.2855 2.73169 22.688 2.73169 19.3048C2.73169 13.179 3.82688 13.179 20.9588 13.179C38.0906 13.179 39.1858 13.1801 39.1858 19.3048Z" fill="#DD2E44"/>
<path d="M20.958 1.16797C10.3338 1.16797 1.72192 6.14643 1.72192 13.6872C1.72192 20.6317 10.3338 20.9151 20.958 20.9151C31.5823 20.9151 40.1941 20.6317 40.1941 13.6872C40.1941 6.14529 31.5823 1.16797 20.958 1.16797Z" fill="#D99E82"/>
<path d="M12.7789 4.76264C12.2143 4.40096 11.4649 4.5665 11.1044 5.13112C10.7438 5.69575 10.9082 6.44631 11.4728 6.80572C12.0374 7.1674 13.4682 7.43724 13.8299 6.87262C14.1904 6.30799 13.3435 5.12318 12.7789 4.76264ZM23.8147 3.58917C23.1775 3.79552 22.0585 4.72976 22.266 5.36695C22.4735 6.00414 23.9258 6.10164 24.5629 5.89529C25.2001 5.68894 25.5481 5.00414 25.3407 4.36695C25.1343 3.73089 24.4496 3.38169 23.8147 3.58917ZM36.1826 11.5654C35.6701 11.1345 34.3856 11.8205 33.9537 12.3329C33.5228 12.8465 33.5897 13.6107 34.1022 14.0416C34.6146 14.4724 35.3799 14.4055 35.8107 13.893C36.2427 13.3794 36.6962 11.9962 36.1826 11.5654ZM32.0524 5.89643C31.4878 5.53588 30.7384 5.70142 30.3767 6.26604C30.0162 6.83067 30.1817 7.5801 30.7463 7.94065C31.3109 8.30232 32.7417 8.57216 33.1022 8.00754C33.4639 7.44178 32.617 6.25697 32.0524 5.89643ZM15.0464 13.8329C14.4818 13.4724 13.7324 13.6379 13.3707 14.2025C13.0102 14.766 13.1757 15.5166 13.7403 15.876C14.3049 16.2377 15.7357 16.5087 16.0962 15.9429C16.4579 15.3783 15.611 14.1935 15.0464 13.8329ZM18.4997 8.38169C18.1188 8.93271 17.7968 10.3533 18.3489 10.7343C18.8999 11.1152 20.1142 10.3103 20.4951 9.75924C20.876 9.20822 20.7366 8.45312 20.1856 8.07216C19.6357 7.69121 18.8795 7.83067 18.4997 8.38169ZM27.5174 13.8329C26.9528 13.4724 26.2034 13.6379 25.8418 14.2025C25.4813 14.766 25.6468 15.5177 26.2114 15.876C26.776 16.2377 28.2068 16.5087 28.5673 15.9429C28.9289 15.3783 28.082 14.1935 27.5174 13.8329ZM6.1624 9.42591C5.7157 9.92591 5.21799 11.2944 5.71797 11.7411C6.21568 12.1878 7.52175 11.5438 7.96844 11.0438C8.41626 10.545 8.37318 9.77851 7.87434 9.33067C7.37663 8.88396 6.60909 8.92704 6.1624 9.42591Z" fill="#FFE8B6"/>
</g>
<defs>
<clipPath id="clip0_35_5962">
<rect width="40.8145" height="40.8163" fill="white" transform="translate(0.550293 0.573242)"/>
</clipPath>
</defs>
</svg>
