<svg width="118" height="118" viewBox="0 0 118 118" fill="none" xmlns="http://www.w3.org/2000/svg">
<g clip-path="url(#clip0_338_3567)">
<path d="M77.4648 76.4007L41.6084 40.5443L72.3462 14.9316L103.081 45.6661L77.4648 76.4007Z" fill="#2F5FDD"/>
<path d="M113.321 45.6647C107.666 51.3269 98.4927 51.3269 92.837 45.6647L72.3463 25.1772C66.6841 19.5215 66.6841 10.3421 72.3463 4.68316C77.9987 -0.972512 87.1748 -0.972512 92.837 4.68316L113.321 25.1772C118.98 30.8329 118.98 40.009 113.321 45.6647Z" fill="#5886FF"/>
<path d="M45.849 58.4746C45.849 58.4746 -1.94096 114.822 0.616696 117.389C3.17763 119.953 59.528 72.1537 59.528 72.1537L45.849 58.4746Z" fill="#99AAB5"/>
<path d="M82.5791 91.7735C76.9267 97.4357 67.7506 97.4357 62.0851 91.7735L26.232 55.9138C20.5763 50.2549 20.5763 41.0853 26.232 35.4264C31.8909 29.7641 41.0671 29.7641 46.726 35.4264L82.5791 71.2827C88.2381 76.9449 88.2381 86.1113 82.5791 91.7735Z" fill="#5886FF"/>
</g>
<defs>
<clipPath id="clip0_338_3567">
<rect width="117.895" height="117.895" fill="white" transform="translate(0 0.105469)"/>
</clipPath>
</defs>
</svg>
